<svg width="512" height="512" viewBox="0 0 512 512" fill="none" xmlns="http://www.w3.org/2000/svg">
<g clip-path="url(#clip0_1614_2785)">
<path d="M151.949 286.554C159.052 278.406 153.266 265.684 142.457 265.684H110.093C109.877 262.461 109.768 259.231 109.764 256.001C109.764 175.365 175.365 109.765 255.999 109.765C294.749 109.765 330.021 124.919 356.215 149.607L401.851 96.2186C361.902 59.6737 310.491 39.6562 255.999 39.6562C198.212 39.6562 143.883 62.1605 103.021 103.022C62.16 143.884 39.6558 198.212 39.6558 256C39.6558 259.24 39.7367 262.467 39.8776 265.683H12.6175C1.80795 265.683 -3.97897 278.405 3.1248 286.553L64.6199 357.091L77.5365 371.907L123.912 318.712L151.949 286.554ZM508.874 245.399L463.008 192.787L434.463 160.045L393.707 206.793L360.051 245.399C352.948 253.547 358.734 266.269 369.544 266.269H401.869C396.581 342.13 333.181 402.235 256 402.235C222.309 402.235 191.246 390.776 166.493 371.559L120.854 424.951C159.087 455.655 206.258 472.344 256.001 472.344C313.788 472.344 368.117 449.841 408.979 408.978C447.411 370.546 469.598 320.2 472.101 266.27H499.383C510.191 266.269 515.977 253.547 508.874 245.399Z" fill="black"/>
</g>
<defs>
<clipPath id="clip0_1614_2785">
<rect width="512" height="512" fill="white"/>
</clipPath>
</defs>
</svg>
