<svg width="329" height="319" viewBox="0 0 329 319" fill="none" xmlns="http://www.w3.org/2000/svg">
<path d="M64.045 207.502C63.8887 207.195 63.7345 206.887 63.5783 206.582C60.2974 200.104 57.0284 193.622 53.7712 187.134C51.7564 183.136 49.7208 179.155 47.729 175.157C47.504 174.708 47.2248 174.548 46.6602 174.533C39.8783 174.352 34.3904 171.887 30.6171 167.003C26.5793 161.791 26.0709 156.127 28.9087 150.317C29.1316 149.855 29.9692 149.381 30.54 149.362C31.0401 149.346 31.7693 149.868 32.0464 150.317C33.0403 151.92 33.8862 153.588 34.7862 155.237C35.703 156.909 36.5906 158.594 37.5615 160.242C37.6749 160.402 37.8269 160.537 38.0068 160.64C38.1868 160.743 38.3904 160.81 38.6032 160.837C41.8771 160.975 45.1524 161.07 48.4291 161.124C48.6323 161.11 48.8303 161.061 49.0114 160.98C49.1925 160.898 49.353 160.786 49.4833 160.649C51.471 158.412 53.4003 156.138 55.3797 153.895C55.7505 153.476 55.738 153.148 55.4859 152.692C53.692 149.464 51.9439 146.218 50.148 142.99C49.7729 142.318 49.5875 141.667 50.1938 141.078C50.8001 140.489 51.5189 140.462 52.3586 140.682C58.1215 142.189 62.4407 145.284 64.893 150.029C68.1016 156.245 67.2452 162.238 62.6511 167.77C62.1927 168.316 62.1615 168.679 62.5157 169.261C65.0159 173.348 67.4598 177.458 69.9351 181.555C71.938 184.869 73.9451 188.18 75.9564 191.487C82.8628 187.614 88.5427 182.288 92.4744 176C96.4062 169.712 98.4638 162.663 98.4583 155.5C98.4583 131.872 76.496 112.708 49.4021 112.708C22.3081 112.708 0.333313 131.872 0.333313 155.506C0.333313 177.485 19.3287 195.59 43.7766 198.02L65.8618 210.833" fill="url(#paint0_linear_103_1042)"/>
<path d="M121.4 130.597L134.267 102.002H139.496L152.404 130.597H146.849L135.779 104.821H137.903L126.874 130.597H121.4ZM127.323 123.979L128.753 119.813H144.194L145.623 123.979H127.323ZM167.928 108.538C169.671 108.538 171.223 108.879 172.585 109.559C173.973 110.24 175.063 111.289 175.853 112.705C176.642 114.094 177.037 115.891 177.037 118.097V130.597H171.931V118.75C171.931 116.817 171.468 115.374 170.542 114.42C169.643 113.467 168.377 112.991 166.743 112.991C165.545 112.991 164.483 113.236 163.557 113.726C162.631 114.216 161.909 114.951 161.392 115.932C160.902 116.885 160.657 118.097 160.657 119.567V130.597H155.551V108.783H160.412V114.666L159.554 112.868C160.316 111.479 161.419 110.417 162.863 109.682C164.333 108.919 166.022 108.538 167.928 108.538ZM183.515 130.597V108.783H188.621V130.597H183.515ZM186.088 105.189C185.135 105.189 184.345 104.889 183.719 104.29C183.12 103.691 182.82 102.969 182.82 102.125C182.82 101.253 183.12 100.532 183.719 99.9599C184.345 99.3607 185.135 99.0612 186.088 99.0612C187.041 99.0612 187.817 99.3471 188.417 99.919C189.043 100.464 189.356 101.158 189.356 102.002C189.356 102.901 189.056 103.664 188.457 104.29C187.858 104.889 187.068 105.189 186.088 105.189ZM205.331 130.883C203.043 130.883 201.001 130.406 199.203 129.453C197.433 128.473 196.044 127.138 195.037 125.45C194.029 123.761 193.525 121.841 193.525 119.69C193.525 117.511 194.029 115.591 195.037 113.93C196.044 112.242 197.433 110.921 199.203 109.968C201.001 109.015 203.043 108.538 205.331 108.538C207.455 108.538 209.32 108.974 210.927 109.845C212.561 110.69 213.8 111.942 214.644 113.603L210.723 115.891C210.069 114.856 209.266 114.094 208.313 113.603C207.387 113.113 206.379 112.868 205.29 112.868C204.037 112.868 202.907 113.141 201.899 113.685C200.892 114.23 200.102 115.02 199.53 116.054C198.958 117.062 198.672 118.274 198.672 119.69C198.672 121.106 198.958 122.332 199.53 123.366C200.102 124.374 200.892 125.15 201.899 125.695C202.907 126.239 204.037 126.512 205.29 126.512C206.379 126.512 207.387 126.267 208.313 125.776C209.266 125.286 210.069 124.524 210.723 123.489L214.644 125.776C213.8 127.41 212.561 128.677 210.927 129.575C209.32 130.447 207.455 130.883 205.331 130.883ZM225.798 130.883C223.974 130.883 222.217 130.651 220.529 130.188C218.867 129.698 217.547 129.112 216.566 128.432L218.527 124.551C219.507 125.177 220.678 125.695 222.04 126.103C223.402 126.512 224.763 126.716 226.125 126.716C227.732 126.716 228.889 126.498 229.597 126.062C230.332 125.627 230.7 125.041 230.7 124.306C230.7 123.707 230.455 123.257 229.965 122.958C229.475 122.631 228.835 122.386 228.045 122.223C227.255 122.059 226.37 121.909 225.39 121.773C224.437 121.637 223.47 121.46 222.489 121.242C221.536 120.997 220.665 120.657 219.875 120.221C219.085 119.758 218.445 119.145 217.955 118.383C217.465 117.62 217.22 116.613 217.22 115.36C217.22 113.971 217.615 112.773 218.405 111.765C219.194 110.73 220.297 109.941 221.713 109.396C223.157 108.824 224.859 108.538 226.819 108.538C228.29 108.538 229.774 108.702 231.272 109.028C232.77 109.355 234.009 109.818 234.989 110.417L233.028 114.298C231.994 113.672 230.945 113.249 229.883 113.032C228.848 112.786 227.813 112.664 226.779 112.664C225.226 112.664 224.069 112.895 223.306 113.358C222.571 113.821 222.203 114.407 222.203 115.115C222.203 115.768 222.449 116.259 222.939 116.585C223.429 116.912 224.069 117.171 224.859 117.362C225.648 117.552 226.52 117.716 227.473 117.852C228.453 117.961 229.42 118.138 230.373 118.383C231.326 118.628 232.198 118.968 232.988 119.404C233.805 119.813 234.458 120.398 234.948 121.161C235.439 121.923 235.684 122.917 235.684 124.143C235.684 125.504 235.275 126.689 234.458 127.696C233.668 128.704 232.538 129.494 231.068 130.066C229.597 130.61 227.841 130.883 225.798 130.883ZM249.313 130.883C247.461 130.883 245.827 130.542 244.411 129.861C242.995 129.153 241.892 128.091 241.102 126.675C240.313 125.232 239.918 123.421 239.918 121.242V108.783H245.024V120.548C245.024 122.509 245.459 123.979 246.331 124.96C247.23 125.913 248.496 126.389 250.13 126.389C251.328 126.389 252.363 126.144 253.234 125.654C254.133 125.164 254.828 124.428 255.318 123.448C255.835 122.468 256.094 121.256 256.094 119.813V108.783H261.2V130.597H256.339V124.714L257.197 126.512C256.462 127.928 255.386 129.017 253.97 129.78C252.554 130.515 251.001 130.883 249.313 130.883ZM280.263 108.538C282.006 108.538 283.558 108.879 284.92 109.559C286.308 110.24 287.398 111.289 288.188 112.705C288.977 114.094 289.372 115.891 289.372 118.097V130.597H284.266V118.75C284.266 116.817 283.803 115.374 282.877 114.42C281.978 113.467 280.712 112.991 279.078 112.991C277.88 112.991 276.818 113.236 275.892 113.726C274.966 114.216 274.244 114.951 273.727 115.932C273.237 116.885 272.992 118.097 272.992 119.567V130.597H267.886V108.783H272.747V114.666L271.889 112.868C272.651 111.479 273.754 110.417 275.198 109.682C276.668 108.919 278.357 108.538 280.263 108.538Z" fill="#2F2F2F"/>
<path d="M138.679 167.053C136.5 167.053 134.471 166.699 132.592 165.991C130.741 165.256 129.12 164.235 127.731 162.927C126.37 161.593 125.308 160.027 124.545 158.23C123.783 156.432 123.401 154.472 123.401 152.347C123.401 150.223 123.783 148.263 124.545 146.465C125.308 144.668 126.383 143.116 127.772 141.808C129.161 140.474 130.781 139.453 132.633 138.745C134.485 138.009 136.514 137.642 138.72 137.642C141.062 137.642 143.2 138.05 145.133 138.867C147.067 139.657 148.701 140.842 150.035 142.421L146.604 145.648C145.569 144.532 144.411 143.701 143.131 143.156C141.852 142.585 140.463 142.299 138.965 142.299C137.467 142.299 136.092 142.544 134.839 143.034C133.614 143.524 132.538 144.219 131.612 145.117C130.713 146.016 130.005 147.078 129.488 148.303C128.998 149.529 128.753 150.877 128.753 152.347C128.753 153.818 128.998 155.166 129.488 156.392C130.005 157.617 130.713 158.679 131.612 159.578C132.538 160.476 133.614 161.171 134.839 161.661C136.092 162.151 137.467 162.396 138.965 162.396C140.463 162.396 141.852 162.124 143.131 161.579C144.411 161.007 145.569 160.15 146.604 159.006L150.035 162.274C148.701 163.826 147.067 165.011 145.133 165.828C143.2 166.645 141.048 167.053 138.679 167.053ZM163.267 166.931C161.415 166.931 159.781 166.59 158.365 165.909C156.949 165.201 155.846 164.139 155.056 162.723C154.266 161.28 153.871 159.469 153.871 157.29V144.831H158.977V156.596C158.977 158.557 159.413 160.027 160.285 161.007C161.183 161.961 162.45 162.437 164.084 162.437C165.282 162.437 166.317 162.192 167.188 161.702C168.087 161.212 168.781 160.476 169.271 159.496C169.789 158.516 170.048 157.304 170.048 155.86V144.831H175.154V166.645H170.293V160.762L171.15 162.56C170.415 163.976 169.339 165.065 167.923 165.828C166.507 166.563 164.955 166.931 163.267 166.931ZM188.579 166.931C186.755 166.931 184.998 166.699 183.31 166.236C181.649 165.746 180.328 165.16 179.347 164.48L181.308 160.599C182.289 161.225 183.46 161.743 184.821 162.151C186.183 162.56 187.544 162.764 188.906 162.764C190.513 162.764 191.67 162.546 192.378 162.11C193.114 161.675 193.481 161.089 193.481 160.354C193.481 159.755 193.236 159.305 192.746 159.006C192.256 158.679 191.616 158.434 190.826 158.271C190.036 158.107 189.151 157.957 188.171 157.821C187.218 157.685 186.251 157.508 185.27 157.29C184.317 157.045 183.446 156.705 182.656 156.269C181.866 155.806 181.226 155.193 180.736 154.431C180.246 153.668 180.001 152.661 180.001 151.408C180.001 150.019 180.396 148.821 181.186 147.813C181.975 146.778 183.078 145.989 184.494 145.444C185.938 144.872 187.64 144.586 189.6 144.586C191.071 144.586 192.555 144.75 194.053 145.076C195.551 145.403 196.79 145.866 197.77 146.465L195.81 150.346C194.775 149.72 193.726 149.297 192.664 149.08C191.629 148.834 190.594 148.712 189.56 148.712C188.007 148.712 186.85 148.943 186.087 149.406C185.352 149.869 184.985 150.455 184.985 151.163C184.985 151.816 185.23 152.307 185.72 152.633C186.21 152.96 186.85 153.219 187.64 153.41C188.429 153.6 189.301 153.764 190.254 153.9C191.234 154.009 192.201 154.186 193.154 154.431C194.108 154.676 194.979 155.016 195.769 155.452C196.586 155.86 197.239 156.446 197.729 157.209C198.22 157.971 198.465 158.965 198.465 160.19C198.465 161.552 198.056 162.737 197.239 163.744C196.45 164.752 195.319 165.542 193.849 166.114C192.378 166.658 190.622 166.931 188.579 166.931ZM211.073 166.931C208.676 166.931 206.824 166.318 205.517 165.092C204.21 163.84 203.557 162.001 203.557 159.578V140.011H208.663V159.455C208.663 160.49 208.921 161.293 209.439 161.865C209.983 162.437 210.732 162.723 211.685 162.723C212.829 162.723 213.782 162.424 214.545 161.824L215.975 165.46C215.376 165.95 214.64 166.318 213.769 166.563C212.897 166.808 211.999 166.931 211.073 166.931ZM199.962 149.08V144.995H214.504V149.08H199.962ZM229.261 166.931C227.028 166.931 225.04 166.454 223.297 165.501C221.554 164.521 220.179 163.186 219.171 161.498C218.163 159.809 217.66 157.889 217.66 155.738C217.66 153.559 218.163 151.639 219.171 149.978C220.179 148.29 221.554 146.969 223.297 146.016C225.04 145.063 227.028 144.586 229.261 144.586C231.521 144.586 233.523 145.063 235.266 146.016C237.036 146.969 238.411 148.276 239.391 149.937C240.399 151.599 240.903 153.532 240.903 155.738C240.903 157.889 240.399 159.809 239.391 161.498C238.411 163.186 237.036 164.521 235.266 165.501C233.523 166.454 231.521 166.931 229.261 166.931ZM229.261 162.56C230.514 162.56 231.63 162.287 232.61 161.743C233.591 161.198 234.353 160.408 234.898 159.374C235.47 158.339 235.756 157.127 235.756 155.738C235.756 154.322 235.47 153.11 234.898 152.102C234.353 151.068 233.591 150.278 232.61 149.733C231.63 149.188 230.527 148.916 229.302 148.916C228.049 148.916 226.932 149.188 225.952 149.733C224.999 150.278 224.236 151.068 223.664 152.102C223.093 153.11 222.807 154.322 222.807 155.738C222.807 157.127 223.093 158.339 223.664 159.374C224.236 160.408 224.999 161.198 225.952 161.743C226.932 162.287 228.035 162.56 229.261 162.56ZM273.318 144.586C275.061 144.586 276.599 144.927 277.934 145.607C279.295 146.288 280.357 147.337 281.12 148.753C281.883 150.142 282.264 151.939 282.264 154.145V166.645H277.158V154.798C277.158 152.865 276.736 151.422 275.891 150.468C275.047 149.515 273.835 149.039 272.256 149.039C271.139 149.039 270.145 149.284 269.274 149.774C268.43 150.264 267.762 150.986 267.272 151.939C266.809 152.892 266.578 154.104 266.578 155.575V166.645H261.472V154.798C261.472 152.865 261.049 151.422 260.205 150.468C259.361 149.515 258.149 149.039 256.57 149.039C255.453 149.039 254.459 149.284 253.588 149.774C252.743 150.264 252.076 150.986 251.586 151.939C251.123 152.892 250.892 154.104 250.892 155.575V166.645H245.786V144.831H250.647V150.632L249.789 148.916C250.524 147.5 251.586 146.424 252.975 145.689C254.391 144.954 255.998 144.586 257.795 144.586C259.838 144.586 261.608 145.09 263.106 146.098C264.631 147.105 265.638 148.63 266.128 150.673L264.127 149.978C264.835 148.344 266.006 147.037 267.64 146.057C269.274 145.076 271.166 144.586 273.318 144.586ZM299.082 166.931C296.658 166.931 294.534 166.454 292.709 165.501C290.912 164.521 289.509 163.186 288.502 161.498C287.521 159.809 287.031 157.889 287.031 155.738C287.031 153.559 287.508 151.639 288.461 149.978C289.441 148.29 290.776 146.969 292.464 146.016C294.18 145.063 296.127 144.586 298.306 144.586C300.43 144.586 302.322 145.049 303.984 145.975C305.645 146.901 306.952 148.208 307.905 149.897C308.858 151.585 309.335 153.573 309.335 155.86C309.335 156.078 309.321 156.323 309.294 156.596C309.294 156.868 309.28 157.127 309.253 157.372H291.075V153.981H306.557L304.556 155.044C304.583 153.791 304.324 152.688 303.779 151.735C303.235 150.782 302.486 150.033 301.533 149.488C300.607 148.943 299.531 148.671 298.306 148.671C297.053 148.671 295.95 148.943 294.997 149.488C294.071 150.033 293.336 150.795 292.791 151.776C292.274 152.729 292.015 153.859 292.015 155.166V155.983C292.015 157.29 292.314 158.448 292.914 159.455C293.513 160.463 294.357 161.239 295.446 161.784C296.536 162.328 297.788 162.601 299.204 162.601C300.43 162.601 301.533 162.41 302.513 162.029C303.493 161.647 304.365 161.048 305.127 160.231L307.864 163.377C306.884 164.521 305.645 165.406 304.147 166.032C302.676 166.631 300.988 166.931 299.082 166.931ZM314.24 166.645V144.831H319.101V150.836L318.529 149.08C319.182 147.609 320.204 146.492 321.593 145.73C323.009 144.967 324.765 144.586 326.862 144.586V149.447C326.644 149.393 326.44 149.365 326.249 149.365C326.059 149.338 325.868 149.325 325.677 149.325C323.744 149.325 322.205 149.897 321.061 151.04C319.918 152.157 319.346 153.832 319.346 156.065V166.645H314.24Z" fill="#2F2F2F"/>
<path d="M134.308 203.101C132.075 203.101 129.937 202.788 127.895 202.161C125.852 201.508 124.232 200.677 123.034 199.67L124.872 195.544C126.016 196.443 127.432 197.191 129.12 197.791C130.809 198.39 132.538 198.689 134.308 198.689C135.806 198.689 137.018 198.526 137.944 198.199C138.87 197.872 139.55 197.437 139.986 196.892C140.422 196.32 140.64 195.68 140.64 194.972C140.64 194.101 140.327 193.406 139.7 192.889C139.074 192.344 138.257 191.922 137.249 191.622C136.269 191.296 135.166 190.996 133.94 190.724C132.742 190.451 131.53 190.138 130.305 189.784C129.107 189.403 128.004 188.926 126.996 188.354C126.016 187.755 125.212 186.966 124.586 185.985C123.96 185.005 123.646 183.752 123.646 182.227C123.646 180.675 124.055 179.259 124.872 177.979C125.716 176.672 126.982 175.637 128.671 174.874C130.387 174.085 132.552 173.69 135.166 173.69C136.882 173.69 138.584 173.908 140.272 174.343C141.96 174.779 143.431 175.405 144.684 176.222L143.009 180.348C141.729 179.586 140.408 179.027 139.047 178.673C137.685 178.292 136.378 178.101 135.125 178.101C133.654 178.101 132.456 178.278 131.53 178.632C130.632 178.986 129.964 179.449 129.529 180.021C129.12 180.593 128.916 181.247 128.916 181.982C128.916 182.853 129.216 183.562 129.815 184.106C130.441 184.624 131.244 185.032 132.225 185.332C133.232 185.631 134.349 185.931 135.574 186.23C136.8 186.503 138.012 186.816 139.21 187.17C140.435 187.524 141.538 187.987 142.519 188.559C143.526 189.131 144.33 189.907 144.929 190.887C145.555 191.867 145.868 193.107 145.868 194.604C145.868 196.129 145.446 197.546 144.602 198.853C143.785 200.133 142.519 201.167 140.803 201.957C139.087 202.72 136.922 203.101 134.308 203.101ZM159.876 202.978C158.024 202.978 156.39 202.638 154.974 201.957C153.558 201.249 152.455 200.187 151.665 198.771C150.875 197.328 150.48 195.517 150.48 193.338V180.879H155.587V192.644C155.587 194.604 156.022 196.075 156.894 197.055C157.792 198.008 159.059 198.485 160.693 198.485C161.891 198.485 162.926 198.24 163.797 197.75C164.696 197.26 165.39 196.524 165.881 195.544C166.398 194.564 166.657 193.352 166.657 191.908V180.879H171.763V202.693H166.902V196.81L167.76 198.608C167.024 200.024 165.949 201.113 164.533 201.876C163.116 202.611 161.564 202.978 159.876 202.978ZM190.54 202.978C188.77 202.978 187.149 202.57 185.679 201.753C184.235 200.936 183.078 199.711 182.206 198.077C181.362 196.415 180.94 194.318 180.94 191.786C180.94 189.226 181.349 187.129 182.166 185.495C183.01 183.861 184.154 182.649 185.597 181.859C187.04 181.042 188.688 180.634 190.54 180.634C192.691 180.634 194.584 181.097 196.218 182.023C197.879 182.949 199.186 184.242 200.139 185.904C201.12 187.565 201.61 189.525 201.61 191.786C201.61 194.046 201.12 196.02 200.139 197.709C199.186 199.37 197.879 200.664 196.218 201.59C194.584 202.515 192.691 202.978 190.54 202.978ZM178.448 210.617V180.879H183.309V186.026L183.146 191.827L183.555 197.627V210.617H178.448ZM189.968 198.608C191.193 198.608 192.283 198.335 193.236 197.791C194.216 197.246 194.992 196.456 195.564 195.421C196.136 194.387 196.422 193.175 196.422 191.786C196.422 190.37 196.136 189.158 195.564 188.15C194.992 187.115 194.216 186.326 193.236 185.781C192.283 185.236 191.193 184.964 189.968 184.964C188.742 184.964 187.639 185.236 186.659 185.781C185.679 186.326 184.903 187.115 184.331 188.15C183.759 189.158 183.473 190.37 183.473 191.786C183.473 193.175 183.759 194.387 184.331 195.421C184.903 196.456 185.679 197.246 186.659 197.791C187.639 198.335 188.742 198.608 189.968 198.608ZM218.544 202.978C216.774 202.978 215.153 202.57 213.683 201.753C212.239 200.936 211.082 199.711 210.21 198.077C209.366 196.415 208.944 194.318 208.944 191.786C208.944 189.226 209.353 187.129 210.17 185.495C211.014 183.861 212.158 182.649 213.601 181.859C215.044 181.042 216.692 180.634 218.544 180.634C220.695 180.634 222.588 181.097 224.222 182.023C225.883 182.949 227.19 184.242 228.143 185.904C229.124 187.565 229.614 189.525 229.614 191.786C229.614 194.046 229.124 196.02 228.143 197.709C227.19 199.37 225.883 200.664 224.222 201.59C222.588 202.515 220.695 202.978 218.544 202.978ZM206.452 210.617V180.879H211.313V186.026L211.15 191.827L211.558 197.627V210.617H206.452ZM217.972 198.608C219.197 198.608 220.287 198.335 221.24 197.791C222.22 197.246 222.996 196.456 223.568 195.421C224.14 194.387 224.426 193.175 224.426 191.786C224.426 190.37 224.14 189.158 223.568 188.15C222.996 187.115 222.22 186.326 221.24 185.781C220.287 185.236 219.197 184.964 217.972 184.964C216.746 184.964 215.643 185.236 214.663 185.781C213.683 186.326 212.906 187.115 212.335 188.15C211.763 189.158 211.477 190.37 211.477 191.786C211.477 193.175 211.763 194.387 212.335 195.421C212.906 196.456 213.683 197.246 214.663 197.791C215.643 198.335 216.746 198.608 217.972 198.608ZM244.26 202.978C242.027 202.978 240.039 202.502 238.296 201.549C236.553 200.568 235.178 199.234 234.17 197.546C233.163 195.857 232.659 193.937 232.659 191.786C232.659 189.607 233.163 187.687 234.17 186.026C235.178 184.338 236.553 183.017 238.296 182.064C240.039 181.111 242.027 180.634 244.26 180.634C246.52 180.634 248.522 181.111 250.265 182.064C252.035 183.017 253.41 184.324 254.391 185.985C255.398 187.646 255.902 189.58 255.902 191.786C255.902 193.937 255.398 195.857 254.391 197.546C253.41 199.234 252.035 200.568 250.265 201.549C248.522 202.502 246.52 202.978 244.26 202.978ZM244.26 198.608C245.513 198.608 246.629 198.335 247.61 197.791C248.59 197.246 249.353 196.456 249.897 195.421C250.469 194.387 250.755 193.175 250.755 191.786C250.755 190.37 250.469 189.158 249.897 188.15C249.353 187.115 248.59 186.326 247.61 185.781C246.629 185.236 245.526 184.964 244.301 184.964C243.048 184.964 241.932 185.236 240.951 185.781C239.998 186.326 239.236 187.115 238.664 188.15C238.092 189.158 237.806 190.37 237.806 191.786C237.806 193.175 238.092 194.387 238.664 195.421C239.236 196.456 239.998 197.246 240.951 197.791C241.932 198.335 243.035 198.608 244.26 198.608ZM260.785 202.693V180.879H265.646V186.884L265.074 185.127C265.728 183.657 266.749 182.54 268.138 181.778C269.554 181.015 271.31 180.634 273.407 180.634V185.495C273.189 185.441 272.985 185.413 272.794 185.413C272.604 185.386 272.413 185.372 272.223 185.372C270.289 185.372 268.75 185.944 267.607 187.088C266.463 188.205 265.891 189.88 265.891 192.113V202.693H260.785ZM286.747 202.978C284.351 202.978 282.499 202.366 281.192 201.14C279.885 199.888 279.231 198.049 279.231 195.626V176.059H284.337V195.503C284.337 196.538 284.596 197.341 285.113 197.913C285.658 198.485 286.407 198.771 287.36 198.771C288.504 198.771 289.457 198.471 290.219 197.872L291.649 201.508C291.05 201.998 290.315 202.366 289.443 202.611C288.572 202.856 287.673 202.978 286.747 202.978ZM275.636 185.127V181.042H290.179V185.127H275.636Z" fill="#2F2F2F"/>
<path d="M316.739 205.058C319.31 205.058 321.394 202.974 321.394 200.404C321.394 197.834 319.31 195.75 316.739 195.75C314.169 195.75 312.085 197.834 312.085 200.404C312.085 202.974 314.169 205.058 316.739 205.058Z" fill="#F47D39"/>
<path fill-rule="evenodd" clip-rule="evenodd" d="M119.471 8.31661C120.295 8.31661 121.1 8.07224 121.785 7.6144C122.471 7.15656 123.005 6.50582 123.32 5.74446C123.635 4.9831 123.718 4.14532 123.557 3.33707C123.396 2.52881 123 1.78639 122.417 1.20367C121.834 0.620948 121.092 0.224111 120.283 0.0633396C119.475 -0.0974322 118.637 -0.0149183 117.876 0.300447C117.115 0.615812 116.464 1.14986 116.006 1.83507C115.548 2.52027 115.304 3.32586 115.304 4.14994C115.304 5.25501 115.743 6.31482 116.524 7.09622C117.306 7.87762 118.366 8.31661 119.471 8.31661Z" fill="black"/>
<path fill-rule="evenodd" clip-rule="evenodd" d="M158.508 1.88074e-05H148.729C145.334 -0.0184153 142.005 0.932758 139.133 2.74169C136.204 4.56086 133.779 7.0868 132.081 10.0875C130.318 13.1544 129.406 16.6358 129.437 20.1729C129.411 23.7317 130.342 27.2321 132.131 30.3084C133.852 33.338 136.311 35.8835 139.279 37.7084C142.107 39.4956 145.383 40.4461 148.729 40.45H158.633C158.708 40.45 158.779 40.45 158.841 40.45C160.143 40.363 161.362 39.7847 162.253 38.8321C163.144 37.8796 163.64 36.6241 163.64 35.3198C163.64 34.0155 163.144 32.76 162.253 31.8075C161.362 30.855 160.143 30.2766 158.841 30.1896C158.768 30.1896 158.696 30.1792 158.633 30.1792H148.729C147.009 30.1728 145.322 29.7167 143.833 28.8563C142.275 27.9787 140.962 26.7245 140.014 25.2084C139.044 23.706 138.533 21.9531 138.543 20.1646C138.527 18.389 139.039 16.6487 140.014 15.1646C140.978 13.6842 142.289 12.4619 143.833 11.6042C145.322 10.7441 147.01 10.2887 148.729 10.2834H158.729C158.869 10.2829 159.008 10.269 159.146 10.2417C160.38 10.0861 161.516 9.48835 162.343 8.55924C163.17 7.63012 163.632 6.43265 163.644 5.18875C163.656 3.94485 163.216 2.73889 162.406 1.79439C161.597 0.849879 160.472 0.230875 159.241 0.0521021C159.073 0.0177645 158.902 0.000316507 158.731 1.88074e-05H158.508Z" fill="black"/>
<path fill-rule="evenodd" clip-rule="evenodd" d="M193.767 -7.40218e-05H203.767C203.938 0.000430129 204.109 0.017876 204.277 0.0520093C205.508 0.229835 206.633 0.84794 207.443 1.79177C208.254 2.7356 208.694 3.94116 208.684 5.18502C208.673 6.42887 208.212 7.62668 207.385 8.55646C206.559 9.48624 205.424 10.0849 204.19 10.2416C204.052 10.2688 203.913 10.2827 203.773 10.2833H193.773C192.053 10.2886 190.364 10.7439 188.875 11.6041C187.329 12.4659 186.018 13.6934 185.056 15.1791C184.086 16.6645 183.578 18.4048 183.598 20.1791V20.277C183.629 23.815 182.716 27.2973 180.952 30.3645C179.252 33.3671 176.822 35.8928 173.888 37.7083C171.015 39.5158 167.686 40.4649 164.292 40.4437H154.292C154.12 40.4444 153.949 40.427 153.781 40.3916C152.555 40.2082 151.436 39.5877 150.631 38.6446C149.826 37.7014 149.389 36.4991 149.4 35.2592C149.412 34.0192 149.871 32.8252 150.693 31.897C151.516 30.9688 152.646 30.3691 153.875 30.2083C154.012 30.1818 154.152 30.1686 154.292 30.1687H164.292C166.011 30.1623 167.699 29.7062 169.188 28.8458C170.733 27.9842 172.044 26.7575 173.006 25.2728C173.977 23.7874 174.484 22.0472 174.465 20.2728V20.1749C174.434 16.6376 175.347 13.1562 177.11 10.0895C178.808 7.08888 181.232 4.56292 184.16 2.74368C187.036 0.932428 190.369 -0.0195239 193.767 -7.40218e-05Z" fill="black"/>
<path d="M8.67555 315.399C7.66516 315.399 6.87076 315.11 6.29235 314.531C5.71394 313.953 5.42473 313.107 5.42473 311.994V307.623H6.52298V311.951C6.52298 312.807 6.70968 313.433 7.08309 313.829C7.46381 314.224 7.99829 314.422 8.68653 314.422C9.38209 314.422 9.91657 314.224 10.29 313.829C10.6707 313.433 10.8611 312.807 10.8611 311.951V307.623H11.9264V311.994C11.9264 313.107 11.6372 313.953 11.0587 314.531C10.4877 315.11 9.69326 315.399 8.67555 315.399ZM12.8529 315.311L16.3344 307.623H17.4216L20.9141 315.311H19.7609L16.6529 308.238H17.0922L13.9841 315.311H12.8529ZM14.3356 313.389L14.6321 312.511H18.9592L19.2777 313.389H14.3356ZM22.0609 315.311V307.623H22.9615L28.0464 313.938H27.5741V307.623H28.6724V315.311H27.7718L22.6869 308.996H23.1591V315.311H22.0609ZM31.0723 310.94C30.8673 310.94 30.6916 310.871 30.5451 310.731C30.3987 310.585 30.3255 310.402 30.3255 310.182C30.3255 309.963 30.3987 309.783 30.5451 309.644C30.6916 309.505 30.8673 309.436 31.0723 309.436C31.27 309.436 31.4384 309.505 31.5775 309.644C31.7239 309.783 31.7971 309.963 31.7971 310.182C31.7971 310.402 31.7239 310.585 31.5775 310.731C31.4384 310.871 31.27 310.94 31.0723 310.94ZM31.0723 315.377C30.8673 315.377 30.6916 315.307 30.5451 315.168C30.3987 315.022 30.3255 314.839 30.3255 314.619C30.3255 314.4 30.3987 314.22 30.5451 314.081C30.6916 313.942 30.8673 313.872 31.0723 313.872C31.27 313.872 31.4384 313.942 31.5775 314.081C31.7239 314.22 31.7971 314.4 31.7971 314.619C31.7971 314.839 31.7239 315.022 31.5775 315.168C31.4384 315.307 31.27 315.377 31.0723 315.377ZM37.9925 313.872V309.062H38.9151V313.872H37.9925ZM35.9937 311.907V311.039H40.9139V311.907H35.9937ZM44.6702 307.536C45.3658 307.536 45.9515 307.686 46.4274 307.986C46.9107 308.286 47.2768 308.722 47.5257 309.293C47.7746 309.857 47.8991 310.548 47.8991 311.368C47.8991 312.24 47.7453 312.976 47.4378 313.576C47.1303 314.176 46.7057 314.63 46.1639 314.938C45.6221 315.245 44.9887 315.399 44.2639 315.399C43.9051 315.399 43.5573 315.362 43.2206 315.289C42.8911 315.216 42.6019 315.102 42.3529 314.949L42.7703 314.092C42.9753 314.224 43.2022 314.319 43.4512 314.378C43.7074 314.429 43.9747 314.455 44.2529 314.455C45.029 314.455 45.6477 314.213 46.1089 313.73C46.5702 313.239 46.8008 312.514 46.8008 311.555C46.8008 311.401 46.7935 311.218 46.7789 311.006C46.7642 310.794 46.7313 310.585 46.68 310.38L47.0425 310.753C46.94 311.09 46.7679 311.376 46.5263 311.61C46.292 311.837 46.0064 312.009 45.6696 312.126C45.3402 312.236 44.9778 312.291 44.5824 312.291C44.0772 312.291 43.6269 312.196 43.2315 312.005C42.8362 311.815 42.525 311.548 42.298 311.204C42.0711 310.852 41.9576 310.439 41.9576 309.963C41.9576 309.465 42.0747 309.036 42.309 308.678C42.5506 308.312 42.8764 308.03 43.2864 307.832C43.7038 307.634 44.165 307.536 44.6702 307.536ZM44.7142 308.425C44.3847 308.425 44.0918 308.487 43.8356 308.612C43.5793 308.736 43.378 308.908 43.2315 309.128C43.0924 309.348 43.0229 309.611 43.0229 309.919C43.0229 310.373 43.1803 310.735 43.4951 311.006C43.8099 311.27 44.2346 311.401 44.7691 311.401C45.1205 311.401 45.428 311.335 45.6916 311.204C45.9625 311.072 46.1712 310.893 46.3176 310.666C46.4714 310.439 46.5482 310.186 46.5482 309.908C46.5482 309.637 46.4787 309.392 46.3396 309.172C46.2005 308.952 45.9955 308.773 45.7246 308.634C45.4537 308.495 45.1169 308.425 44.7142 308.425ZM48.8347 315.311V314.564L51.9647 311.544C52.2429 311.281 52.4479 311.05 52.5797 310.852C52.7188 310.647 52.8103 310.461 52.8543 310.292C52.9055 310.116 52.9311 309.948 52.9311 309.787C52.9311 309.392 52.792 309.08 52.5138 308.853C52.2356 308.626 51.8292 308.513 51.2947 308.513C50.8847 308.513 50.515 308.583 50.1855 308.722C49.856 308.853 49.5705 309.062 49.3289 309.348L48.5821 308.7C48.8749 308.326 49.2666 308.041 49.7572 307.843C50.2551 307.638 50.8005 307.536 51.3936 307.536C51.9281 307.536 52.393 307.623 52.7884 307.799C53.1837 307.968 53.4876 308.213 53.6999 308.535C53.9196 308.857 54.0294 309.238 54.0294 309.677C54.0294 309.926 53.9964 310.171 53.9305 310.413C53.8646 310.655 53.7402 310.911 53.5571 311.182C53.3741 311.453 53.1105 311.756 52.7664 312.093L49.9768 314.784L49.7133 314.356H54.3589V315.311H48.8347ZM60.5615 315.399C60.0197 315.399 59.4925 315.315 58.98 315.146C58.4748 314.978 58.0611 314.751 57.739 314.466L58.2442 313.598C58.5004 313.84 58.8336 314.037 59.2436 314.191C59.6536 314.345 60.0929 314.422 60.5615 314.422C61.1326 314.422 61.5755 314.301 61.8904 314.059C62.2125 313.81 62.3736 313.477 62.3736 313.06C62.3736 312.657 62.2198 312.335 61.9123 312.093C61.6121 311.844 61.1326 311.72 60.4736 311.72H59.8586V310.951L62.143 308.14L62.2967 308.579H58.0904V307.623H63.1643V308.37L60.891 311.171L60.3199 310.83H60.6823C61.6121 310.83 62.3077 311.039 62.769 311.456C63.2375 311.874 63.4718 312.404 63.4718 313.049C63.4718 313.481 63.3657 313.876 63.1533 314.235C62.941 314.594 62.6189 314.879 62.1869 315.092C61.7622 315.297 61.2204 315.399 60.5615 315.399ZM65.7921 315.311V308.063L66.2643 308.579H64.0568V307.623H66.8793V315.311H65.7921ZM69.8569 315.311V308.063L70.3291 308.579H68.1216V307.623H70.9441V315.311H69.8569ZM73.9217 315.311V308.063L74.3939 308.579H72.1864V307.623H75.0089V315.311H73.9217ZM80.9688 315.311L84.2306 308.085L84.5162 308.579H79.9475L80.4966 308.041V309.952H79.4423V307.623H85.241V308.37L82.133 315.311H80.9688ZM87.5326 315.311L90.7944 308.085L91.0799 308.579H86.5112L87.0604 308.041V309.952H86.006V307.623H91.8048V308.37L88.6967 315.311H87.5326ZM94.0964 315.311L97.3582 308.085L97.6437 308.579H93.075L93.6241 308.041V309.952H92.5698V307.623H98.3685V308.37L95.2605 315.311H94.0964ZM103.577 315.311V308.063L104.049 308.579H101.841V307.623H104.664V315.311H103.577ZM109.574 315.399C108.893 315.399 108.311 315.249 107.828 314.949C107.345 314.649 106.975 314.217 106.719 313.653C106.47 313.082 106.345 312.386 106.345 311.566C106.345 310.695 106.499 309.959 106.807 309.359C107.114 308.758 107.543 308.304 108.092 307.997C108.641 307.689 109.27 307.536 109.981 307.536C110.347 307.536 110.695 307.572 111.024 307.645C111.361 307.719 111.65 307.832 111.892 307.986L111.474 308.842C111.277 308.703 111.05 308.608 110.793 308.557C110.544 308.506 110.281 308.48 110.003 308.48C109.219 308.48 108.597 308.725 108.136 309.216C107.674 309.699 107.444 310.42 107.444 311.379C107.444 311.533 107.451 311.716 107.466 311.929C107.48 312.141 107.517 312.35 107.575 312.555L107.202 312.181C107.312 311.844 107.484 311.562 107.718 311.335C107.96 311.101 108.245 310.929 108.575 310.819C108.912 310.702 109.274 310.644 109.662 310.644C110.175 310.644 110.629 310.739 111.024 310.929C111.419 311.12 111.731 311.39 111.957 311.742C112.184 312.086 112.298 312.496 112.298 312.972C112.298 313.462 112.177 313.891 111.936 314.257C111.694 314.623 111.368 314.905 110.958 315.102C110.548 315.3 110.087 315.399 109.574 315.399ZM109.53 314.509C109.867 314.509 110.16 314.447 110.409 314.323C110.665 314.198 110.867 314.026 111.013 313.807C111.159 313.58 111.233 313.316 111.233 313.016C111.233 312.562 111.075 312.203 110.76 311.94C110.446 311.669 110.017 311.533 109.475 311.533C109.124 311.533 108.816 311.599 108.553 311.731C108.289 311.863 108.081 312.042 107.927 312.269C107.78 312.489 107.707 312.741 107.707 313.027C107.707 313.29 107.777 313.536 107.916 313.763C108.055 313.982 108.26 314.162 108.531 314.301C108.802 314.44 109.135 314.509 109.53 314.509ZM115.474 315.399C114.932 315.399 114.405 315.315 113.892 315.146C113.387 314.978 112.974 314.751 112.651 314.466L113.157 313.598C113.413 313.84 113.746 314.037 114.156 314.191C114.566 314.345 115.005 314.422 115.474 314.422C116.045 314.422 116.488 314.301 116.803 314.059C117.125 313.81 117.286 313.477 117.286 313.06C117.286 312.657 117.132 312.335 116.825 312.093C116.525 311.844 116.045 311.72 115.386 311.72H114.771V310.951L117.055 308.14L117.209 308.579H113.003V307.623H118.077V308.37L115.803 311.171L115.232 310.83H115.595C116.525 310.83 117.22 311.039 117.681 311.456C118.15 311.874 118.384 312.404 118.384 313.049C118.384 313.481 118.278 313.876 118.066 314.235C117.853 314.594 117.531 314.879 117.099 315.092C116.675 315.297 116.133 315.399 115.474 315.399Z" fill="white"/>
<path d="M220.759 315.61L218.654 309.946H219.626L221.496 315.075H221.037L222.982 309.946H223.847L225.749 315.075H225.3L227.213 309.946H228.132L226.016 315.61H225.033L223.249 310.929H223.548L221.742 315.61H220.759ZM230.287 315.61L228.181 309.946H229.154L231.024 315.075H230.564L232.509 309.946H233.375L235.277 315.075H234.828L236.741 309.946H237.66L235.544 315.61H234.561L232.776 310.929H233.076L231.27 315.61H230.287ZM239.814 315.61L237.709 309.946H238.682L240.552 315.075H240.092L242.037 309.946H242.903L244.805 315.075H244.356L246.269 309.946H247.188L245.072 315.61H244.089L242.304 310.929H242.603L240.797 315.61H239.814ZM248.12 315.674C247.92 315.674 247.749 315.606 247.607 315.471C247.464 315.328 247.393 315.15 247.393 314.937C247.393 314.723 247.464 314.548 247.607 314.413C247.749 314.278 247.92 314.21 248.12 314.21C248.312 314.21 248.476 314.278 248.611 314.413C248.754 314.548 248.825 314.723 248.825 314.937C248.825 315.15 248.754 315.328 248.611 315.471C248.476 315.606 248.312 315.674 248.12 315.674ZM253.915 315.61V314.413L253.861 314.188V312.147C253.861 311.713 253.733 311.378 253.477 311.143C253.227 310.901 252.85 310.78 252.344 310.78C252.009 310.78 251.682 310.837 251.361 310.951C251.04 311.057 250.77 311.204 250.549 311.389L250.121 310.619C250.413 310.384 250.763 310.206 251.169 310.085C251.582 309.957 252.013 309.893 252.462 309.893C253.238 309.893 253.837 310.081 254.257 310.459C254.677 310.837 254.887 311.414 254.887 312.19V315.61H253.915ZM252.056 315.674C251.635 315.674 251.265 315.603 250.944 315.46C250.631 315.318 250.389 315.122 250.218 314.872C250.047 314.616 249.961 314.327 249.961 314.007C249.961 313.701 250.032 313.423 250.175 313.173C250.324 312.924 250.563 312.725 250.891 312.575C251.226 312.425 251.674 312.35 252.237 312.35H254.032V313.088H252.28C251.767 313.088 251.422 313.173 251.243 313.344C251.065 313.515 250.976 313.722 250.976 313.964C250.976 314.242 251.087 314.466 251.308 314.637C251.528 314.801 251.835 314.883 252.227 314.883C252.611 314.883 252.946 314.798 253.231 314.627C253.523 314.456 253.733 314.206 253.861 313.879L254.065 314.584C253.929 314.919 253.691 315.186 253.349 315.385C253.007 315.578 252.576 315.674 252.056 315.674ZM259.81 309.893C260.273 309.893 260.679 309.982 261.028 310.16C261.384 310.338 261.662 310.609 261.862 310.972C262.061 311.335 262.161 311.795 262.161 312.35V315.61H261.135V312.468C261.135 311.919 261 311.506 260.729 311.228C260.465 310.951 260.091 310.812 259.607 310.812C259.244 310.812 258.927 310.883 258.656 311.025C258.385 311.168 258.175 311.378 258.025 311.656C257.883 311.934 257.812 312.279 257.812 312.692V315.61H256.786V309.946H257.769V311.474L257.609 311.068C257.794 310.698 258.079 310.409 258.464 310.203C258.848 309.996 259.297 309.893 259.81 309.893ZM264.059 315.61V309.946H265.085V315.61H264.059ZM264.572 308.856C264.373 308.856 264.205 308.792 264.07 308.664C263.942 308.536 263.878 308.379 263.878 308.194C263.878 308.001 263.942 307.841 264.07 307.713C264.205 307.585 264.373 307.52 264.572 307.52C264.772 307.52 264.936 307.585 265.064 307.713C265.199 307.834 265.267 307.987 265.267 308.172C265.267 308.365 265.203 308.528 265.075 308.664C264.946 308.792 264.779 308.856 264.572 308.856ZM269.512 315.674C268.935 315.674 268.419 315.549 267.963 315.3C267.514 315.051 267.162 314.709 266.905 314.274C266.649 313.839 266.52 313.341 266.52 312.778C266.52 312.215 266.649 311.716 266.905 311.282C267.162 310.847 267.514 310.509 267.963 310.267C268.419 310.017 268.935 309.893 269.512 309.893C270.025 309.893 270.481 309.996 270.88 310.203C271.286 310.402 271.6 310.701 271.821 311.1L271.041 311.602C270.855 311.325 270.627 311.122 270.357 310.993C270.093 310.858 269.808 310.79 269.502 310.79C269.131 310.79 268.8 310.872 268.508 311.036C268.216 311.2 267.984 311.431 267.813 311.731C267.642 312.023 267.557 312.372 267.557 312.778C267.557 313.184 267.642 313.537 267.813 313.836C267.984 314.135 268.216 314.367 268.508 314.53C268.8 314.694 269.131 314.776 269.502 314.776C269.808 314.776 270.093 314.712 270.357 314.584C270.627 314.449 270.855 314.242 271.041 313.964L271.821 314.456C271.6 314.847 271.286 315.15 270.88 315.364C270.481 315.571 270.025 315.674 269.512 315.674ZM274.773 315.674C274.303 315.674 273.854 315.61 273.427 315.482C273.006 315.353 272.675 315.197 272.433 315.011L272.86 314.199C273.103 314.363 273.402 314.502 273.758 314.616C274.114 314.73 274.477 314.787 274.848 314.787C275.325 314.787 275.667 314.719 275.874 314.584C276.087 314.449 276.194 314.26 276.194 314.018C276.194 313.839 276.13 313.701 276.002 313.601C275.874 313.501 275.703 313.426 275.489 313.376C275.282 313.326 275.051 313.284 274.794 313.248C274.538 313.205 274.282 313.156 274.025 313.099C273.769 313.034 273.534 312.949 273.32 312.842C273.106 312.728 272.935 312.575 272.807 312.383C272.679 312.183 272.615 311.919 272.615 311.592C272.615 311.25 272.711 310.951 272.903 310.694C273.095 310.438 273.366 310.242 273.715 310.106C274.071 309.964 274.492 309.893 274.976 309.893C275.347 309.893 275.721 309.939 276.098 310.032C276.483 310.117 276.796 310.242 277.039 310.406L276.6 311.218C276.344 311.047 276.077 310.929 275.799 310.865C275.521 310.801 275.243 310.769 274.965 310.769C274.517 310.769 274.182 310.844 273.961 310.993C273.74 311.136 273.63 311.321 273.63 311.549C273.63 311.741 273.694 311.891 273.822 311.998C273.957 312.098 274.128 312.176 274.335 312.233C274.549 312.29 274.784 312.34 275.04 312.383C275.297 312.418 275.553 312.468 275.81 312.532C276.066 312.589 276.298 312.671 276.504 312.778C276.718 312.885 276.889 313.034 277.017 313.227C277.153 313.419 277.22 313.676 277.22 313.996C277.22 314.338 277.12 314.634 276.921 314.883C276.722 315.132 276.44 315.328 276.077 315.471C275.713 315.606 275.279 315.674 274.773 315.674ZM280.885 315.674C280.401 315.674 279.973 315.585 279.603 315.407C279.24 315.229 278.955 314.958 278.748 314.595C278.549 314.224 278.449 313.761 278.449 313.205V309.946H279.475V313.088C279.475 313.644 279.607 314.06 279.87 314.338C280.141 314.616 280.518 314.755 281.003 314.755C281.359 314.755 281.669 314.684 281.932 314.541C282.196 314.392 282.399 314.178 282.542 313.9C282.684 313.615 282.755 313.273 282.755 312.874V309.946H283.781V315.61H282.809V314.082L282.969 314.488C282.784 314.865 282.506 315.157 282.136 315.364C281.765 315.571 281.348 315.674 280.885 315.674ZM288.758 309.893C289.221 309.893 289.627 309.982 289.977 310.16C290.333 310.338 290.611 310.609 290.81 310.972C291.009 311.335 291.109 311.795 291.109 312.35V315.61H290.083V312.468C290.083 311.919 289.948 311.506 289.677 311.228C289.414 310.951 289.04 310.812 288.555 310.812C288.192 310.812 287.875 310.883 287.604 311.025C287.333 311.168 287.123 311.378 286.974 311.656C286.831 311.934 286.76 312.279 286.76 312.692V315.61H285.734V309.946H286.717V311.474L286.557 311.068C286.742 310.698 287.027 310.409 287.412 310.203C287.797 309.996 288.245 309.893 288.758 309.893ZM293.254 315.674C293.054 315.674 292.883 315.606 292.741 315.471C292.598 315.328 292.527 315.15 292.527 314.937C292.527 314.723 292.598 314.548 292.741 314.413C292.883 314.278 293.054 314.21 293.254 314.21C293.446 314.21 293.61 314.278 293.745 314.413C293.888 314.548 293.959 314.723 293.959 314.937C293.959 315.15 293.888 315.328 293.745 315.471C293.61 315.606 293.446 315.674 293.254 315.674ZM297.772 315.674C297.195 315.674 296.679 315.549 296.223 315.3C295.774 315.051 295.421 314.709 295.165 314.274C294.908 313.839 294.78 313.341 294.78 312.778C294.78 312.215 294.908 311.716 295.165 311.282C295.421 310.847 295.774 310.509 296.223 310.267C296.679 310.017 297.195 309.893 297.772 309.893C298.285 309.893 298.741 309.996 299.14 310.203C299.546 310.402 299.859 310.701 300.08 311.1L299.3 311.602C299.115 311.325 298.887 311.122 298.616 310.993C298.353 310.858 298.068 310.79 297.761 310.79C297.391 310.79 297.06 310.872 296.768 311.036C296.475 311.2 296.244 311.431 296.073 311.731C295.902 312.023 295.817 312.372 295.817 312.778C295.817 313.184 295.902 313.537 296.073 313.836C296.244 314.135 296.475 314.367 296.768 314.53C297.06 314.694 297.391 314.776 297.761 314.776C298.068 314.776 298.353 314.712 298.616 314.584C298.887 314.449 299.115 314.242 299.3 313.964L300.08 314.456C299.859 314.847 299.546 315.15 299.14 315.364C298.741 315.571 298.285 315.674 297.772 315.674ZM303.751 315.674C303.181 315.674 302.675 315.549 302.233 315.3C301.792 315.051 301.442 314.709 301.186 314.274C300.93 313.832 300.801 313.334 300.801 312.778C300.801 312.215 300.93 311.716 301.186 311.282C301.442 310.847 301.792 310.509 302.233 310.267C302.675 310.017 303.181 309.893 303.751 309.893C304.313 309.893 304.816 310.017 305.257 310.267C305.706 310.509 306.055 310.847 306.305 311.282C306.561 311.709 306.689 312.208 306.689 312.778C306.689 313.341 306.561 313.839 306.305 314.274C306.055 314.709 305.706 315.051 305.257 315.3C304.816 315.549 304.313 315.674 303.751 315.674ZM303.751 314.776C304.114 314.776 304.438 314.694 304.723 314.53C305.015 314.367 305.243 314.135 305.407 313.836C305.571 313.53 305.653 313.177 305.653 312.778C305.653 312.372 305.571 312.023 305.407 311.731C305.243 311.431 305.015 311.2 304.723 311.036C304.438 310.872 304.114 310.79 303.751 310.79C303.387 310.79 303.063 310.872 302.778 311.036C302.493 311.2 302.265 311.431 302.094 311.731C301.923 312.023 301.838 312.372 301.838 312.778C301.838 313.177 301.923 313.53 302.094 313.836C302.265 314.135 302.493 314.367 302.778 314.53C303.063 314.694 303.387 314.776 303.751 314.776ZM315.193 309.893C315.649 309.893 316.051 309.982 316.4 310.16C316.75 310.338 317.02 310.609 317.213 310.972C317.412 311.335 317.512 311.795 317.512 312.35V315.61H316.486V312.468C316.486 311.919 316.358 311.506 316.101 311.228C315.845 310.951 315.485 310.812 315.022 310.812C314.68 310.812 314.381 310.883 314.124 311.025C313.868 311.168 313.668 311.378 313.526 311.656C313.391 311.934 313.323 312.279 313.323 312.692V315.61H312.297V312.468C312.297 311.919 312.169 311.506 311.912 311.228C311.663 310.951 311.303 310.812 310.833 310.812C310.498 310.812 310.203 310.883 309.946 311.025C309.69 311.168 309.49 311.378 309.348 311.656C309.205 311.934 309.134 312.279 309.134 312.692V315.61H308.108V309.946H309.091V311.453L308.931 311.068C309.109 310.698 309.383 310.409 309.754 310.203C310.124 309.996 310.555 309.893 311.047 309.893C311.588 309.893 312.055 310.028 312.447 310.299C312.838 310.562 313.095 310.965 313.216 311.506L312.799 311.335C312.97 310.901 313.269 310.552 313.697 310.288C314.124 310.024 314.623 309.893 315.193 309.893Z" fill="white"/>
<defs>
<linearGradient id="paint0_linear_103_1042" x1="0.333313" y1="161.773" x2="98.4458" y2="161.773" gradientUnits="userSpaceOnUse">
<stop stop-color="#F47736"/>
<stop offset="1" stop-color="#E9BC59"/>
</linearGradient>
</defs>
</svg>
