<svg width="17" height="23" viewBox="0 0 17 23" fill="none" xmlns="http://www.w3.org/2000/svg">
<line x1="1.26047" y1="1.36916" x2="15.5595" y2="1.36916" stroke="#F17D65" stroke-width="1.26168"/>
<path d="M8.39926 22.8188C8.75681 22.8269 9.11232 22.7732 9.4414 22.6613C9.77048 22.5495 10.0653 22.3821 10.3057 22.1707C10.5461 21.9594 10.7264 21.709 10.8341 21.4368C10.9418 21.1646 10.9745 20.877 10.9298 20.5938H5.85961C5.81501 20.8776 5.84802 21.1657 5.95634 21.4384C6.06467 21.7111 6.24575 21.9618 6.48711 22.1732C6.72847 22.3847 7.02439 22.5519 7.35449 22.6634C7.68458 22.7748 8.04102 22.8279 8.39926 22.8188Z" fill="#E75524"/>
<path d="M16.6107 18.4621C15.8008 17.6103 14.2072 17.1106 14.2072 13.2941C14.2072 9.37712 12.0396 7.80291 10.0205 7.42543C9.83111 7.38741 9.69386 7.3349 9.69386 7.17739V7.05518C9.69897 6.91811 9.66955 6.78162 9.60735 6.65378C9.54515 6.52595 9.45143 6.40938 9.33175 6.31098C9.21206 6.21259 9.06885 6.13436 8.91059 6.08094C8.75233 6.02752 8.58225 6 8.41042 6C8.23859 6 8.06851 6.02752 7.91025 6.08094C7.752 6.13436 7.60878 6.21259 7.4891 6.31098C7.36942 6.40938 7.2757 6.52595 7.2135 6.65378C7.15129 6.78162 7.12188 6.91811 7.12698 7.05518V7.17649C7.12698 7.33219 6.98973 7.3865 6.80031 7.42452C4.77561 7.80653 2.61367 9.37712 2.61367 13.2932C2.61367 17.1097 1.02001 17.6048 0.210129 18.4612C0.0932551 18.5851 0.0219837 18.7325 0.00432429 18.8869C-0.0133351 19.0413 0.0233174 19.1966 0.110163 19.3353C0.197008 19.4741 0.330605 19.5907 0.495941 19.6721C0.661276 19.7536 0.851798 19.7966 1.0461 19.7964H15.7804C15.974 19.7957 16.1636 19.752 16.3279 19.6702C16.4922 19.5885 16.6249 19.4719 16.711 19.3335C16.7971 19.1951 16.8333 19.0404 16.8156 18.8865C16.7979 18.7326 16.727 18.5857 16.6107 18.4621Z" fill="#E75524"/>
</svg>
