<svg width="21" height="27" viewBox="0 0 21 27" fill="none" xmlns="http://www.w3.org/2000/svg">
<line x1="2.94394" y1="1.36916" x2="17.243" y2="1.36916" stroke="#F17D65" stroke-width="1.26168"/>
<path d="M1.58859 22.7778L8.96827 8.38285C9.05966 8.20341 9.18902 8.05488 9.34372 7.95176C9.49842 7.84864 9.67319 7.79443 9.85099 7.79443C10.0288 7.79443 10.2036 7.84864 10.3583 7.95176C10.513 8.05488 10.6423 8.20341 10.7337 8.38285L18.1123 22.7778C18.2071 22.9617 18.2586 23.172 18.2615 23.387C18.2644 23.6021 18.2185 23.8142 18.1286 24.0015C18.0387 24.1888 17.908 24.3445 17.75 24.4527C17.592 24.5608 17.4123 24.6175 17.2295 24.6169H2.47017C2.28746 24.6173 2.10794 24.5604 1.95008 24.4521C1.79222 24.3439 1.66171 24.1881 1.57195 24.0009C1.48219 23.8136 1.43642 23.6016 1.43934 23.3867C1.44227 23.1717 1.49378 22.9616 1.58859 22.7778ZM9.84413 12.774C9.74855 12.7603 9.65159 12.7701 9.55936 12.8026C9.46713 12.8352 9.38161 12.8898 9.30817 12.9631C9.23473 13.0363 9.17495 13.1267 9.1326 13.2284C9.09024 13.3301 9.06621 13.4411 9.06203 13.5543C9.06203 15.0758 9.21411 17.262 9.21411 18.7835C9.21411 19.1804 9.58343 19.3459 9.84413 19.3459C10.1872 19.3459 10.4856 19.1791 10.4856 18.7835C10.4856 17.262 10.6377 15.0758 10.6377 13.5543C10.6377 13.0592 10.2901 12.778 9.84528 12.778L9.84413 12.774ZM9.8327 22.1912C9.99871 22.1939 10.1616 22.1384 10.3008 22.0319C10.4399 21.9253 10.549 21.7724 10.6141 21.5927C10.6792 21.413 10.6974 21.2146 10.6664 21.0227C10.6354 20.8308 10.5566 20.6541 10.44 20.515C10.3234 20.3759 10.1743 20.2808 10.0117 20.2417C9.84901 20.2026 9.68014 20.2213 9.52653 20.2954C9.37292 20.3696 9.24152 20.4958 9.14904 20.658C9.05655 20.8202 9.00716 21.0111 9.00715 21.2065C9.00825 21.466 9.09514 21.7149 9.24943 21.9005C9.40372 22.086 9.6133 22.1937 9.83384 22.2007L9.8327 22.1912Z" fill="#E75524"/>
</svg>
