<svg width="21" height="27" viewBox="0 0 21 27" fill="none" xmlns="http://www.w3.org/2000/svg">
<line x1="2.94394" y1="1.36916" x2="17.243" y2="1.36916" stroke="#F17D65" stroke-width="1.26168"/>
<path d="M16.8561 11.7364L12.0112 8.34667C10.6907 7.42143 8.66355 7.4719 7.39345 8.45601L3.17944 11.7448C2.33831 12.4009 1.67383 13.7467 1.67383 14.8065V20.6102C1.67383 22.7551 3.41495 24.5046 5.55981 24.5046H14.6271C16.772 24.5046 18.5131 22.7635 18.5131 20.6186V14.9158C18.5131 13.7803 17.7813 12.3841 16.8561 11.7364ZM10.7243 21.1401C10.7243 21.485 10.4383 21.771 10.0935 21.771C9.74859 21.771 9.46261 21.485 9.46261 21.1401V18.6168C9.46261 18.2719 9.74859 17.9859 10.0935 17.9859C10.4383 17.9859 10.7243 18.2719 10.7243 18.6168V21.1401Z" fill="#E75524"/>
</svg>
