<svg width="107" height="108" viewBox="0 0 107 108" fill="none" xmlns="http://www.w3.org/2000/svg">
<rect x="0.00488281" y="0.569824" width="107" height="107" rx="53.5" fill="#F04C4D" fill-opacity="0.2"/>
<rect x="11.0049" y="11.5698" width="85" height="85" rx="42.5" fill="#F04C4D" fill-opacity="0.4"/>
<path fill-rule="evenodd" clip-rule="evenodd" d="M63.3782 50.5238C64.1812 49.7654 64.2173 48.4996 63.4589 47.6966C62.7004 46.8935 61.4346 46.8574 60.6316 47.6158L50.3583 57.3188L47.3782 54.5041C46.5751 53.7457 45.3093 53.7818 44.5509 54.5848C43.7925 55.3879 43.8286 56.6537 44.6316 57.4121L48.985 61.5238C49.7558 62.2518 50.9608 62.2518 51.7316 61.5238L63.3782 50.5238Z" fill="white"/>
<rect x="23.5049" y="24.0698" width="60" height="60" rx="30" fill="#F04C4D" fill-opacity="0.8"/>
<path d="M72.0195 54.949C71.7939 58.9714 70.1846 62.6296 67.6592 65.4548L66.2783 66.8357C63.4531 69.3601 59.7949 70.9705 55.7725 71.196H53.8193C49.7959 70.9705 46.1377 69.3601 43.3125 66.8357L41.9316 65.4548C40.8328 64.2265 39.9153 62.8473 39.207 61.3591C38.2503 59.349 37.6947 57.1717 37.5713 54.949V52.9958C37.6947 50.7731 38.2503 48.5958 39.207 46.5857C39.9153 45.0975 40.8328 43.7183 41.9316 42.49L43.3125 41.1091C46.1377 38.5847 49.7959 36.9744 53.8193 36.7488H55.7725C59.7949 36.9744 63.4531 38.5847 66.2783 41.1091L67.6592 42.49C70.1846 45.3152 71.7939 48.9734 72.0195 52.9958V54.949Z" fill="#F04C4D"/>
<path d="M68.4629 40.4939C68.4014 40.4314 68.3398 40.3699 68.2773 40.3083C68.3115 40.3337 68.3437 40.3621 68.375 40.3933C68.4072 40.4255 68.4365 40.4587 68.4629 40.4939ZM68.2744 67.6394C68.3379 67.5769 68.4004 67.5144 68.4629 67.4509C68.4365 67.4861 68.4072 67.5193 68.375 67.5515C68.3428 67.5837 68.3096 67.613 68.2744 67.6394Z" fill="#212121"/>
<path d="M62.8008 60.5964C63.1826 60.9783 63.1826 61.5964 62.8008 61.9773C62.6104 62.1687 62.3604 62.2634 62.1104 62.2634C61.8604 62.2634 61.6103 62.1687 61.4199 61.9773L54.1055 54.6628C54.0147 54.5723 53.9426 54.4646 53.8935 54.3462C53.8444 54.2277 53.8192 54.1007 53.8193 53.9724V47.5369C53.8193 46.9978 54.2559 46.5603 54.7959 46.5603C55.335 46.5603 55.7725 46.9978 55.7725 47.5369V53.5681L62.8008 60.5964Z" fill="#D7E7F7"/>
<path d="M41.127 67.449C41.1904 67.5144 41.2549 67.5789 41.3213 67.6433C41.2842 67.616 41.249 67.5847 41.2158 67.5515C41.1836 67.5193 41.1533 67.4851 41.127 67.449ZM41.3184 40.3054C41.2539 40.3679 41.1895 40.4314 41.127 40.4958C41.1533 40.4597 41.1836 40.4255 41.2158 40.3933C41.248 40.3611 41.2822 40.3308 41.3184 40.3054Z" fill="#212121"/>
<path d="M30.8359 45.1833H37.7236C37.3965 45.8152 37.1035 46.4666 36.8477 47.1365H30.8359C30.2969 47.1365 29.8594 46.699 29.8594 46.1599C29.8594 45.6208 30.2969 45.1833 30.8359 45.1833ZM37.7236 62.7615H30.8359C30.2969 62.7615 29.8594 62.324 29.8594 61.7849C29.8594 61.2458 30.2969 60.8083 30.8359 60.8083H36.8477C37.1035 61.4783 37.3965 62.1296 37.7236 62.7615ZM35.4258 39.324C35.9648 39.324 36.4023 39.7615 36.4023 40.3005C36.4023 40.8396 35.9648 41.2771 35.4258 41.2771H24.9766C24.4375 41.2771 24 40.8396 24 40.3005C24 39.7615 24.4375 39.324 24.9766 39.324H35.4258ZM35.4258 66.6677C35.9648 66.6677 36.4023 67.1052 36.4023 67.6443C36.4023 68.1833 35.9648 68.6208 35.4258 68.6208H24.9766C24.4375 68.6208 24 68.1833 24 67.6443C24 67.1052 24.4375 66.6677 24.9766 66.6677H35.4258Z" fill="#D34142"/>
<path d="M68.4629 40.4939C68.4014 40.4314 68.3398 40.3699 68.2773 40.3084C64.8076 36.8845 60.0439 34.7683 54.7959 34.7683C49.5488 34.7683 44.7871 36.8826 41.3184 40.3054C41.2539 40.3679 41.1895 40.4314 41.127 40.4958C39.7627 41.8779 38.6153 43.4582 37.7236 45.1833C37.3965 45.8152 37.1035 46.4666 36.8477 47.1365C36.0361 49.2615 35.5908 51.5662 35.5908 53.9724C35.5908 56.3787 36.0361 58.6833 36.8477 60.8083C37.1035 61.4783 37.3965 62.1296 37.7236 62.7615C38.6153 64.4866 39.7627 66.067 41.127 67.449C41.1904 67.5144 41.2549 67.5789 41.3213 67.6433C44.7891 71.0632 49.5508 73.1765 54.7959 73.1765C60.043 73.1765 64.8047 71.0613 68.2744 67.6394C68.3379 67.5769 68.4004 67.5144 68.4629 67.4509C71.8848 63.9812 74 59.2195 74 53.9724C74 48.7253 71.8848 43.9636 68.4629 40.4939ZM67.6592 65.4548L65.9072 63.7029C65.8165 63.6121 65.7088 63.5401 65.5903 63.4909C65.4717 63.4418 65.3446 63.4165 65.2163 63.4165C65.088 63.4165 64.9609 63.4418 64.8423 63.4909C64.7238 63.5401 64.6161 63.6121 64.5254 63.7029C64.1445 64.0837 64.1445 64.7019 64.5254 65.0837L66.2783 66.8357C63.4531 69.3601 59.7949 70.9705 55.7725 71.196V68.7097C55.7725 68.1697 55.335 67.7332 54.7959 67.7332C54.2559 67.7332 53.8193 68.1697 53.8193 68.7097V71.196C49.7959 70.9705 46.1377 69.3601 43.3125 66.8357L45.0654 65.0837C45.4473 64.7019 45.4473 64.0837 45.0654 63.7029C44.6836 63.321 44.0654 63.321 43.6846 63.7029L41.9316 65.4548C40.8328 64.2265 39.9153 62.8473 39.207 61.3591C38.2503 59.349 37.6947 57.1717 37.5713 54.949H40.0586C40.5977 54.949 41.0352 54.5115 41.0352 53.9724C41.0352 53.4333 40.5977 52.9958 40.0586 52.9958H37.5713C37.6947 50.7731 38.2503 48.5958 39.207 46.5857C39.9153 45.0975 40.8328 43.7183 41.9316 42.49L43.6846 44.2419C43.875 44.4333 44.125 44.5281 44.375 44.5281C44.625 44.5281 44.875 44.4333 45.0654 44.2419C45.4473 43.8611 45.4473 43.2429 45.0654 42.8611L43.3125 41.1091C46.1377 38.5847 49.7959 36.9744 53.8193 36.7488V39.2351C53.8193 39.7751 54.2559 40.2117 54.7959 40.2117C55.335 40.2117 55.7725 39.7751 55.7725 39.2351V36.7488C59.7949 36.9744 63.4531 38.5847 66.2783 41.1091L64.5254 42.8611C64.1445 43.2429 64.1445 43.8611 64.5254 44.2419C64.6159 44.3328 64.7236 44.4048 64.842 44.4539C64.9605 44.503 65.0876 44.5282 65.2158 44.5281C65.4658 44.5281 65.7158 44.4333 65.9072 44.2419L67.6592 42.49C70.1846 45.3152 71.7939 48.9734 72.0195 52.9958H69.5322C68.9932 52.9958 68.5557 53.4333 68.5557 53.9724C68.5557 54.5115 68.9932 54.949 69.5322 54.949H72.0195C71.7939 58.9714 70.1846 62.6296 67.6592 65.4548Z" fill="#D7E7F7"/>
<path d="M32.1445 52.9958C32.6836 52.9958 33.1211 53.4333 33.1211 53.9724C33.1211 54.5115 32.6836 54.949 32.1445 54.949H26.6758C26.1367 54.949 25.6992 54.5115 25.6992 53.9724C25.6992 53.4333 26.1367 52.9958 26.6758 52.9958H32.1445Z" fill="#D34142"/>
</svg>
