<svg width="21" height="21" viewBox="0 0 21 21" fill="none" xmlns="http://www.w3.org/2000/svg">
<path d="M17.2019 6.16656L12.357 2.77684C11.0365 1.85161 9.00937 1.90208 7.73928 2.88619L3.52526 6.17497C2.68414 6.83105 2.01965 8.17684 2.01965 9.23666V15.0404C2.01965 17.1853 3.76077 18.9348 5.90563 18.9348H14.9729C17.1178 18.9348 18.8589 17.1937 18.8589 15.0488V9.346C18.8589 8.21049 18.1271 6.81423 17.2019 6.16656ZM11.0701 15.5703C11.0701 15.9152 10.7841 16.2011 10.4393 16.2011C10.0944 16.2011 9.80844 15.9152 9.80844 15.5703V13.0469C9.80844 12.7021 10.0944 12.4161 10.4393 12.4161C10.7841 12.4161 11.0701 12.7021 11.0701 13.0469V15.5703Z" fill="#A4A4A4"/>
</svg>
