<svg width="101" height="51" viewBox="0 0 101 51" fill="none" xmlns="http://www.w3.org/2000/svg">
<path fill-rule="evenodd" clip-rule="evenodd" d="M4.96695 11.2026C5.84946 11.2026 6.71215 10.9031 7.44593 10.3419C8.17972 9.78077 8.75164 8.98315 9.08936 8.04996C9.42708 7.11676 9.51545 6.0899 9.34328 5.09922C9.17111 4.10854 8.74614 3.19855 8.12211 2.48431C7.49808 1.77007 6.70301 1.28367 5.83745 1.08661C4.97189 0.889555 4.07473 0.990692 3.2594 1.37724C2.44406 1.76378 1.74717 2.41837 1.25688 3.25822C0.766578 4.09808 0.504883 5.08548 0.504883 6.09556C0.504883 7.45004 0.974988 8.74905 1.81179 9.70681C2.64859 10.6646 3.78353 11.2026 4.96695 11.2026Z" fill="#E75524"/>
<path fill-rule="evenodd" clip-rule="evenodd" d="M46.772 1.00894H36.2995C32.6645 0.986341 29.0993 2.15219 26.0234 4.36939C22.8868 6.59916 20.29 9.6952 18.4714 13.3732C16.5838 17.1322 15.6065 21.3994 15.6402 25.7349C15.6123 30.0968 16.6086 34.3873 18.5249 38.1578C20.3679 41.8712 23.001 44.9913 26.1796 47.228C29.2083 49.4186 32.7168 50.5836 36.2995 50.5885H46.9059C46.9862 50.5885 47.062 50.5885 47.129 50.5885C48.5226 50.4818 49.8287 49.7729 50.7828 48.6054C51.737 47.4379 52.2678 45.899 52.2678 44.3004C52.2678 42.7017 51.737 41.1628 50.7828 39.9953C49.8287 38.8278 48.5226 38.119 47.129 38.0123C47.0509 38.0123 46.9728 37.9995 46.9059 37.9995H36.2995C34.4582 37.9917 32.6508 37.4327 31.0566 36.378C29.3882 35.3024 27.9822 33.7651 26.9671 31.9068C25.9278 30.0654 25.3804 27.9169 25.392 25.7247C25.3748 23.5483 25.923 21.4152 26.9671 19.5962C27.9991 17.7817 29.403 16.2835 31.0566 15.2322C32.6508 14.1779 34.4584 13.6198 36.2995 13.6132H47.0085C47.1583 13.6127 47.3077 13.5956 47.4547 13.5621C48.7764 13.3714 49.9928 12.6388 50.8786 11.5C51.7644 10.3611 52.2594 8.8934 52.2719 7.36876C52.2845 5.84412 51.8137 4.36597 50.9468 3.20829C50.0798 2.05061 48.8756 1.2919 47.5573 1.07277C47.3774 1.03069 47.1943 1.0093 47.0107 1.00894H46.772Z" fill="#E75524"/>
<path fill-rule="evenodd" clip-rule="evenodd" d="M84.5303 1.0089H95.2392C95.4228 1.00952 95.6059 1.0309 95.7859 1.07274C97.1043 1.2907 98.3089 2.04831 99.1766 3.20517C100.044 4.36202 100.516 5.83967 100.505 7.36426C100.493 8.88886 99.9993 10.357 99.1144 11.4966C98.2295 12.6363 97.0136 13.3701 95.6921 13.5621C95.5452 13.5954 95.3958 13.6125 95.2459 13.6132H84.537C82.6951 13.6197 80.8868 14.1778 79.2918 15.2321C77.6364 16.2885 76.2323 17.793 75.2023 19.614C74.163 21.4347 73.6194 23.5677 73.6406 25.7425V25.8625C73.6742 30.1991 72.6961 34.4673 70.8072 38.2268C68.9863 41.9071 66.3843 45.0028 63.2418 47.228C60.1655 49.4435 56.6002 50.6068 52.9656 50.5808H42.2567C42.073 50.5817 41.8898 50.5603 41.7101 50.5169C40.3968 50.2921 39.1987 49.5316 38.3366 48.3756C37.4745 47.2196 37.0064 45.7459 37.0187 44.2261C37.0309 42.7063 37.5226 41.2428 38.4031 40.1051C39.2837 38.9675 40.4938 38.2324 41.8105 38.0352C41.9575 38.0028 42.1069 37.9866 42.2567 37.9867H52.9656C54.8069 37.9789 56.6144 37.4199 58.2086 36.3652C59.8635 35.3092 61.2675 33.8057 62.2981 31.9859C63.3374 30.1652 63.881 28.0322 63.8598 25.8574V25.7374C63.8269 21.4017 64.805 17.1345 66.6932 13.3757C68.5109 9.69783 71.107 6.60176 74.243 4.37192C77.3221 2.15187 80.8913 0.985063 84.5303 1.0089Z" fill="#E75524"/>
</svg>
