<svg width="39" height="37" viewBox="0 0 39 37" fill="none" xmlns="http://www.w3.org/2000/svg">
<g clip-path="url(#clip0_254_13855)">
<path d="M10.5091 3H11.8237V32.9786H10.5091V3ZM7.83713 3H8.4943V32.9786H7.83713V3ZM15.174 3H15.8314V32.9786H15.174V3ZM13.838 3H14.4955V32.9786H13.838V3ZM2.49349 3H3.17205V32.9786H2.49349V3ZM4.5077 3H5.16509V32.9786H4.5077V3ZM0.5 3H1.83595V33H0.5V3ZM16.5101 3H17.1675V32.9786H16.5101V3ZM29.8271 3H31.163V32.9786H29.8271V3ZM33.1776 3H35.1709V32.9786H33.1776V3ZM35.8282 3H36.5066V32.9786H35.8282V3ZM37.1641 3H38.5V33H37.1641V3ZM25.162 3H26.4979V32.9786H25.162V3ZM27.8339 3H29.1698V32.9786H27.8339V3ZM22.4902 3H23.826V32.9786H22.4902V3ZM19.1606 3H20.4967V32.9786H19.1606V3Z" fill="black"/>
</g>
<defs>
<clipPath id="clip0_254_13855">
<rect width="37.93" height="36.76" fill="white" transform="translate(0.456909)"/>
</clipPath>
</defs>
</svg>
