<svg width="13" height="12" viewBox="0 0 13 12" fill="none" xmlns="http://www.w3.org/2000/svg">
<g clip-path="url(#clip0_254_13790)">
<path d="M2.55432 4.87887V9.66567H10.2895V4.87887H2.55432ZM7.62192 7.60167L5.38272 9.14367C5.33232 9.17847 5.26392 9.17367 5.21832 9.13047C5.19619 9.11014 5.18181 9.08274 5.17765 9.05297C5.17349 9.02319 5.17981 8.9929 5.19552 8.96727L6.04872 7.53807L5.27232 7.26687C5.23541 7.25413 5.20277 7.23139 5.17803 7.20118C5.15328 7.17098 5.13742 7.13449 5.13219 7.0958C5.12696 7.0571 5.13259 7.01771 5.14843 6.98203C5.16427 6.94634 5.18972 6.91575 5.22192 6.89367L7.46112 5.35167C7.48588 5.33442 7.51581 5.32622 7.5459 5.32844C7.57599 5.33065 7.6044 5.34316 7.62636 5.36385C7.64832 5.38454 7.66249 5.41216 7.66649 5.44206C7.67049 5.47197 7.66407 5.50234 7.64832 5.52807L6.79512 6.95727L7.57152 7.22847C7.60843 7.24122 7.64108 7.26396 7.66582 7.29417C7.69056 7.32437 7.70643 7.36086 7.71166 7.39955C7.71688 7.43825 7.71126 7.47763 7.69542 7.51332C7.67957 7.54901 7.65413 7.5796 7.62192 7.60167ZM11.18 1.89567H9.85824V1.21767C9.85826 1.17046 9.84897 1.1237 9.83091 1.08007C9.81285 1.03645 9.78637 0.996808 9.75298 0.96342C9.71959 0.930032 9.67995 0.903551 9.63632 0.885489C9.5927 0.867427 9.54594 0.858139 9.49872 0.858154H7.98096C7.93376 0.858154 7.88701 0.867454 7.8434 0.885523C7.79979 0.903593 7.76016 0.930076 7.72679 0.963463C7.69341 0.996849 7.66694 1.03648 7.64889 1.0801C7.63083 1.12372 7.62155 1.17047 7.62156 1.21767V1.89567H5.22252V1.21767C5.22254 1.17047 5.21325 1.12372 5.1952 1.0801C5.17715 1.03648 5.15068 0.996849 5.1173 0.963463C5.08393 0.930076 5.0443 0.903593 5.00069 0.885523C4.95708 0.867454 4.91033 0.858154 4.86312 0.858154H3.34512C3.29792 0.858154 3.25117 0.867454 3.20756 0.885523C3.16395 0.903593 3.12432 0.930076 3.09095 0.963463C3.05757 0.996849 3.0311 1.03648 3.01305 1.0801C2.99499 1.12372 2.98571 1.17047 2.98572 1.21767V1.89567H1.66392C1.41412 1.89577 1.17457 1.99505 0.997935 2.17169C0.821296 2.34832 0.722019 2.58787 0.721924 2.83767V3.42459C0.721924 3.51991 0.759789 3.61133 0.82719 3.67873C0.89459 3.74613 0.986005 3.78399 1.08132 3.78399H11.7625C11.8578 3.78399 11.9492 3.74615 12.0166 3.67877C12.084 3.6114 12.1219 3.52001 12.1219 3.42471V2.83791C12.122 2.71421 12.0976 2.5917 12.0503 2.4774C12.003 2.3631 11.9336 2.25924 11.8462 2.17176C11.7587 2.08428 11.6548 2.01489 11.5406 1.96756C11.4263 1.92023 11.3038 1.89588 11.18 1.89591V1.89567Z" fill="#E75524"/>
<path d="M12.1219 4.87891V10.3197C12.1219 10.7733 11.7523 11.1417 11.2987 11.1417H1.54512C1.09152 11.1417 0.721924 10.7733 0.721924 10.3197V4.87891H1.62672V10.2369H11.2171V4.87891H12.1219Z" fill="#E75524"/>
</g>
<defs>
<clipPath id="clip0_254_13790">
<rect width="12" height="12" fill="white" transform="translate(0.421875)"/>
</clipPath>
</defs>
</svg>
