<svg width="16" height="19" viewBox="0 0 16 19" fill="none" xmlns="http://www.w3.org/2000/svg">
<path d="M10.0636 16.6615C10.0636 15.3698 9.01487 14.3228 7.72108 14.3228C6.42729 14.3228 5.37854 15.3698 5.37854 16.6614C5.37854 17.9531 6.42733 19.0002 7.72112 19.0002C9.01491 19.0002 10.0636 17.9531 10.0636 16.6615Z" fill="#F7C92B"/>
<path d="M7.72108 14.3228C7.48428 14.3228 7.25569 14.3581 7.04022 14.4235C8.00186 14.7146 8.70194 15.6062 8.70194 16.6615C8.70194 17.7166 8.00186 18.6083 7.04022 18.8995C7.26098 18.9664 7.49041 19.0003 7.72108 19.0002C9.01487 19.0002 10.0636 17.9531 10.0636 16.6615C10.0636 15.3698 9.01487 14.3228 7.72108 14.3228Z" fill="#F2B51D"/>
<path d="M7.99483 3.01177C7.24241 3.16263 6.51014 2.67623 6.35893 1.92502C6.20772 1.17396 6.6951 0.44279 7.44733 0.291852C8.19959 0.140954 8.93202 0.627399 9.08327 1.37857C9.23428 2.12963 8.74709 2.86084 7.99483 3.01177Z" fill="#F7C92B"/>
<path d="M9.08324 1.37857C8.93207 0.627399 8.19965 0.140954 7.44734 0.291852C7.3773 0.305915 7.30972 0.325133 7.24457 0.34861C7.68371 0.509157 8.03144 0.887282 8.13035 1.37861C8.2675 2.05974 7.87933 2.72459 7.24472 2.95498C7.48474 3.04273 7.74435 3.06237 7.99484 3.01173C8.74711 2.86084 9.23429 2.12959 9.08324 1.37857Z" fill="#F2B51D"/>
<path d="M13.5231 16.2701H1.91914C0.880742 16.2701 0.0390625 15.4297 0.0390625 14.3931C0.0391288 14.1097 0.102721 13.8299 0.225164 13.5742C0.347606 13.3186 0.525786 13.0937 0.746602 12.916L1.11937 12.6157C1.98164 11.9214 2.48305 10.8748 2.48305 9.76881V7.79635C2.48305 4.88604 4.84606 2.52686 7.76109 2.52686C10.6759 2.52686 13.0391 4.88604 13.0391 7.79635V9.80533C13.0392 10.3415 13.1573 10.8711 13.385 11.3566C13.6126 11.8421 13.9443 12.2715 14.3565 12.6144L14.7195 12.9166C14.9334 13.0945 15.1055 13.3174 15.2237 13.5693C15.3418 13.8212 15.4031 14.096 15.4031 14.3742V14.3931C15.4031 15.4297 14.5614 16.27 13.5231 16.27V16.2701Z" fill="#F7E249"/>
<path d="M14.7195 12.9165L14.3565 12.6143C13.5218 11.9193 13.0391 10.8903 13.0391 9.80505V7.79607C13.0391 4.88591 10.676 2.52661 7.7611 2.52661C7.2578 2.52629 6.75704 2.59788 6.27399 2.73919C8.46481 3.38021 10.0648 5.40153 10.0648 7.7961V9.80509C10.0648 10.8902 10.5475 11.9193 11.3823 12.6143L11.7455 12.9165C11.9593 13.0945 12.1314 13.3173 12.2496 13.5692C12.3677 13.8211 12.429 14.0959 12.4291 14.3742V14.3931C12.4291 15.4296 11.5874 16.2699 10.549 16.2699H13.5232C14.5614 16.2699 15.4031 15.4296 15.4031 14.3931V14.3742C15.4031 14.0959 15.3418 13.8211 15.2237 13.5692C15.1055 13.3173 14.9334 13.0944 14.7195 12.9165Z" fill="#F7C92B"/>
<path d="M12.6802 5.63502C12.5055 5.63502 12.3639 5.49369 12.3639 5.31932V2.27396L12.2459 2.38154C12.1168 2.499 11.9168 2.48986 11.7992 2.36092C11.7712 2.3303 11.7495 2.29447 11.7354 2.25547C11.7213 2.21647 11.715 2.17507 11.7169 2.13364C11.7189 2.09221 11.7289 2.05156 11.7466 2.01403C11.7642 1.9765 11.7891 1.94281 11.8198 1.9149L12.467 1.32561C12.5124 1.28435 12.5687 1.25715 12.6292 1.24729C12.6898 1.23743 12.7518 1.24534 12.8079 1.27006C12.864 1.29473 12.9116 1.33518 12.9451 1.38647C12.9786 1.43777 12.9964 1.49768 12.9964 1.55893V5.31932C12.9964 5.49369 12.8548 5.63502 12.6802 5.63502Z" fill="#E3FAFF"/>
</svg>
