<svg width="15" height="15" viewBox="0 0 15 15" fill="none" xmlns="http://www.w3.org/2000/svg">
<path d="M12.959 1.68604H11.7871V1.21729C11.7871 0.968645 11.6883 0.730188 11.5125 0.554373C11.3367 0.378557 11.0982 0.279785 10.8496 0.279785C10.601 0.279785 10.3625 0.378557 10.1867 0.554373C10.0109 0.730188 9.91211 0.968645 9.91211 1.21729V1.68604H8.03711V1.21729C8.03711 0.968645 7.93834 0.730188 7.76252 0.554373C7.58671 0.378557 7.34825 0.279785 7.09961 0.279785C6.85097 0.279785 6.61251 0.378557 6.4367 0.554373C6.26088 0.730188 6.16211 0.968645 6.16211 1.21729V1.68604H4.28711V1.21729C4.28711 0.968645 4.18834 0.730188 4.01252 0.554373C3.83671 0.378557 3.59825 0.279785 3.34961 0.279785C3.10097 0.279785 2.86251 0.378557 2.6867 0.554373C2.51088 0.730188 2.41211 0.968645 2.41211 1.21729V1.68604H1.24023C0.929434 1.68604 0.631363 1.8095 0.411594 2.02927C0.191824 2.24904 0.0683594 2.54711 0.0683594 2.85791V12.2329C0.0683594 12.5437 0.191824 12.8418 0.411594 13.0616C0.631363 13.2813 0.929434 13.4048 1.24023 13.4048H7.80273C7.86489 13.4048 7.92451 13.3801 7.96846 13.3361C8.01242 13.2922 8.03711 13.2326 8.03711 13.1704C8.03711 13.1082 8.01242 13.0486 7.96846 13.0047C7.92451 12.9607 7.86489 12.936 7.80273 12.936H1.24023C1.05393 12.9355 0.875406 12.8612 0.743665 12.7295C0.611924 12.5977 0.537666 12.4192 0.537109 12.2329V4.96729H13.6621V8.95166C13.6621 9.01382 13.6868 9.07343 13.7308 9.11739C13.7747 9.16134 13.8343 9.18604 13.8965 9.18604C13.9586 9.18604 14.0183 9.16134 14.0622 9.11739C14.1062 9.07343 14.1309 9.01382 14.1309 8.95166V2.85791C14.1309 2.54711 14.0074 2.24904 13.7876 2.02927C13.5679 1.8095 13.2698 1.68604 12.959 1.68604ZM10.3809 1.21729C10.3809 1.09296 10.4302 0.973737 10.5182 0.885829C10.6061 0.797921 10.7253 0.748535 10.8496 0.748535C10.9739 0.748535 11.0932 0.797921 11.1811 0.885829C11.269 0.973737 11.3184 1.09296 11.3184 1.21729V2.62354C11.3184 2.74786 11.269 2.86708 11.1811 2.95499C11.0932 3.0429 10.9739 3.09229 10.8496 3.09229C10.7253 3.09229 10.6061 3.0429 10.5182 2.95499C10.4302 2.86708 10.3809 2.74786 10.3809 2.62354V1.21729ZM6.63086 1.21729C6.63086 1.09296 6.68025 0.973737 6.76815 0.885829C6.85606 0.797921 6.97529 0.748535 7.09961 0.748535C7.22393 0.748535 7.34316 0.797921 7.43107 0.885829C7.51897 0.973737 7.56836 1.09296 7.56836 1.21729V2.62354C7.56836 2.74786 7.51897 2.86708 7.43107 2.95499C7.34316 3.0429 7.22393 3.09229 7.09961 3.09229C6.97529 3.09229 6.85606 3.0429 6.76815 2.95499C6.68025 2.86708 6.63086 2.74786 6.63086 2.62354V1.21729ZM2.88086 1.21729C2.88086 1.09296 2.93025 0.973737 3.01815 0.885829C3.10606 0.797921 3.22529 0.748535 3.34961 0.748535C3.47393 0.748535 3.59316 0.797921 3.68107 0.885829C3.76897 0.973737 3.81836 1.09296 3.81836 1.21729V2.62354C3.81836 2.74786 3.76897 2.86708 3.68107 2.95499C3.59316 3.0429 3.47393 3.09229 3.34961 3.09229C3.22529 3.09229 3.10606 3.0429 3.01815 2.95499C2.93025 2.86708 2.88086 2.74786 2.88086 2.62354V1.21729ZM13.6621 4.49854H0.537109V2.85791C0.537666 2.6716 0.611924 2.49308 0.743665 2.36134C0.875406 2.2296 1.05393 2.15534 1.24023 2.15479H2.41211V2.62354C2.41211 2.87218 2.51088 3.11063 2.6867 3.28645C2.86251 3.46226 3.10097 3.56104 3.34961 3.56104C3.59825 3.56104 3.83671 3.46226 4.01252 3.28645C4.18834 3.11063 4.28711 2.87218 4.28711 2.62354V2.15479H6.16211V2.62354C6.16211 2.87218 6.26088 3.11063 6.4367 3.28645C6.61251 3.46226 6.85097 3.56104 7.09961 3.56104C7.34825 3.56104 7.58671 3.46226 7.76252 3.28645C7.93834 3.11063 8.03711 2.87218 8.03711 2.62354V2.15479H9.91211V2.62354C9.91211 2.87218 10.0109 3.11063 10.1867 3.28645C10.3625 3.46226 10.601 3.56104 10.8496 3.56104C11.0982 3.56104 11.3367 3.46226 11.5125 3.28645C11.6883 3.11063 11.7871 2.87218 11.7871 2.62354V2.15479H12.959C13.1453 2.15534 13.3238 2.2296 13.4556 2.36134C13.5873 2.49308 13.6616 2.6716 13.6621 2.85791V4.49854Z" fill="#E75524"/>
<path d="M6.63086 6.60791C6.63086 6.48359 6.58147 6.36436 6.49357 6.27645C6.40566 6.18855 6.28643 6.13916 6.16211 6.13916H5.22461C5.10029 6.13916 4.98106 6.18855 4.89315 6.27645C4.80525 6.36436 4.75586 6.48359 4.75586 6.60791V7.31104C4.75586 7.43536 4.80525 7.55458 4.89315 7.64249C4.98106 7.7304 5.10029 7.77979 5.22461 7.77979H6.16211C6.28643 7.77979 6.40566 7.7304 6.49357 7.64249C6.58147 7.55458 6.63086 7.43536 6.63086 7.31104V6.60791ZM5.22461 7.31104V6.60791H6.16211V7.31104H5.22461Z" fill="#E75524"/>
<path d="M3.81836 6.60791C3.81836 6.48359 3.76897 6.36436 3.68107 6.27645C3.59316 6.18855 3.47393 6.13916 3.34961 6.13916H2.41211C2.28779 6.13916 2.16856 6.18855 2.08065 6.27645C1.99275 6.36436 1.94336 6.48359 1.94336 6.60791V7.31104C1.94336 7.43536 1.99275 7.55458 2.08065 7.64249C2.16856 7.7304 2.28779 7.77979 2.41211 7.77979H3.34961C3.47393 7.77979 3.59316 7.7304 3.68107 7.64249C3.76897 7.55458 3.81836 7.43536 3.81836 7.31104V6.60791ZM2.41211 7.31104V6.60791H3.34961V7.31104H2.41211Z" fill="#E75524"/>
<path d="M11.7871 7.77979C11.9114 7.77979 12.0307 7.7304 12.1186 7.64249C12.2065 7.55458 12.2559 7.43536 12.2559 7.31104V6.60791C12.2559 6.48359 12.2065 6.36436 12.1186 6.27645C12.0307 6.18855 11.9114 6.13916 11.7871 6.13916H10.8496C10.7253 6.13916 10.6061 6.18855 10.5182 6.27645C10.4302 6.36436 10.3809 6.48359 10.3809 6.60791V7.31104C10.3809 7.43536 10.4302 7.55458 10.5182 7.64249C10.6061 7.7304 10.7253 7.77979 10.8496 7.77979H11.7871ZM10.8496 6.60791H11.7871V7.31104H10.8496V6.60791Z" fill="#E75524"/>
<path d="M6.63086 8.71729C6.63086 8.59296 6.58147 8.47374 6.49357 8.38583C6.40566 8.29792 6.28643 8.24854 6.16211 8.24854H5.22461C5.10029 8.24854 4.98106 8.29792 4.89315 8.38583C4.80525 8.47374 4.75586 8.59296 4.75586 8.71729V9.42041C4.75586 9.54473 4.80525 9.66396 4.89315 9.75187C4.98106 9.83977 5.10029 9.88916 5.22461 9.88916H6.16211C6.28643 9.88916 6.40566 9.83977 6.49357 9.75187C6.58147 9.66396 6.63086 9.54473 6.63086 9.42041V8.71729ZM5.22461 9.42041V8.71729H6.16211V9.42041H5.22461Z" fill="#E75524"/>
<path d="M3.81836 8.71729C3.81836 8.59296 3.76897 8.47374 3.68107 8.38583C3.59316 8.29792 3.47393 8.24854 3.34961 8.24854H2.41211C2.28779 8.24854 2.16856 8.29792 2.08065 8.38583C1.99275 8.47374 1.94336 8.59296 1.94336 8.71729V9.42041C1.94336 9.54473 1.99275 9.66396 2.08065 9.75187C2.16856 9.83977 2.28779 9.88916 2.41211 9.88916H3.34961C3.47393 9.88916 3.59316 9.83977 3.68107 9.75187C3.76897 9.66396 3.81836 9.54473 3.81836 9.42041V8.71729ZM2.41211 9.42041V8.71729H3.34961V9.42041H2.41211Z" fill="#E75524"/>
<path d="M6.16211 10.3579H5.22461C5.10029 10.3579 4.98106 10.4073 4.89315 10.4952C4.80525 10.5831 4.75586 10.7023 4.75586 10.8267V11.5298C4.75586 11.6541 4.80525 11.7733 4.89315 11.8612C4.98106 11.9491 5.10029 11.9985 5.22461 11.9985H6.16211C6.28643 11.9985 6.40566 11.9491 6.49357 11.8612C6.58147 11.7733 6.63086 11.6541 6.63086 11.5298V10.8267C6.63086 10.7023 6.58147 10.5831 6.49357 10.4952C6.40566 10.4073 6.28643 10.3579 6.16211 10.3579ZM5.22461 11.5298V10.8267H6.16211V11.5298H5.22461Z" fill="#E75524"/>
<path d="M8.03711 7.77979H8.97461C9.09893 7.77979 9.21816 7.7304 9.30607 7.64249C9.39397 7.55458 9.44336 7.43536 9.44336 7.31104V6.60791C9.44336 6.48359 9.39397 6.36436 9.30607 6.27645C9.21816 6.18855 9.09893 6.13916 8.97461 6.13916H8.03711C7.91279 6.13916 7.79356 6.18855 7.70565 6.27645C7.61775 6.36436 7.56836 6.48359 7.56836 6.60791V7.31104C7.56836 7.43536 7.61775 7.55458 7.70565 7.64249C7.79356 7.7304 7.91279 7.77979 8.03711 7.77979ZM8.03711 6.60791H8.97461V7.31104H8.03711V6.60791Z" fill="#E75524"/>
<path d="M7.56836 9.42041C7.56836 9.54473 7.61775 9.66396 7.70565 9.75187C7.79356 9.83977 7.91279 9.88916 8.03711 9.88916C8.09927 9.88916 8.15888 9.86447 8.20284 9.82051C8.24679 9.77656 8.27148 9.71695 8.27148 9.65479C8.27148 9.59263 8.24679 9.53301 8.20284 9.48906C8.15888 9.4451 8.09927 9.42041 8.03711 9.42041V8.71729H8.97461C9.03677 8.71729 9.09638 8.69259 9.14034 8.64864C9.18429 8.60468 9.20898 8.54507 9.20898 8.48291C9.20898 8.42075 9.18429 8.36114 9.14034 8.31718C9.09638 8.27323 9.03677 8.24854 8.97461 8.24854H8.03711C7.91279 8.24854 7.79356 8.29792 7.70565 8.38583C7.61775 8.47374 7.56836 8.59296 7.56836 8.71729V9.42041Z" fill="#E75524"/>
<path d="M3.34961 10.3579H2.41211C2.28779 10.3579 2.16856 10.4073 2.08065 10.4952C1.99275 10.5831 1.94336 10.7023 1.94336 10.8267V11.5298C1.94336 11.6541 1.99275 11.7733 2.08065 11.8612C2.16856 11.9491 2.28779 11.9985 2.41211 11.9985H3.34961C3.47393 11.9985 3.59316 11.9491 3.68107 11.8612C3.76897 11.7733 3.81836 11.6541 3.81836 11.5298V10.8267C3.81836 10.7023 3.76897 10.5831 3.68107 10.4952C3.59316 10.4073 3.47393 10.3579 3.34961 10.3579ZM2.41211 11.5298V10.8267H3.34961V11.5298H2.41211Z" fill="#E75524"/>
<path d="M11.084 8.24854C10.4814 8.24854 9.89229 8.42723 9.39123 8.76203C8.89018 9.09682 8.49965 9.57268 8.26904 10.1294C8.03843 10.6862 7.97809 11.2988 8.09566 11.8898C8.21322 12.4809 8.50341 13.0238 8.92952 13.4499C9.35563 13.876 9.89853 14.1662 10.4896 14.2837C11.0806 14.4013 11.6932 14.341 12.25 14.1104C12.8067 13.8797 13.2826 13.4892 13.6174 12.9882C13.9522 12.4871 14.1309 11.898 14.1309 11.2954C14.1299 10.4876 13.8086 9.71317 13.2374 9.14197C12.6662 8.57077 11.8918 8.24947 11.084 8.24854ZM11.084 13.8735C10.5741 13.8735 10.0756 13.7223 9.65166 13.439C9.22769 13.1558 8.89724 12.7531 8.70211 12.282C8.50698 11.8109 8.45592 11.2926 8.5554 10.7924C8.65488 10.2923 8.90042 9.83296 9.26098 9.4724C9.62153 9.11184 10.0809 8.8663 10.581 8.76682C11.0811 8.66735 11.5995 8.7184 12.0706 8.91353C12.5417 9.10867 12.9443 9.43911 13.2276 9.86308C13.5109 10.2871 13.6621 10.7855 13.6621 11.2954C13.6613 11.9789 13.3894 12.6342 12.9061 13.1175C12.4228 13.6008 11.7675 13.8727 11.084 13.8735Z" fill="#E75524"/>
<path d="M12.4382 10.3129L10.6152 12.1358L9.78672 11.3071C9.74252 11.2644 9.68332 11.2408 9.62187 11.2413C9.56041 11.2418 9.50163 11.2665 9.45817 11.3099C9.41472 11.3534 9.39007 11.4122 9.38954 11.4736C9.389 11.5351 9.41262 11.5943 9.45532 11.6385L10.4495 12.6329C10.4935 12.6769 10.5531 12.7016 10.6152 12.7016C10.6774 12.7016 10.737 12.6769 10.7809 12.6329L12.7696 10.6443C12.8123 10.6001 12.8359 10.5409 12.8354 10.4794C12.8349 10.418 12.8102 10.3592 12.7668 10.3157C12.7233 10.2723 12.6645 10.2476 12.6031 10.2471C12.5416 10.2465 12.4824 10.2702 12.4382 10.3129Z" fill="#E75524"/>
</svg>
