<svg width="19" height="19" viewBox="0 0 19 19" fill="none" xmlns="http://www.w3.org/2000/svg">
<path d="M6.12012 2.81494C6.12012 2.40073 5.78433 2.06494 5.37012 2.06494C4.9559 2.06494 4.62012 2.40073 4.62012 2.81494V3.56494C4.62012 3.97915 4.9559 4.31494 5.37012 4.31494C5.78433 4.31494 6.12012 3.97915 6.12012 3.56494V2.81494Z" fill="#A4A4A4"/>
<path d="M14.3701 2.81494C14.3701 2.40073 14.0343 2.06494 13.6201 2.06494C13.2059 2.06494 12.8701 2.40073 12.8701 2.81494V3.56494C12.8701 3.97915 13.2059 4.31494 13.6201 4.31494C14.0343 4.31494 14.3701 3.97915 14.3701 3.56494V2.81494Z" fill="#A4A4A4"/>
<path d="M1.99512 7.68994V16.3149C1.99512 16.7128 2.15315 17.0943 2.43446 17.3756C2.71576 17.6569 3.09729 17.8149 3.49512 17.8149H15.4951C15.8929 17.8149 16.2745 17.6569 16.5558 17.3756C16.8371 17.0943 16.9951 16.7128 16.9951 16.3149V7.68994H1.99512ZM6.49512 15.1899C6.49512 15.3889 6.4161 15.5796 6.27545 15.7203C6.13479 15.8609 5.94403 15.9399 5.74512 15.9399H4.99512C4.7962 15.9399 4.60544 15.8609 4.46479 15.7203C4.32414 15.5796 4.24512 15.3889 4.24512 15.1899V14.4399C4.24512 14.241 4.32414 14.0503 4.46479 13.9096C4.60544 13.769 4.7962 13.6899 4.99512 13.6899H5.74512C5.94403 13.6899 6.13479 13.769 6.27545 13.9096C6.4161 14.0503 6.49512 14.241 6.49512 14.4399V15.1899ZM6.49512 11.0649C6.49512 11.2639 6.4161 11.4546 6.27545 11.5953C6.13479 11.7359 5.94403 11.8149 5.74512 11.8149H4.99512C4.7962 11.8149 4.60544 11.7359 4.46479 11.5953C4.32414 11.4546 4.24512 11.2639 4.24512 11.0649V10.3149C4.24512 10.116 4.32414 9.92526 4.46479 9.78461C4.60544 9.64396 4.7962 9.56494 4.99512 9.56494H5.74512C5.94403 9.56494 6.13479 9.64396 6.27545 9.78461C6.4161 9.92526 6.49512 10.116 6.49512 10.3149V11.0649ZM10.6201 15.1899C10.6201 15.3889 10.5411 15.5796 10.4004 15.7203C10.2598 15.8609 10.069 15.9399 9.87012 15.9399H9.12012C8.92121 15.9399 8.73044 15.8609 8.58979 15.7203C8.44913 15.5796 8.37012 15.3889 8.37012 15.1899V14.4399C8.37012 14.241 8.44913 14.0503 8.58979 13.9096C8.73044 13.769 8.92121 13.6899 9.12012 13.6899H9.87012C10.069 13.6899 10.2598 13.769 10.4004 13.9096C10.5411 14.0503 10.6201 14.241 10.6201 14.4399V15.1899ZM10.6201 11.0649C10.6201 11.2639 10.5411 11.4546 10.4004 11.5953C10.2598 11.7359 10.069 11.8149 9.87012 11.8149H9.12012C8.92121 11.8149 8.73044 11.7359 8.58979 11.5953C8.44913 11.4546 8.37012 11.2639 8.37012 11.0649V10.3149C8.37012 10.116 8.44913 9.92526 8.58979 9.78461C8.73044 9.64396 8.92121 9.56494 9.12012 9.56494H9.87012C10.069 9.56494 10.2598 9.64396 10.4004 9.78461C10.5411 9.92526 10.6201 10.116 10.6201 10.3149V11.0649ZM14.7451 15.1899C14.7451 15.3889 14.6661 15.5796 14.5254 15.7203C14.3848 15.8609 14.194 15.9399 13.9951 15.9399H13.2451C13.0462 15.9399 12.8554 15.8609 12.7148 15.7203C12.5741 15.5796 12.4951 15.3889 12.4951 15.1899V14.4399C12.4951 14.241 12.5741 14.0503 12.7148 13.9096C12.8554 13.769 13.0462 13.6899 13.2451 13.6899H13.9951C14.194 13.6899 14.3848 13.769 14.5254 13.9096C14.6661 14.0503 14.7451 14.241 14.7451 14.4399V15.1899ZM14.7451 11.0649C14.7451 11.2639 14.6661 11.4546 14.5254 11.5953C14.3848 11.7359 14.194 11.8149 13.9951 11.8149H13.2451C13.0462 11.8149 12.8554 11.7359 12.7148 11.5953C12.5741 11.4546 12.4951 11.2639 12.4951 11.0649V10.3149C12.4951 10.116 12.5741 9.92526 12.7148 9.78461C12.8554 9.64396 13.0462 9.56494 13.2451 9.56494H13.9951C14.194 9.56494 14.3848 9.64396 14.5254 9.78461C14.6661 9.92526 14.7451 10.116 14.7451 10.3149V11.0649ZM16.9951 6.93994V4.68994C16.9951 4.29212 16.8371 3.91059 16.5558 3.62928C16.2745 3.34798 15.8929 3.18994 15.4951 3.18994H15.1201V3.56494C15.1201 4.39219 14.4474 5.06494 13.6201 5.06494C12.7929 5.06494 12.1201 4.39219 12.1201 3.56494V3.18994H6.87012V3.56494C6.87012 4.39219 6.19737 5.06494 5.37012 5.06494C4.54287 5.06494 3.87012 4.39219 3.87012 3.56494V3.18994H3.49512C3.09729 3.18994 2.71576 3.34798 2.43446 3.62928C2.15315 3.91059 1.99512 4.29212 1.99512 4.68994V6.93994H16.9951Z" fill="#A4A4A4"/>
</svg>
