<svg width="17" height="17" viewBox="0 0 17 17" fill="none" xmlns="http://www.w3.org/2000/svg">
<path d="M16.1707 4.38871C16.0719 2.74652 14.7007 1.45996 13.0491 1.45996H12.2451V0.834961C12.2451 0.669201 12.1792 0.510229 12.062 0.393019C11.9448 0.275809 11.7858 0.209961 11.6201 0.209961C11.4543 0.209961 11.2953 0.275809 11.1781 0.393019C11.0609 0.510229 10.9951 0.669201 10.9951 0.834961V1.45996H5.99506V0.834961C5.99506 0.669201 5.92921 0.510229 5.812 0.393019C5.69479 0.275809 5.53582 0.209961 5.37006 0.209961C5.2043 0.209961 5.04533 0.275809 4.92812 0.393019C4.81091 0.510229 4.74506 0.669201 4.74506 0.834961V1.45996H3.941C2.28912 1.45996 0.917874 2.74652 0.819437 4.38871C0.634124 7.47746 0.637562 10.6106 0.829749 13.7009C0.927249 15.2703 2.18444 16.5275 3.75381 16.625C5.32662 16.7228 6.91069 16.7715 8.49475 16.7715C10.0785 16.7715 11.6629 16.7228 13.2357 16.625C14.8051 16.5275 16.0622 15.2703 16.1597 13.7009C16.3522 10.6121 16.3557 7.47934 16.1707 4.38871ZM14.9126 13.6234C14.8836 14.0791 14.6895 14.5086 14.3666 14.8315C14.0437 15.1544 13.6142 15.3485 13.1585 15.3775C10.0641 15.5696 6.926 15.5696 3.83162 15.3775C3.37591 15.3485 2.94639 15.1544 2.62351 14.8315C2.30062 14.5086 2.10652 14.0791 2.07756 13.6234C1.93107 11.2385 1.89801 8.84799 1.9785 6.45996H15.0119C15.0907 8.84746 15.0604 11.2484 14.9126 13.6234ZM5.37006 3.95996C5.53582 3.95996 5.69479 3.89411 5.812 3.7769C5.92921 3.65969 5.99506 3.50072 5.99506 3.33496V2.70996H10.9951V3.33496C10.9951 3.50072 11.0609 3.65969 11.1781 3.7769C11.2953 3.89411 11.4543 3.95996 11.6201 3.95996C11.7858 3.95996 11.9448 3.89411 12.062 3.7769C12.1792 3.65969 12.2451 3.50072 12.2451 3.33496V2.70996H13.0491C14.0407 2.70996 14.8638 3.48027 14.9229 4.4634C14.9376 4.71152 14.9438 4.96121 14.956 5.20996H2.03412C2.04662 4.96121 2.05256 4.71152 2.06725 4.4634C2.12631 3.48027 2.94912 2.70996 3.941 2.70996H4.74506V3.33496C4.74506 3.50072 4.81091 3.65969 4.92812 3.7769C5.04533 3.89411 5.2043 3.95996 5.37006 3.95996Z" fill="#A4A4A4"/>
</svg>
