<svg width="15" height="16" viewBox="0 0 15 16" fill="none" xmlns="http://www.w3.org/2000/svg">
<path d="M2.25 7.27979H6.25C6.6635 7.27979 7 6.94329 7 6.52979V2.52979C7 2.11629 6.6635 1.77979 6.25 1.77979H2.25C1.8365 1.77979 1.5 2.11629 1.5 2.52979V6.52979C1.5 6.94329 1.8365 7.27979 2.25 7.27979ZM2 2.52979C2 2.39204 2.11225 2.27979 2.25 2.27979H6.25C6.38775 2.27979 6.5 2.39204 6.5 2.52979V6.52979C6.5 6.66754 6.38775 6.77979 6.25 6.77979H2.25C2.11225 6.77979 2 6.66754 2 6.52979V2.52979ZM12.75 1.77979H8.75C8.3365 1.77979 8 2.11629 8 2.52979V6.52979C8 6.94329 8.3365 7.27979 8.75 7.27979H12.75C13.1635 7.27979 13.5 6.94329 13.5 6.52979V2.52979C13.5 2.11629 13.1635 1.77979 12.75 1.77979ZM13 6.52979C13 6.66754 12.8878 6.77979 12.75 6.77979H8.75C8.61225 6.77979 8.5 6.66754 8.5 6.52979V2.52979C8.5 2.39204 8.61225 2.27979 8.75 2.27979H12.75C12.8878 2.27979 13 2.39204 13 2.52979V6.52979ZM2.25 13.7798H6.25C6.6635 13.7798 7 13.4433 7 13.0298V9.02979C7 8.61629 6.6635 8.27979 6.25 8.27979H2.25C1.8365 8.27979 1.5 8.61629 1.5 9.02979V13.0298C1.5 13.4433 1.8365 13.7798 2.25 13.7798ZM2 9.02979C2 8.89204 2.11225 8.77979 2.25 8.77979H6.25C6.38775 8.77979 6.5 8.89204 6.5 9.02979V13.0298C6.5 13.1675 6.38775 13.2798 6.25 13.2798H2.25C2.11225 13.2798 2 13.1675 2 13.0298V9.02979ZM12.75 8.27979H8.75C8.3365 8.27979 8 8.61629 8 9.02979V13.0298C8 13.4433 8.3365 13.7798 8.75 13.7798H12.75C13.1635 13.7798 13.5 13.4433 13.5 13.0298V9.02979C13.5 8.61629 13.1635 8.27979 12.75 8.27979ZM13 13.0298C13 13.1675 12.8878 13.2798 12.75 13.2798H8.75C8.61225 13.2798 8.5 13.1675 8.5 13.0298V9.02979C8.5 8.89204 8.61225 8.77979 8.75 8.77979H12.75C12.8878 8.77979 13 8.89204 13 9.02979V13.0298Z" fill="#E75524"/>
</svg>
