<svg width="24" height="24" viewBox="0 0 24 24" fill="none" xmlns="http://www.w3.org/2000/svg">
<g clip-path="url(#clip0_2347_967)">
<path d="M11.7516 13.6969C9.37501 13.6969 7.20001 12.4922 5.93907 10.4719C5.25939 9.38906 4.90314 8.13281 4.90314 6.84844C4.90314 5.01094 5.62032 3.28594 6.92345 1.99219C8.2172 0.707813 9.92814 0 11.7516 0H11.7891C13.6125 0.009375 15.3281 0.735938 16.6172 2.03906C17.9063 3.34687 18.6141 5.06719 18.6 6.89531C18.5906 8.16563 18.2344 9.40312 17.5641 10.4719C16.3031 12.4922 14.1328 13.6969 11.7516 13.6969ZM11.7516 1.32656C10.2797 1.32656 8.90158 1.89844 7.85626 2.93437C6.80626 3.97969 6.2297 5.36719 6.2297 6.84844C6.2297 7.88438 6.52032 8.89687 7.06407 9.76875C8.08126 11.3953 9.83439 12.3703 11.7516 12.3703C13.6688 12.3703 15.4219 11.4 16.4391 9.76875C16.9781 8.90625 17.2688 7.90781 17.2734 6.88594C17.2828 5.41875 16.7156 4.02656 15.675 2.97188C14.6344 1.91719 13.2516 1.33594 11.7844 1.32656H11.7516Z" fill="#E75524"/>
<path d="M23.2407 23.8076C23.0719 23.8076 22.8985 23.742 22.7719 23.6107L17.2454 18.0889C16.9875 17.8311 16.9875 17.4092 17.2454 17.1514C17.5032 16.8936 17.925 16.8936 18.1829 17.1514L23.7047 22.6732C23.9625 22.9311 23.9625 23.3529 23.7047 23.6107C23.5782 23.742 23.4094 23.8076 23.2407 23.8076Z" fill="#E75524"/>
<path d="M17.7188 23.8076C17.55 23.8076 17.3766 23.742 17.25 23.6107C16.9922 23.3529 16.9922 22.9311 17.25 22.6732L22.7719 17.1514C23.0297 16.8936 23.4516 16.8936 23.7094 17.1514C23.9672 17.4092 23.9672 17.8311 23.7094 18.0889L18.1875 23.6107C18.0563 23.742 17.8875 23.8076 17.7188 23.8076Z" fill="#E75524"/>
<path d="M11.7516 23.9996C7.83753 23.9996 4.09221 22.7949 0.918777 20.5168C0.253152 20.034 -0.0515354 19.1715 0.16409 18.3699C0.450027 17.3058 0.885965 16.284 1.45784 15.3371C3.22034 12.4074 6.77815 11.0855 10.1157 12.1168C10.6453 12.2808 11.1938 12.3652 11.7516 12.3652C12.3094 12.3652 12.8625 12.2808 13.3875 12.1168C14.6297 11.7324 15.9516 11.6668 17.2125 11.9293C18.4641 12.1871 19.6313 12.7636 20.5828 13.5933C20.7891 13.7715 20.8641 14.0527 20.775 14.3105C20.686 14.5683 20.4516 14.7418 20.1797 14.7558C17.1891 14.9105 14.85 17.3808 14.85 20.3761C14.85 21.2199 15.0328 22.0308 15.3891 22.7855C15.4782 22.973 15.4735 23.1933 15.3797 23.3761C15.286 23.559 15.1078 23.6902 14.9016 23.723C13.8657 23.9105 12.8063 23.9996 11.7516 23.9996ZM7.82815 13.1011C5.7094 13.1011 3.71253 14.1699 2.5969 16.0261C2.09065 16.8699 1.70628 17.7746 1.44846 18.7215C1.37346 18.9933 1.47659 19.2793 1.6969 19.4386C4.64065 21.5527 8.11409 22.673 11.7516 22.673C12.4547 22.673 13.1625 22.6308 13.861 22.5465C13.636 21.8527 13.5188 21.1308 13.5188 20.3855C13.5188 17.273 15.5625 14.6246 18.4032 13.7433C16.9969 13.059 15.3282 12.9136 13.7766 13.3965C13.1203 13.598 12.4407 13.7011 11.7469 13.7011C11.0532 13.7011 10.3735 13.598 9.71721 13.3965C9.09378 13.1949 8.45628 13.1011 7.82815 13.1011Z" fill="#E75524"/>
</g>
<defs>
<clipPath id="clip0_2347_967">
<rect width="24" height="24" fill="white"/>
</clipPath>
</defs>
</svg>
