<svg width="12" height="12" viewBox="0 0 12 12" fill="none" xmlns="http://www.w3.org/2000/svg">
<path d="M11.8218 5.5755L6.4218 0.1755C6.1878 -0.0585 5.80679 -0.0585 5.5758 0.1755L0.175805 5.5755C-0.0581948 5.8095 -0.0581948 6.1905 0.175805 6.4245L5.5758 11.8215V11.8245C5.8098 12.0585 6.19081 12.0585 6.42481 11.8245L11.8248 6.4245C12.0588 6.1875 12.0588 5.8095 11.8218 5.5755ZM7.19878 7.49849V5.9985H4.79879V7.79849H3.59878V5.39851C3.59851 5.31964 3.61384 5.24149 3.64389 5.16857C3.67395 5.09566 3.71813 5.0294 3.7739 4.97363C3.82967 4.91787 3.89592 4.87368 3.96884 4.84363C4.04176 4.81357 4.1199 4.79824 4.19877 4.79852H7.19878V3.2985L9.29879 5.39851L7.19878 7.49849Z" fill="white"/>
</svg>
