<svg width="9" height="8" viewBox="0 0 9 8" fill="none" xmlns="http://www.w3.org/2000/svg">
<path d="M7.50991 5.00706C7.39985 5.00706 7.31067 5.09624 7.31067 5.2063V6.97535C7.31027 7.30533 7.04293 7.57275 6.71294 7.57307H1.12243C0.792424 7.57275 0.525102 7.30533 0.524704 6.97535V1.78332C0.525102 1.45339 0.792444 1.18599 1.12243 1.18559H2.89149C3.00153 1.18559 3.09073 1.09639 3.09073 0.986351C3.09073 0.87637 3.00153 0.787109 2.89149 0.787109H1.12243C0.572482 0.787727 0.126838 1.23337 0.126221 1.78332V6.97543C0.126838 7.52535 0.572482 7.971 1.12243 7.97164H6.71294C7.26287 7.971 7.70853 7.52535 7.70915 6.97543V5.2063C7.70915 5.09624 7.61995 5.00706 7.50991 5.00706Z" fill="white"/>
<path d="M7.63016 0.274329C7.28002 -0.0758179 6.71232 -0.0758179 6.36219 0.274329L2.80756 3.82893C2.78323 3.85326 2.76562 3.88348 2.75644 3.91664L2.289 5.60422C2.27956 5.63819 2.27932 5.67407 2.28829 5.70817C2.29726 5.74227 2.31512 5.77338 2.34005 5.79832C2.36499 5.82326 2.39609 5.84114 2.43019 5.85012C2.46429 5.8591 2.50016 5.85886 2.53415 5.84944L4.22172 5.38192C4.25488 5.37274 4.2851 5.35513 4.30943 5.3308L7.86393 1.77613C8.21354 1.42572 8.21354 0.858525 7.86393 0.508139L7.63016 0.274329ZM3.24169 3.95844L6.15088 1.0492L7.0891 1.98743L4.17986 4.89667L3.24169 3.95844ZM3.05429 4.33451L3.80383 5.08416L2.76702 5.37142L3.05429 4.33451ZM7.58223 1.49438L7.37091 1.70566L6.4326 0.767352L6.644 0.556056C6.8385 0.361557 7.15386 0.361557 7.34834 0.556056L7.58223 0.789846C7.77641 0.984584 7.77641 1.29972 7.58223 1.49438Z" fill="white"/>
</svg>
