<svg width="21" height="16" viewBox="0 0 21 16" fill="none" xmlns="http://www.w3.org/2000/svg">
<path fill-rule="evenodd" clip-rule="evenodd" d="M14.25 0.508789C12.4447 0.508789 10.926 1.80329 10.5765 3.50879H0.75C0.551088 3.50879 0.360322 3.58781 0.21967 3.72846C0.0790176 3.86911 0 4.05988 0 4.25879C0 4.4577 0.0790176 4.64847 0.21967 4.78912C0.360322 4.92977 0.551088 5.00879 0.75 5.00879H10.5765C10.926 6.71504 12.444 8.00879 14.25 8.00879C16.056 8.00879 17.574 6.71504 17.9235 5.00879H20.25C20.4489 5.00879 20.6397 4.92977 20.7803 4.78912C20.921 4.64847 21 4.4577 21 4.25879C21 4.05988 20.921 3.86911 20.7803 3.72846C20.6397 3.58781 20.4489 3.50879 20.25 3.50879H17.9235C17.574 1.80329 16.056 0.508789 14.25 0.508789ZM14.25 2.00879C15.5017 2.00879 16.5 3.00704 16.5 4.25879C16.5 5.51054 15.5017 6.50879 14.25 6.50879C12.9983 6.50879 12 5.51054 12 4.25879C12 3.00704 12.9983 2.00879 14.25 2.00879ZM6.75 8.00879C4.94475 8.00879 3.426 9.30329 3.0765 11.0088H0.75C0.551088 11.0088 0.360322 11.0878 0.21967 11.2285C0.0790176 11.3691 0 11.5599 0 11.7588C0 11.9577 0.0790176 12.1485 0.21967 12.2891C0.360322 12.4298 0.551088 12.5088 0.75 12.5088H3.0765C3.426 14.215 4.944 15.5088 6.75 15.5088C8.556 15.5088 10.074 14.215 10.4235 12.5088H20.25C20.4489 12.5088 20.6397 12.4298 20.7803 12.2891C20.921 12.1485 21 11.9577 21 11.7588C21 11.5599 20.921 11.3691 20.7803 11.2285C20.6397 11.0878 20.4489 11.0088 20.25 11.0088H10.4235C10.074 9.30329 8.556 8.00879 6.75 8.00879ZM6.75 9.50879C8.00175 9.50879 9 10.507 9 11.7588C9 13.0105 8.00175 14.0088 6.75 14.0088C5.49825 14.0088 4.5 13.0105 4.5 11.7588C4.5 10.507 5.49825 9.50879 6.75 9.50879Z" fill="white"/>
</svg>
