<svg width="19" height="17" viewBox="0 0 19 17" fill="none" xmlns="http://www.w3.org/2000/svg">
<path d="M5.18258 13.4849C4.59533 13.4838 4.0232 13.2986 3.54667 12.9554C3.07014 12.6122 2.71321 12.1283 2.52608 11.5716L2.49983 11.4854C2.41583 11.2225 2.37208 10.9484 2.37008 10.6724V5.55886L0.550585 11.6324C0.439226 12.0645 0.501935 12.5231 0.725225 12.9096C0.948515 13.296 1.31455 13.5793 1.74458 13.6986L13.3418 16.8044C13.4866 16.8419 13.6313 16.8599 13.7738 16.8599C14.5208 16.8599 15.2033 16.3641 15.3946 15.6336L16.0703 13.4849H5.18258ZM7.24508 5.60986C8.07233 5.60986 8.74508 4.93711 8.74508 4.10986C8.74508 3.28261 8.07233 2.60986 7.24508 2.60986C6.41783 2.60986 5.74508 3.28261 5.74508 4.10986C5.74508 4.93711 6.41783 5.60986 7.24508 5.60986Z" fill="#A4A4A4"/>
<path d="M16.6201 0.359863H5.37012C4.87302 0.360459 4.39645 0.558194 4.04495 0.909696C3.69345 1.2612 3.49571 1.73777 3.49512 2.23486V10.4849C3.49512 11.5184 4.33662 12.3599 5.37012 12.3599H16.6201C17.6536 12.3599 18.4951 11.5184 18.4951 10.4849V2.23486C18.4951 1.20136 17.6536 0.359863 16.6201 0.359863ZM5.37012 1.85986H16.6201C16.7196 1.85986 16.815 1.89937 16.8853 1.9697C16.9556 2.04002 16.9951 2.13541 16.9951 2.23486V7.55911L14.6259 4.79461C14.5006 4.65072 14.3461 4.53515 14.1727 4.45562C13.9993 4.37609 13.8109 4.33441 13.6201 4.33336C13.4287 4.33435 13.2398 4.37723 13.0667 4.45899C12.8936 4.54074 12.7405 4.65939 12.6181 4.80661L9.83262 8.15011L8.92512 7.24486C8.67833 6.99847 8.34385 6.86007 7.99512 6.86007C7.64638 6.86007 7.3119 6.99847 7.06512 7.24486L4.99512 9.31411V2.23486C4.99512 2.13541 5.03463 2.04002 5.10495 1.9697C5.17528 1.89937 5.27066 1.85986 5.37012 1.85986Z" fill="#A4A4A4"/>
</svg>
