<svg width="15" height="18" viewBox="0 0 15 18" fill="none" xmlns="http://www.w3.org/2000/svg">
<path d="M14.2269 14.4878L7.49515 15.1909L0.763428 14.4878V0.731707C0.763428 0.327586 1.09105 0 1.49513 0H13.4951C13.8992 0 14.2268 0.327586 14.2268 0.731707V14.4878H14.2269Z" fill="#A4A4A4"/>
<path d="M13.4952 18H1.49513C1.09101 18 0.763428 17.6724 0.763428 17.2683V14.4878H14.2269V17.2683C14.2269 17.6724 13.8992 18 13.4952 18Z" fill="#C9C9C9"/>
<path d="M13.4952 0H12.3245C12.7286 0 13.0562 0.327586 13.0562 0.731707V14.8394L14.2269 14.4878V0.731707C14.2269 0.327586 13.8993 0 13.4952 0Z" fill="#A4A4A4"/>
<path d="M13.0562 14.4878V17.2683C13.0562 17.6724 12.7286 18 12.3245 18H13.4952C13.8993 18 14.2269 17.6724 14.2269 17.2683V14.4878H13.0562Z" fill="#C9C9C9"/>
<path d="M10.6415 8.12197H4.34886C4.06599 8.12197 3.83667 7.89264 3.83667 7.60978V2.7805C3.83667 2.49763 4.06599 2.26831 4.34886 2.26831H10.6415C10.9244 2.26831 11.1537 2.49763 11.1537 2.7805V7.60978C11.1537 7.89268 10.9244 8.12197 10.6415 8.12197Z" fill="#C9C9C9"/>
<path d="M10.6415 2.26831H9.54395C9.82681 2.26831 10.0561 2.49763 10.0561 2.7805V7.60978C10.0561 7.89264 9.82681 8.12197 9.54395 8.12197H10.6415C10.9244 8.12197 11.1537 7.89264 11.1537 7.60978V2.7805C11.1537 2.49763 10.9244 2.26831 10.6415 2.26831Z" fill="#C9C9C9"/>
<path d="M10.422 9.5564H4.56836C4.42274 9.5564 4.30469 9.43838 4.30469 9.29272C4.30469 9.14707 4.42274 9.02905 4.56836 9.02905H10.422C10.5676 9.02905 10.6857 9.14707 10.6857 9.29272C10.6857 9.43838 10.5676 9.5564 10.422 9.5564Z" fill="#C9C9C9"/>
</svg>
