<svg width="19" height="19" viewBox="0 0 19 19" fill="none" xmlns="http://www.w3.org/2000/svg">
<g clip-path="url(#clip0_231_219)">
<path d="M9.49511 0.94043C5.90056 0.94043 2.9762 3.8648 2.9762 7.45931C2.9762 11.9202 8.80999 18.4691 9.05837 18.7457C9.29167 19.0055 9.69899 19.0051 9.93186 18.7457C10.1802 18.4691 16.014 11.9202 16.014 7.45931C16.014 3.8648 13.0896 0.94043 9.49511 0.94043ZM9.49511 10.7391C7.68661 10.7391 6.21532 9.26782 6.21532 7.45931C6.21532 5.6508 7.68664 4.17952 9.49511 4.17952C11.3036 4.17952 12.7749 5.65084 12.7749 7.45935C12.7749 9.26786 11.3036 10.7391 9.49511 10.7391Z" fill="#A4A4A4"/>
</g>
<defs>
<clipPath id="clip0_231_219">
<rect width="18" height="18" fill="white" transform="translate(0.495117 0.94043)"/>
</clipPath>
</defs>
</svg>
