<svg width="18" height="19" viewBox="0 0 18 19" fill="none" xmlns="http://www.w3.org/2000/svg">
<path d="M4.875 9.56847C4.67615 9.56827 4.4855 9.48919 4.34489 9.34858C4.20428 9.20797 4.1252 9.01732 4.125 8.81847V6.19347C4.125 4.90054 4.63861 3.66056 5.55285 2.74632C6.46709 1.83208 7.70707 1.31847 9 1.31847C10.2929 1.31847 11.5329 1.83208 12.4471 2.74632C13.3614 3.66056 13.875 4.90054 13.875 6.19347V8.81847C13.8748 9.01732 13.7957 9.20797 13.6551 9.34858C13.5145 9.48919 13.3239 9.56827 13.125 9.56847H4.875ZM12.375 8.06847V6.19347C12.375 5.29836 12.0194 4.43992 11.3865 3.80698C10.7536 3.17405 9.89511 2.81847 9 2.81847C8.10489 2.81847 7.24645 3.17405 6.61351 3.80698C5.98058 4.43992 5.625 5.29836 5.625 6.19347V8.06847H12.375Z" fill="#A4A4A4"/>
<path d="M13.5 7.50597H4.5C3.95317 7.50656 3.42891 7.72405 3.04225 8.11072C2.65559 8.49738 2.4381 9.02164 2.4375 9.56847V15.5685C2.4381 16.1153 2.65559 16.6396 3.04225 17.0262C3.42891 17.4129 3.95317 17.6304 4.5 17.631H13.5C14.0468 17.6304 14.5711 17.4129 14.9578 17.0262C15.3444 16.6396 15.5619 16.1153 15.5625 15.5685V9.56847C15.5619 9.02164 15.3444 8.49738 14.9578 8.11072C14.5711 7.72405 14.0468 7.50656 13.5 7.50597ZM9.5625 12.5685C9.5625 12.7177 9.50324 12.8607 9.39775 12.9662C9.29226 13.0717 9.14918 13.131 9 13.131C8.85082 13.131 8.70774 13.0717 8.60225 12.9662C8.49676 12.8607 8.4375 12.7177 8.4375 12.5685V11.8185C8.4375 11.6693 8.49676 11.5262 8.60225 11.4207C8.70774 11.3152 8.85082 11.256 9 11.256C9.14918 11.256 9.29226 11.3152 9.39775 11.4207C9.50324 11.5262 9.5625 11.6693 9.5625 11.8185V12.5685Z" fill="#A4A4A4"/>
</svg>
