<svg width="12" height="12" viewBox="0 0 12 12" fill="none" xmlns="http://www.w3.org/2000/svg">
<path d="M7.77554 6.49805L6.77052 7.50647C6.36297 7.91545 5.64587 7.92427 5.22951 7.50647L4.22444 6.49805L0.614685 10.1195C0.749052 10.1816 0.897201 10.2187 1.0547 10.2187H10.9453C11.1028 10.2187 11.2509 10.1817 11.3852 10.1195L7.77554 6.49805Z" fill="#E75524"/>
<path d="M10.9453 1.78125H1.05469C0.897188 1.78125 0.749039 1.81833 0.614719 1.88046L4.47199 5.75053C4.47225 5.75079 4.47255 5.75084 4.47281 5.75109C4.47297 5.75126 4.47308 5.75147 4.47312 5.7517L5.72733 7.01006C5.86055 7.14328 6.1395 7.14328 6.27272 7.01006L7.52667 5.75191C7.52667 5.75191 7.52698 5.75135 7.52723 5.75109C7.52723 5.75109 7.5278 5.75079 7.52805 5.75053L11.3852 1.88044C11.2509 1.81828 11.1028 1.78125 10.9453 1.78125ZM0.112172 2.37216C0.0426562 2.51273 0 2.66878 0 2.83594V9.16406C0 9.33122 0.0426094 9.48727 0.112148 9.62784L3.72816 6.00012L0.112172 2.37216ZM11.8878 2.37211L8.27187 6.00012L11.8878 9.62789C11.9573 9.48731 12 9.33127 12 9.16406V2.83594C12 2.66873 11.9573 2.51269 11.8878 2.37211Z" fill="#E75524"/>
</svg>
