<svg width="40" height="51" viewBox="0 0 40 51" fill="none" xmlns="http://www.w3.org/2000/svg">
<path d="M26.875 2.39062H4.375C2.99429 2.39062 1.875 3.81772 1.875 5.57812V39.0469C1.875 40.8073 2.99429 42.2344 4.375 42.2344H26.875C28.2557 42.2344 29.375 40.8073 29.375 39.0469V5.57812C29.375 3.81772 28.2557 2.39062 26.875 2.39062Z" fill="#BFBFBF"/>
<path d="M4.375 5.57812H26.875V32.6719H4.375V5.57812Z" fill="#8C8C8C"/>
<g clip-path="url(#clip0_2094_13733)">
<path d="M10.0546 21.2428V11.8115C10.0546 11.4849 10.3197 11.2197 10.6464 11.2197H20.3536C20.6802 11.2197 20.9454 11.4849 20.9454 11.8115V13.4296M20.9454 14.455V25.1885C20.9454 25.5151 20.6802 25.7803 20.3536 25.7803H10.6464C10.3197 25.7803 10.0546 25.5151 10.0546 25.1885V22.2682M10.0546 22.9392H20.9454" stroke="#595959" stroke-width="0.75" stroke-miterlimit="10" stroke-linecap="round" stroke-linejoin="round"/>
<path d="M13.4283 15.4813V14.1791C13.4283 14.1163 13.4533 14.0561 13.4977 14.0117C13.5421 13.9673 13.6023 13.9424 13.6651 13.9424H17.3348C17.3976 13.9424 17.4578 13.9673 17.5022 14.0117C17.5466 14.0561 17.5716 14.1163 17.5716 14.1791V15.4813C17.5716 15.5441 17.5466 15.6043 17.5022 15.6487C17.4578 15.6931 17.3976 15.718 17.3348 15.718H13.6651C13.634 15.718 13.6032 15.7119 13.5745 15.7C13.5458 15.6881 13.5197 15.6707 13.4977 15.6487C13.4757 15.6267 13.4583 15.6006 13.4464 15.5719C13.4345 15.5432 13.4283 15.5124 13.4283 15.4813Z" stroke="#595959" stroke-width="0.75" stroke-miterlimit="10" stroke-linecap="round" stroke-linejoin="round"/>
<path d="M16.91 17.7899H18.045C18.2738 17.7899 18.4595 17.6042 18.4595 17.3754V13.4689C18.4595 13.2401 18.2738 13.0547 18.045 13.0547H12.955C12.7261 13.0547 12.5404 13.2401 12.5404 13.4689V17.3754C12.5404 17.6042 12.7261 17.7899 12.955 17.7899H15.8846M17.8675 18.7368H13.1324" stroke="#595959" stroke-width="0.75" stroke-miterlimit="10" stroke-linecap="round" stroke-linejoin="round"/>
</g>
<path d="M5 36.6562H11.25C11.5938 36.6562 11.875 36.2977 11.875 35.8594C11.875 35.4211 11.5938 35.0625 11.25 35.0625H5C4.65625 35.0625 4.375 35.4211 4.375 35.8594C4.375 36.2977 4.65625 36.6562 5 36.6562ZM15 38.25H5C4.65625 38.25 4.375 38.6086 4.375 39.0469C4.375 39.4852 4.65625 39.8438 5 39.8438H15C15.3438 39.8438 15.625 39.4852 15.625 39.0469C15.625 38.6086 15.3438 38.25 15 38.25Z" fill="#8C8C8C"/>
<path d="M27 42C30.3137 42 33 38.4183 33 34C33 29.5817 30.3137 26 27 26C23.6863 26 21 29.5817 21 34C21 38.4183 23.6863 42 27 42Z" fill="#F2F2F2"/>
<path d="M29.3829 31.1398C29.3482 31.0955 29.307 31.0603 29.2617 31.0363C29.2163 31.0123 29.1677 31 29.1186 31C29.0695 31 29.0209 31.0123 28.9755 31.0363C28.9302 31.0603 28.889 31.0955 28.8543 31.1398L27.2462 33.1902L25.638 31.1398C25.6033 31.0955 25.5621 31.0604 25.5168 31.0365C25.4714 31.0125 25.4228 31.0002 25.3737 31.0002C25.3247 31.0002 25.2761 31.0125 25.2307 31.0365C25.1854 31.0604 25.1442 31.0955 25.1095 31.1398C25.0748 31.184 25.0472 31.2366 25.0284 31.2944C25.0097 31.3522 25 31.4141 25 31.4767C25 31.5393 25.0097 31.6013 25.0284 31.6591C25.0472 31.7169 25.0748 31.7694 25.1095 31.8137L26.7176 33.8641L25.1095 35.9145C25.0572 35.9812 25.0216 36.0663 25.0073 36.1588C24.9929 36.2514 25.0005 36.3473 25.0291 36.4344C25.0576 36.5215 25.1057 36.5958 25.1675 36.6479C25.2292 36.7 25.3016 36.7275 25.3756 36.727C25.4731 36.727 25.5668 36.6792 25.6418 36.5884L27.2499 34.538L28.8581 36.5884C28.933 36.684 29.0268 36.727 29.1242 36.727C29.2217 36.727 29.3154 36.6792 29.3904 36.5884C29.4251 36.5442 29.4527 36.4916 29.4715 36.4338C29.4903 36.376 29.5 36.314 29.5 36.2514C29.5 36.1888 29.4903 36.1268 29.4715 36.069C29.4527 36.0112 29.4251 35.9587 29.3904 35.9145L27.7822 33.8641L29.3904 31.8137C29.4251 31.7695 29.4527 31.7169 29.4715 31.6591C29.4903 31.6013 29.5 31.5393 29.5 31.4767C29.5 31.4141 29.4903 31.3521 29.4715 31.2943C29.4527 31.2365 29.4251 31.184 29.3904 31.1398H29.3829Z" fill="#595959"/>
<defs>
<clipPath id="clip0_2094_13733">
<rect width="15" height="15" fill="white" transform="translate(8 11)"/>
</clipPath>
</defs>
</svg>
