<svg width="12" height="12" viewBox="0 0 12 12" fill="none" xmlns="http://www.w3.org/2000/svg">
<g clip-path="url(#clip0_48_983)">
<g clip-path="url(#clip1_48_983)">
<path d="M10.4471 0.706055H9.38826V1.76488C9.38826 1.97664 9.21179 2.11782 9.03532 2.11782C8.85885 2.11782 8.68238 1.97664 8.68238 1.76488V0.706055H3.03532V1.76488C3.03532 1.97664 2.85885 2.11782 2.68238 2.11782C2.50591 2.11782 2.32944 1.97664 2.32944 1.76488V0.706055H1.27061C0.741202 0.706055 0.352966 1.16488 0.352966 1.76488V3.03547H11.6471V1.76488C11.6471 1.16488 11.0118 0.706055 10.4471 0.706055ZM0.352966 3.77664V10.2355C0.352966 10.8708 0.741202 11.2943 1.30591 11.2943H10.4824C11.0471 11.2943 11.6824 10.8355 11.6824 10.2355V3.77664H0.352966ZM3.49414 9.70605H2.64708C2.50591 9.70605 2.36473 9.60017 2.36473 9.4237V8.54135C2.36473 8.40017 2.47061 8.259 2.64708 8.259H3.52944C3.67061 8.259 3.81179 8.36488 3.81179 8.54135V9.4237C3.7765 9.60017 3.67061 9.70605 3.49414 9.70605ZM3.49414 6.52958H2.64708C2.50591 6.52958 2.36473 6.4237 2.36473 6.24723V5.36488C2.36473 5.2237 2.47061 5.08253 2.64708 5.08253H3.52944C3.67061 5.08253 3.81179 5.18841 3.81179 5.36488V6.24723C3.7765 6.4237 3.67061 6.52958 3.49414 6.52958ZM6.31767 9.70605H5.43532C5.29414 9.70605 5.15297 9.60017 5.15297 9.4237V8.54135C5.15297 8.40017 5.25885 8.259 5.43532 8.259H6.31767C6.45885 8.259 6.60003 8.36488 6.60003 8.54135V9.4237C6.60003 9.60017 6.49414 9.70605 6.31767 9.70605ZM6.31767 6.52958H5.43532C5.29414 6.52958 5.15297 6.4237 5.15297 6.24723V5.36488C5.15297 5.2237 5.25885 5.08253 5.43532 5.08253H6.31767C6.45885 5.08253 6.60003 5.18841 6.60003 5.36488V6.24723C6.60003 6.4237 6.49414 6.52958 6.31767 6.52958ZM9.1412 9.70605H8.25885C8.11767 9.70605 7.9765 9.60017 7.9765 9.4237V8.54135C7.9765 8.40017 8.08238 8.259 8.25885 8.259H9.1412C9.28238 8.259 9.42356 8.36488 9.42356 8.54135V9.4237C9.42356 9.60017 9.31767 9.70605 9.1412 9.70605ZM9.1412 6.52958H8.25885C8.11767 6.52958 7.9765 6.4237 7.9765 6.24723V5.36488C7.9765 5.2237 8.08238 5.08253 8.25885 5.08253H9.1412C9.28238 5.08253 9.42356 5.18841 9.42356 5.36488V6.24723C9.42356 6.4237 9.31767 6.52958 9.1412 6.52958Z" fill="#E75524"/>
</g>
</g>
<defs>
<clipPath id="clip0_48_983">
<rect width="12" height="12" fill="white"/>
</clipPath>
<clipPath id="clip1_48_983">
<rect width="12" height="12" fill="white"/>
</clipPath>
</defs>
</svg>
