<svg width="12" height="12" viewBox="0 0 12 12" fill="none" xmlns="http://www.w3.org/2000/svg">
<path d="M3.886 1.2194L4.424 1.0474C4.9285 0.886405 5.4675 1.1469 5.6835 1.6559L6.1135 2.6699C6.3005 3.1114 6.1965 3.6309 5.8565 3.9539L4.909 4.85291C4.9675 5.3909 5.1485 5.92041 5.4515 6.44141C5.73924 6.94547 6.12519 7.38668 6.5865 7.7389L7.7245 7.35891C8.1555 7.21541 8.6255 7.3809 8.8895 7.7694L9.506 8.67441C9.8135 9.12641 9.758 9.7494 9.3765 10.1324L8.968 10.5429C8.561 10.9514 7.9795 11.0999 7.442 10.9319C6.172 10.5359 5.0055 9.3604 3.9405 7.40541C2.874 5.4474 2.4975 3.7854 2.8115 2.4214C2.9435 1.8474 3.352 1.3899 3.886 1.2194Z" fill="#E75524"/>
</svg>
