<svg width="11" height="11" viewBox="0 0 11 11" fill="none" xmlns="http://www.w3.org/2000/svg">
<g clip-path="url(#clip0_254_13780)">
<path d="M5.42216 0.813091C4.75478 0.811877 4.09489 0.953643 3.48689 1.22885C3.46773 1.23757 3.45054 1.25007 3.43633 1.2656C3.42212 1.28112 3.41118 1.29935 3.40418 1.3192C3.39718 1.33905 3.39425 1.3601 3.39558 1.38111C3.3969 1.40212 3.40245 1.42264 3.41189 1.44145L3.69122 2.00071C3.7093 2.03672 3.74057 2.06437 3.77853 2.0779C3.81648 2.09143 3.85819 2.0898 3.89497 2.07335C4.37558 1.85927 4.89602 1.74918 5.42216 1.75031C6.10311 1.74997 6.77128 1.9352 7.35487 2.28608C7.93846 2.63696 8.4154 3.14024 8.73444 3.74182C9.05348 4.34341 9.20255 5.02056 9.16565 5.70051C9.12875 6.38046 8.90726 7.0375 8.52498 7.60102L8.03245 7.1079C8.0105 7.08627 7.98265 7.0716 7.9524 7.06573C7.92215 7.05987 7.89083 7.06306 7.86239 7.07492C7.83395 7.08678 7.80963 7.10677 7.79251 7.13239C7.77538 7.158 7.76619 7.18811 7.76611 7.21892V8.93746C7.76611 9.02368 7.8352 9.09396 7.92142 9.09455H9.63996C9.67102 9.0947 9.70142 9.0856 9.72729 9.06841C9.75316 9.05122 9.77333 9.02673 9.78524 8.99804C9.79714 8.96936 9.80024 8.93778 9.79414 8.90732C9.78805 8.87687 9.77302 8.84892 9.75099 8.82703L9.19704 8.27308C9.79017 7.47032 10.1102 6.49849 10.1101 5.50039C10.1094 4.25727 9.61532 3.06526 8.73631 2.18624C7.85729 1.30723 6.66528 0.813716 5.42216 0.813091ZM1.20259 1.90563C1.1717 1.90572 1.14153 1.91495 1.11588 1.93215C1.09023 1.94935 1.07024 1.97376 1.05843 2.0023C1.04662 2.03084 1.04352 2.06224 1.04953 2.09254C1.05553 2.12284 1.07036 2.15068 1.09216 2.17257L1.6461 2.72651C1.05341 3.52983 0.734014 4.50208 0.734865 5.50039C0.735478 6.28412 0.932477 7.05521 1.30786 7.7432C1.68325 8.43118 2.22505 9.01414 2.88376 9.4388C3.54248 9.86345 4.29711 10.1163 5.07871 10.1742C5.8603 10.232 6.64394 10.0931 7.35803 9.77016C7.37713 9.76138 7.39427 9.74884 7.40842 9.73329C7.42257 9.71774 7.43344 9.6995 7.44038 9.67966C7.44733 9.65981 7.4502 9.63877 7.44884 9.6178C7.44747 9.59682 7.4419 9.57633 7.43244 9.55755L7.15251 8.99888C7.13444 8.96302 7.10327 8.93548 7.06545 8.92196C7.02764 8.90844 6.98607 8.90997 6.94936 8.92624C6.46878 9.14051 5.94834 9.2508 5.42216 9.24987C4.74116 9.25046 4.07287 9.06545 3.48912 8.71473C2.90537 8.364 2.42824 7.86083 2.109 7.25928C1.78977 6.65774 1.64051 5.98056 1.67725 5.30055C1.714 4.62054 1.93537 3.9634 2.31757 3.39976L2.81187 3.89288C2.83382 3.91451 2.86167 3.92917 2.89193 3.93504C2.92218 3.94091 2.95349 3.93771 2.98193 3.92585C3.01038 3.914 3.03469 3.89401 3.05182 3.86839C3.06895 3.84277 3.07813 3.81267 3.07822 3.78185V2.06331C3.07822 2.02181 3.06173 1.982 3.03238 1.95265C3.00303 1.9233 2.96323 1.90681 2.92172 1.90681L1.20259 1.90563ZM5.7263 2.84345C5.70128 2.84483 5.67695 2.8522 5.65537 2.86495C5.63379 2.87769 5.61558 2.89543 5.60228 2.91668L3.72784 5.88543C3.71302 5.90901 3.70476 5.93612 3.70391 5.96396C3.70307 5.9918 3.70967 6.01936 3.72303 6.04379C3.73639 6.06823 3.75603 6.08865 3.77992 6.10297C3.80381 6.11728 3.83109 6.12495 3.85894 6.1252H5.09676L4.95385 7.98843C4.94203 8.14965 5.15346 8.21993 5.24086 8.0841L7.11649 5.11475C7.13139 5.09104 7.13965 5.06377 7.14042 5.03578C7.14119 5.00779 7.13444 4.98011 7.12086 4.95562C7.10729 4.93113 7.0874 4.91073 7.06326 4.89655C7.03911 4.88236 7.01161 4.87492 6.98361 4.87498H5.74638L5.89048 3.01235C5.89237 2.99014 5.88947 2.9678 5.88199 2.94681C5.87452 2.92582 5.86262 2.90667 5.84712 2.89067C5.83162 2.87466 5.81287 2.86217 5.79213 2.85402C5.77139 2.84587 5.74855 2.84227 5.7263 2.84345Z" fill="#E75524"/>
</g>
<defs>
<clipPath id="clip0_254_13780">
<rect width="10" height="10" fill="white" transform="translate(0.421875 0.5)"/>
</clipPath>
</defs>
</svg>
