<svg width="24" height="25" viewBox="0 0 24 25" fill="none" xmlns="http://www.w3.org/2000/svg">
<path d="M12 23.5562C11.7024 23.5559 11.4098 23.4795 11.15 23.3342L7.78 21.4622C6.10454 20.5307 4.70845 19.1684 3.73619 17.5163C2.76393 15.8641 2.25083 13.9822 2.25 12.0652V6.8692C2.24995 6.43682 2.41024 6.01979 2.69988 5.69876C2.98951 5.37772 3.3879 5.1755 3.818 5.1312C5.15883 4.98908 6.47845 4.69072 7.75 4.2422C8.91583 3.83009 10.0342 3.29437 11.086 2.6442C11.3611 2.47582 11.6774 2.38672 12 2.38672C12.3226 2.38672 12.6389 2.47582 12.914 2.6442C13.9659 3.29419 15.0842 3.82989 16.25 4.2422C17.5216 4.69072 18.8412 4.98908 20.182 5.1312C20.6121 5.1755 21.0105 5.37772 21.3001 5.69876C21.5898 6.01979 21.75 6.43682 21.75 6.8692V12.0652C21.7492 13.9822 21.2361 15.8641 20.2638 17.5163C19.2916 19.1684 17.8955 20.5307 16.22 21.4622L12.85 23.3352C12.5902 23.4802 12.2976 23.5563 12 23.5562ZM12 3.8862C11.956 3.88581 11.9127 3.89757 11.875 3.9202C10.732 4.62666 9.51675 5.20897 8.25 5.6572C6.86825 6.14488 5.43416 6.46909 3.977 6.6232C3.9151 6.62846 3.85743 6.65676 3.8154 6.70249C3.77337 6.74823 3.75003 6.80808 3.75 6.8702V12.0662C3.75054 13.7157 4.19192 15.3351 5.02846 16.7568C5.865 18.1784 7.06629 19.3507 8.508 20.1522L11.878 22.0242C11.9149 22.045 11.9566 22.0559 11.999 22.0559C12.0414 22.0559 12.0831 22.045 12.12 22.0242L15.492 20.1522C16.9337 19.3507 18.135 18.1784 18.9715 16.7568C19.8081 15.3351 20.2495 13.7157 20.25 12.0662V6.8692C20.25 6.80708 20.2266 6.74723 20.1846 6.70149C20.1426 6.65576 20.0849 6.62746 20.023 6.6222C18.5658 6.46809 17.1317 6.14388 15.75 5.6562C14.4833 5.2086 13.2681 4.62697 12.125 3.9212C12.0874 3.89803 12.0441 3.8859 12 3.8862Z" fill="#E75524"/>
<path d="M11.5 15.1995C11.3162 15.1996 11.1389 15.132 11.002 15.0095L8.75197 13.0095C8.61246 12.875 8.53037 12.6919 8.5229 12.4983C8.51543 12.3047 8.58315 12.1157 8.71189 11.971C8.84063 11.8262 9.02039 11.7369 9.21353 11.7217C9.40666 11.7065 9.59818 11.7666 9.74797 11.8895L11.452 13.4035L14.703 9.93646C14.7699 9.86295 14.8508 9.80348 14.9409 9.76151C15.031 9.71954 15.1286 9.69591 15.228 9.69199C15.3273 9.68807 15.4264 9.70394 15.5196 9.73868C15.6127 9.77342 15.6981 9.82634 15.7706 9.89435C15.8431 9.96236 15.9014 10.0441 15.942 10.1348C15.9827 10.2256 16.0048 10.3235 16.0073 10.4229C16.0098 10.5223 15.9924 10.6212 15.9563 10.7138C15.9202 10.8064 15.866 10.891 15.797 10.9625L12.047 14.9625C11.9769 15.0374 11.8922 15.0971 11.7981 15.1379C11.704 15.1787 11.6025 15.1996 11.5 15.1995Z" fill="#E75524"/>
</svg>
