<svg width="40" height="40" viewBox="0 0 40 40" fill="none" xmlns="http://www.w3.org/2000/svg">
<g clip-path="url(#clip0_202_15671)">
<path fill-rule="evenodd" clip-rule="evenodd" d="M0.863892 0.854082L24.0891 0.854004L28.1341 4.899V36.3687H0.863892V0.854082Z" fill="#E3F1FF"/>
<path fill-rule="evenodd" clip-rule="evenodd" d="M28.1341 4.899H24.0891V0.854004L28.1341 4.899Z" fill="#99CCFF"/>
<path d="M28.1341 39.1457C31.4789 39.1457 34.1904 36.4342 34.1904 33.0895C34.1904 29.7447 31.4789 27.0332 28.1341 27.0332C24.7894 27.0332 22.0779 29.7447 22.0779 33.0895C22.0779 36.4342 24.7894 39.1457 28.1341 39.1457Z" fill="#A0D904"/>
<path fill-rule="evenodd" clip-rule="evenodd" d="M27.4798 39.1102C24.4428 38.7839 22.0779 36.213 22.0779 33.0893C22.0779 29.9656 24.4428 27.3946 27.4798 27.0684C30.5168 27.3947 32.8817 29.9656 32.8817 33.0893C32.8817 36.213 30.5168 38.7839 27.4798 39.1102Z" fill="#BAED2C"/>
<path fill-rule="evenodd" clip-rule="evenodd" d="M31.2123 30.6932C31.5169 30.9978 31.5169 31.4961 31.2123 31.8005L27.5792 35.4336C27.3625 35.6504 27.084 35.7449 26.7801 35.7049C26.4763 35.6649 26.2317 35.5015 26.0785 35.2361L24.9317 33.2497C24.7164 32.8768 24.8453 32.3955 25.2183 32.1801C25.5913 31.9648 26.0726 32.0937 26.2879 32.4668L27.0359 33.7623L30.1051 30.6932C30.4096 30.3887 30.9079 30.3887 31.2124 30.6932H31.2123Z" fill="#F3F3FF"/>
<g clip-path="url(#clip1_202_15671)">
<path d="M11.0531 7.50899C11.0425 7.41483 10.9327 7.34399 10.8377 7.34399C10.5308 7.34399 10.2584 7.16385 10.1442 6.88502C10.0275 6.59951 10.1028 6.26659 10.3315 6.05681C10.3661 6.02506 10.3875 5.98136 10.3913 5.93449C10.3951 5.88762 10.381 5.84105 10.3519 5.80415C10.196 5.60591 10.0179 5.42611 9.82124 5.26823C9.74495 5.20704 9.63286 5.21556 9.56666 5.28883C9.36702 5.50994 9.00838 5.5921 8.73123 5.47648C8.44293 5.35517 8.26096 5.06293 8.27884 4.74926C8.28166 4.70179 8.26618 4.65505 8.2356 4.61865C8.20501 4.58225 8.16163 4.55895 8.1144 4.55355C7.86417 4.52458 7.61174 4.52374 7.36078 4.55158C7.31408 4.55677 7.27105 4.5794 7.24031 4.61494C7.20957 4.65048 7.19338 4.69632 7.19498 4.74329C7.20584 5.05389 7.02181 5.34098 6.7363 5.45793C6.46249 5.56979 6.10634 5.48824 5.9071 5.26907C5.87538 5.23435 5.83172 5.21288 5.78486 5.20896C5.73799 5.20503 5.69138 5.21893 5.65432 5.24789C5.45379 5.40515 5.27198 5.58491 5.11246 5.78363C5.08278 5.82063 5.06831 5.86755 5.07202 5.91483C5.07573 5.96212 5.09733 6.00621 5.13242 6.03812C5.36562 6.2493 5.4408 6.58508 5.31972 6.87393C5.20413 7.1493 4.91821 7.3267 4.59091 7.3267C4.4847 7.32328 4.40911 7.39464 4.39738 7.49123C4.36802 7.74423 4.36755 7.99975 4.39596 8.25287C4.40654 8.34743 4.51961 8.41766 4.61562 8.41766C4.90737 8.41024 5.18729 8.59073 5.30489 8.8766C5.42191 9.16211 5.34658 9.49488 5.11753 9.70496C5.04588 9.77081 5.03673 9.88082 5.09722 9.95727C5.25295 10.1555 5.43069 10.3353 5.62703 10.4934C5.66408 10.5232 5.71112 10.5377 5.75853 10.534C5.80594 10.5302 5.85011 10.5085 5.88201 10.4732C6.08243 10.2516 6.44102 10.1695 6.71703 10.2854C7.00617 10.4064 7.18805 10.6986 7.17029 11.0124C7.16748 11.0598 7.18294 11.1065 7.2135 11.1429C7.24406 11.1793 7.28741 11.2026 7.33462 11.2081C7.46268 11.223 7.5914 11.2305 7.72052 11.2305C7.84307 11.2305 7.96565 11.2238 8.08823 11.2101C8.13496 11.2049 8.178 11.1823 8.20874 11.1467C8.23947 11.1112 8.25563 11.0653 8.25398 11.0183C8.24277 10.7078 8.4272 10.4207 8.71237 10.304C8.98801 10.1914 9.34256 10.2738 9.54192 10.4927C9.57369 10.5273 9.61734 10.5487 9.66418 10.5526C9.71101 10.5566 9.75761 10.5427 9.7947 10.5138C9.9952 10.3565 10.177 10.1768 10.3366 9.97805C10.3663 9.94107 10.3809 9.89411 10.3772 9.84678C10.3734 9.79944 10.3518 9.75532 10.3166 9.72344C10.0835 9.51241 10.0079 9.17648 10.1289 8.88793C10.2427 8.61626 10.518 8.43385 10.8141 8.43385L10.8556 8.43495C10.9517 8.44275 11.04 8.36872 11.0516 8.27065C11.0811 8.01765 11.0816 7.7621 11.0531 7.50899ZM7.72455 9.81195C6.65802 9.81195 5.79347 8.9474 5.79347 7.8809C5.79347 6.81439 6.65804 5.94985 7.72455 5.94985C8.79106 5.94985 9.65563 6.81439 9.65563 7.8809C9.65563 8.2429 9.55583 8.58149 9.38249 8.87104L8.53692 8.02544C8.59886 7.87919 8.63067 7.72196 8.63044 7.56314C8.63044 7.24691 8.50728 6.94963 8.28365 6.72606C8.06007 6.50248 7.76279 6.37935 7.44663 6.37935C7.34111 6.37935 7.23609 6.39337 7.13448 6.42104C7.1123 6.42732 7.09211 6.43922 7.07586 6.45558C7.05962 6.47194 7.04787 6.49222 7.04175 6.51445C7.02964 6.56005 7.04328 6.60678 7.07892 6.64244C7.07892 6.64244 7.49637 7.06311 7.63604 7.20276C7.65067 7.21739 7.65064 7.2523 7.64859 7.26487L7.64728 7.27406C7.6332 7.42761 7.60606 7.61192 7.58366 7.68276C7.58065 7.68574 7.57781 7.68826 7.57474 7.69134C7.57152 7.69455 7.56857 7.69765 7.56547 7.70084C7.4937 7.72387 7.30655 7.75134 7.15056 7.7653L7.15059 7.76446L7.14358 7.76623C7.14138 7.76645 7.13916 7.76656 7.13695 7.76655C7.12009 7.76655 7.09529 7.76182 7.07275 7.73931C6.92737 7.59393 6.52628 7.19572 6.52628 7.19572C6.4903 7.15985 6.45339 7.15232 6.42879 7.15232C6.37146 7.15232 6.32012 7.19375 6.30395 7.25317C6.19354 7.66176 6.31059 8.10126 6.60949 8.40019C6.83312 8.62379 7.13043 8.74692 7.44665 8.74692C7.60547 8.74714 7.76269 8.71533 7.90893 8.6534L8.76368 9.50815C8.45359 9.70693 8.09289 9.81238 7.72455 9.81195Z" fill="#E8333C"/>
</g>
<path fill-rule="evenodd" clip-rule="evenodd" d="M4.3623 20.8646C4.21726 20.8646 4.07816 20.807 3.97561 20.7044C3.87305 20.6019 3.81543 20.4628 3.81543 20.3177C3.81543 20.1727 3.87305 20.0336 3.97561 19.931C4.07816 19.8285 4.21726 19.7708 4.3623 19.7708H16.8705C17.0155 19.7708 17.1546 19.8285 17.2572 19.931C17.3598 20.0336 17.4174 20.1727 17.4174 20.3177C17.4174 20.4628 17.3598 20.6019 17.2572 20.7044C17.1546 20.807 17.0155 20.8646 16.8705 20.8646H4.3623ZM4.3623 30.1543C4.21726 30.1543 4.07816 30.0967 3.97561 29.9941C3.87305 29.8915 3.81543 29.7524 3.81543 29.6074C3.81543 29.4624 3.87305 29.3233 3.97561 29.2207C4.07816 29.1181 4.21726 29.0605 4.3623 29.0605H20.3375C20.4826 29.0605 20.6217 29.1181 20.7242 29.2207C20.8268 29.3233 20.8844 29.4624 20.8844 29.6074C20.8844 29.7524 20.8268 29.8915 20.7242 29.9941C20.6217 30.0967 20.4826 30.1543 20.3375 30.1543H4.3623ZM4.3623 27.0577C4.21726 27.0577 4.07816 27.0001 3.97561 26.8975C3.87305 26.795 3.81543 26.6559 3.81543 26.5108C3.81543 26.3658 3.87305 26.2267 3.97561 26.1241C4.07816 26.0216 4.21726 25.964 4.3623 25.964H22.7338C22.8788 25.964 23.0179 26.0216 23.1205 26.1241C23.223 26.2267 23.2807 26.3658 23.2807 26.5108C23.2807 26.6559 23.223 26.795 23.1205 26.8975C23.0179 27.0001 22.8788 27.0577 22.7338 27.0577H4.3623ZM4.3623 23.9612C4.21726 23.9612 4.07816 23.9035 3.97561 23.801C3.87305 23.6984 3.81543 23.5593 3.81543 23.4143C3.81543 23.2692 3.87305 23.1301 3.97561 23.0276C4.07816 22.925 4.21726 22.8674 4.3623 22.8674H22.7338C22.8788 22.8674 23.0179 22.925 23.1205 23.0276C23.223 23.1301 23.2807 23.2692 23.2807 23.4143C23.2807 23.5593 23.223 23.6984 23.1205 23.801C23.0179 23.9035 22.8788 23.9612 22.7338 23.9612H4.3623ZM4.3623 33.2508C4.21726 33.2508 4.07816 33.1932 3.97561 33.0907C3.87305 32.9881 3.81543 32.849 3.81543 32.704C3.81543 32.5589 3.87305 32.4198 3.97561 32.3173C4.07816 32.2147 4.21726 32.1571 4.3623 32.1571H9.84324C9.98828 32.1571 10.1274 32.2147 10.2299 32.3173C10.3325 32.4198 10.3901 32.5589 10.3901 32.704C10.3901 32.849 10.3325 32.9881 10.2299 33.0907C10.1274 33.1932 9.98828 33.2508 9.84324 33.2508H4.3623ZM4.3623 17.7679C4.21726 17.7679 4.07816 17.7103 3.97561 17.6078C3.87305 17.5052 3.81543 17.3661 3.81543 17.2211C3.81543 17.076 3.87305 16.9369 3.97561 16.8344C4.07816 16.7318 4.21726 16.6742 4.3623 16.6742H16.8705C17.0155 16.6742 17.1546 16.7318 17.2572 16.8344C17.3598 16.9369 17.4174 17.076 17.4174 17.2211C17.4174 17.3661 17.3598 17.5052 17.2572 17.6078C17.1546 17.7103 17.0155 17.7679 16.8705 17.7679H4.3623ZM4.3623 14.6714C4.21726 14.6714 4.07816 14.6138 3.97561 14.5112C3.87305 14.4087 3.81543 14.2696 3.81543 14.1245C3.81543 13.9795 3.87305 13.8404 3.97561 13.7378C4.07816 13.6353 4.21726 13.5776 4.3623 13.5776H16.8705C17.0155 13.5776 17.1546 13.6353 17.2572 13.7378C17.3598 13.8404 17.4174 13.9795 17.4174 14.1245C17.4174 14.2696 17.3598 14.4087 17.2572 14.5112C17.1546 14.6138 17.0155 14.6714 16.8705 14.6714H4.3623Z" fill="#7986BF"/>
<path fill-rule="evenodd" clip-rule="evenodd" d="M37.3177 2.29675C39.0565 3.30065 39.6523 5.52393 38.6483 7.26268C38.3718 7.74333 37.9885 8.15403 37.528 8.46308C35.3153 9.94745 33.7154 11.6585 32.3831 13.966L31.5328 15.4388L28.8287 13.8776L29.679 12.4049C31.0113 10.0973 31.6932 7.85628 31.8723 5.19776C31.9097 4.64449 32.0737 4.10721 32.3517 3.62737C33.3556 1.88862 35.5789 1.29284 37.3176 2.29675H37.3177Z" fill="#A34F41"/>
<path fill-rule="evenodd" clip-rule="evenodd" d="M37.3178 2.29671C37.7536 2.54765 38.1324 2.88659 38.43 3.29195C38.5828 4.11367 38.4547 4.99187 38.0041 5.77242C37.7275 6.25308 37.3442 6.66378 36.8838 6.97281C34.671 8.45718 33.0711 10.1682 31.7389 12.4758L30.4043 14.7872L28.8289 13.8776L29.6792 12.4048C31.0114 10.0973 31.6933 7.85624 31.8724 5.19773C31.9098 4.64446 32.0739 4.10718 32.3518 3.62734C33.3557 1.88859 35.579 1.29288 37.3178 2.29671Z" fill="#C86F5C"/>
<path fill-rule="evenodd" clip-rule="evenodd" d="M28.655 13.7774L31.7067 15.5392C32.3442 15.9072 32.5646 16.7298 32.1965 17.3671L31.1924 19.1064L25.823 16.0064L26.8271 14.2671C27.1951 13.6297 28.0176 13.4094 28.655 13.7774H28.655Z" fill="#EA806F"/>
<path fill-rule="evenodd" clip-rule="evenodd" d="M28.655 13.7773L30.5829 14.8904C31.2203 15.2584 31.4407 16.081 31.0728 16.7183L30.0686 18.4575L25.823 16.0064L26.8271 14.2671C27.195 13.6298 28.0175 13.4094 28.6549 13.7773H28.655H28.655Z" fill="#F29988"/>
<path fill-rule="evenodd" clip-rule="evenodd" d="M22.9793 16.1142L32.5207 21.6229C33.4024 22.132 33.7073 23.2698 33.1982 24.1516L32.6295 25.1367C32.4332 25.4767 31.9945 25.5942 31.6546 25.3979L20.1432 18.7518C19.8032 18.5555 19.6857 18.1168 19.8819 17.7768L20.4506 16.7918C20.9596 15.91 22.0975 15.6051 22.9793 16.1142Z" fill="#283252"/>
<path fill-rule="evenodd" clip-rule="evenodd" d="M29.8821 24.3746L20.143 18.7517C19.8031 18.5555 19.6855 18.1167 19.8818 17.7768L20.4505 16.7917C20.9591 15.9108 22.0957 15.6057 22.977 16.1131L30.7462 20.5986C31.6279 21.1077 31.9328 22.2456 31.4237 23.1273L30.855 24.1124C30.6591 24.4517 30.2216 24.5694 29.882 24.3747L29.8821 24.3746Z" fill="#3D4A75"/>
<path fill-rule="evenodd" clip-rule="evenodd" d="M22.7973 13.4854L34.8884 20.4662C35.7701 20.9753 36.0749 22.1131 35.5659 22.9949L34.9971 23.9799C34.8009 24.3199 34.3621 24.4374 34.0221 24.2411L19.9612 16.123C19.6212 15.9267 19.5037 15.488 19.6999 15.148L20.2687 14.1629C20.7777 13.2812 21.9155 12.9763 22.7973 13.4853V13.4854Z" fill="#A34F41"/>
<path fill-rule="evenodd" clip-rule="evenodd" d="M32.4064 23.3082L32.4058 23.3079L19.9612 16.123C19.6212 15.9266 19.5037 15.488 19.6999 15.148L20.2687 14.1629C20.7776 13.2814 21.9151 12.9764 22.7966 13.485L33.272 19.533C34.1538 20.042 34.4586 21.1799 33.9495 22.0616L33.3809 23.0466C33.1847 23.3864 32.7463 23.504 32.4065 23.3082H32.4064Z" fill="#C86F5C"/>
<path d="M0.863892 0.854004H1.39858V36.3686H0.863892V0.854004Z" fill="#B6DBFF"/>
</g>
<defs>
<clipPath id="clip0_202_15671">
<rect width="40" height="40" fill="white"/>
</clipPath>
<clipPath id="clip1_202_15671">
<rect width="6.69922" height="6.69922" fill="white" transform="translate(4.375 4.53125)"/>
</clipPath>
</defs>
</svg>
