<svg width="17" height="19" viewBox="0 0 17 19" fill="none" xmlns="http://www.w3.org/2000/svg">
<path d="M8.4964 10.2469C11.0679 10.2469 13.1699 8.14482 13.1699 5.57338C13.1699 3.00193 11.0679 0.899902 8.4964 0.899902C5.92496 0.899902 3.82297 3.00193 3.82297 5.57338C3.82297 8.14482 5.925 10.2469 8.4964 10.2469ZM16.5168 13.9815C16.3944 13.6754 16.2311 13.3897 16.0475 13.1244C15.1087 11.7366 13.6597 10.8183 12.0271 10.5938C11.823 10.5734 11.5985 10.6142 11.4352 10.7366C10.5781 11.3693 9.55769 11.6958 8.49644 11.6958C7.43519 11.6958 6.4148 11.3693 5.55765 10.7366C5.39437 10.6142 5.16988 10.5529 4.96582 10.5938C3.33316 10.8183 1.86379 11.7366 0.945426 13.1244C0.761754 13.3897 0.598473 13.6958 0.476051 13.9815C0.41484 14.104 0.43523 14.2469 0.496441 14.3693C0.659723 14.655 0.863785 14.9408 1.04746 15.1856C1.33316 15.5734 1.63929 15.9203 1.98625 16.2469C2.27195 16.5326 2.59847 16.7979 2.92504 17.0632C4.53726 18.2673 6.47605 18.8999 8.47605 18.8999C10.4761 18.8999 12.4148 18.2672 14.0271 17.0632C14.3536 16.8183 14.6801 16.5326 14.9659 16.2469C15.2924 15.9203 15.6189 15.5734 15.9046 15.1856C16.1087 14.9203 16.2924 14.655 16.4557 14.3693C16.5577 14.2469 16.578 14.104 16.5168 13.9815Z" fill="#A4A4A4"/>
</svg>
