<svg width="24" height="25" viewBox="0 0 24 25" fill="none" xmlns="http://www.w3.org/2000/svg">
<path d="M15.9086 15.4688H13.2343L13.7915 13.6174C13.9619 13.0638 13.9083 12.4654 13.6422 11.9509C13.3762 11.4364 12.9188 11.0469 12.3686 10.866C12.2106 10.8139 12.0435 10.795 11.8778 10.8105C11.7121 10.8259 11.5515 10.8755 11.4058 10.9559C11.2602 11.0364 11.1327 11.1461 11.0314 11.2781C10.9301 11.4101 10.8572 11.5616 10.8172 11.7231L10.7315 12.0831C10.4082 13.3803 9.73865 14.5654 8.79431 15.5117L8.30574 15.9917C8.18159 15.8353 8.024 15.7087 7.84453 15.6212C7.66505 15.5337 7.46826 15.4875 7.2686 15.486H6.64288C6.2912 15.4859 5.95367 15.6244 5.70339 15.8715C5.45311 16.1186 5.31025 16.4543 5.30574 16.806V22.326C5.30574 22.6806 5.44662 23.0207 5.69738 23.2715C5.94814 23.5222 6.28825 23.6631 6.64288 23.6631H7.2686C7.49877 23.6626 7.72485 23.6022 7.92469 23.4881C8.12454 23.3739 8.29129 23.2097 8.4086 23.0117L8.5286 23.0717C9.30329 23.4585 10.157 23.6609 11.0229 23.6631H14.1C14.6087 23.6656 15.1101 23.5415 15.5589 23.3021C16.0078 23.0627 16.3901 22.7155 16.6715 22.2917C17.2703 21.3963 17.5895 20.3431 17.5886 19.266V17.1317C17.5886 16.9118 17.545 16.6942 17.4604 16.4913C17.3758 16.2885 17.2517 16.1044 17.0955 15.9497C16.9393 15.7951 16.7539 15.673 16.5502 15.5904C16.3465 15.5079 16.1284 15.4665 15.9086 15.4688ZM7.71431 22.326C7.71431 22.4533 7.66374 22.5753 7.57372 22.6654C7.4837 22.7554 7.36161 22.806 7.23431 22.806H6.64288C6.51558 22.806 6.39349 22.7554 6.30347 22.6654C6.21345 22.5753 6.16288 22.4533 6.16288 22.326V16.806C6.16288 16.6787 6.21345 16.5566 6.30347 16.4665C6.39349 16.3765 6.51558 16.326 6.64288 16.326H7.2686C7.38987 16.3346 7.50332 16.389 7.58605 16.4781C7.66878 16.5672 7.71462 16.6844 7.71431 16.806V22.326ZM16.7143 19.266C16.7179 20.1806 16.4494 21.0757 15.9429 21.8374C15.7402 22.1403 15.4661 22.3888 15.1447 22.5607C14.8233 22.7326 14.4645 22.8227 14.1 22.8231H11.0229C10.2911 22.8224 9.56937 22.6522 8.91431 22.326L8.57145 22.1545V16.8917L9.36003 16.1031C10.4151 15.0482 11.1645 13.7271 11.5286 12.2802L11.6143 11.9288C11.6398 11.8348 11.7014 11.7547 11.7857 11.706C11.829 11.6871 11.8757 11.6773 11.9229 11.6773C11.9701 11.6773 12.0168 11.6871 12.06 11.706C12.2289 11.7621 12.3851 11.851 12.5197 11.9676C12.6542 12.0842 12.7644 12.2262 12.844 12.3854C12.9236 12.5446 12.971 12.718 12.9836 12.8955C12.9962 13.0731 12.9736 13.2514 12.9172 13.4202L12.1972 15.8288C12.1785 15.8927 12.175 15.96 12.1869 16.0255C12.1988 16.0909 12.2258 16.1527 12.2657 16.206C12.3047 16.2602 12.3562 16.3042 12.416 16.334C12.4757 16.3639 12.5418 16.3788 12.6086 16.3774H15.8572C15.963 16.3774 16.0677 16.3982 16.1655 16.4387C16.2633 16.4792 16.3521 16.5386 16.4269 16.6134C16.5017 16.6882 16.5611 16.777 16.6016 16.8748C16.642 16.9725 16.6629 17.0773 16.6629 17.1831L16.7143 19.266ZM9.4286 7.20596L9.15431 8.79167C9.12132 8.96716 9.13931 9.14843 9.20615 9.31401C9.27299 9.47959 9.38588 9.62255 9.53145 9.72596C9.69259 9.84608 9.88763 9.91209 10.0886 9.91453C10.2437 9.91207 10.3963 9.87394 10.5343 9.8031L12 9.04881L13.4315 9.8031C13.5889 9.88621 13.7666 9.92307 13.944 9.90942C14.1215 9.89577 14.2915 9.83216 14.4343 9.72596C14.5784 9.62321 14.6903 9.48166 14.7571 9.31778C14.8239 9.15389 14.8427 8.97442 14.8115 8.80024L14.5715 7.20596L15.6943 6.09167C15.824 5.96902 15.9162 5.81209 15.9602 5.63912C16.0042 5.46614 15.9982 5.28423 15.9429 5.11453C15.8875 4.94501 15.786 4.79426 15.6497 4.6792C15.5135 4.56414 15.3479 4.48931 15.1715 4.4631L13.5686 4.23167L12.8572 2.76595C12.7771 2.60728 12.6546 2.47394 12.5033 2.38077C12.352 2.28761 12.1777 2.23828 12 2.23828C11.8223 2.23828 11.6481 2.28761 11.4968 2.38077C11.3454 2.47394 11.2229 2.60728 11.1429 2.76595L10.4315 4.21453L8.8286 4.44596C8.65219 4.47217 8.48658 4.547 8.35032 4.66206C8.21407 4.77712 8.11255 4.92786 8.05717 5.09738C7.99831 5.26944 7.99046 5.45484 8.03456 5.63125C8.07866 5.80766 8.17284 5.96756 8.30574 6.09167L9.4286 7.20596ZM8.91431 5.29453L10.74 5.02881C10.8225 5.03415 10.9047 5.01504 10.9764 4.97387C11.048 4.93271 11.106 4.87131 11.1429 4.79738L12 3.1431C12.0075 3.12668 12.0196 3.11278 12.0348 3.10303C12.05 3.09327 12.0677 3.08809 12.0857 3.08809C12.1038 3.08809 12.1215 3.09327 12.1367 3.10303C12.1519 3.11278 12.1639 3.12668 12.1715 3.1431L13.0286 4.79738C13.0594 4.85997 13.1053 4.91391 13.1622 4.95431C13.219 4.99472 13.2851 5.02032 13.3543 5.02881L15.18 5.29453C15.1978 5.29815 15.2143 5.30639 15.2278 5.31844C15.2414 5.33048 15.2515 5.34589 15.2572 5.3631C15.2654 5.37743 15.2698 5.39369 15.2698 5.41024C15.2698 5.42679 15.2654 5.44305 15.2572 5.45738L13.9372 6.7431C13.8872 6.79299 13.8496 6.85382 13.8273 6.92077C13.805 6.98772 13.7986 7.05895 13.8086 7.12881L14.1257 8.93738C14.1316 8.95562 14.1304 8.97536 14.1225 8.99279C14.1146 9.01021 14.1005 9.02407 14.0829 9.03167C14.068 9.0428 14.05 9.04881 14.0315 9.04881C14.0129 9.04881 13.9949 9.0428 13.98 9.03167L12.3515 8.17453C12.2912 8.14074 12.2234 8.12299 12.1543 8.12299C12.0853 8.12299 12.0174 8.14074 11.9572 8.17453L10.32 9.03167C10.3065 9.0421 10.2899 9.04775 10.2729 9.04775C10.2558 9.04775 10.2392 9.0421 10.2257 9.03167C10.2082 9.02407 10.1941 9.01021 10.1861 8.99279C10.1782 8.97536 10.1771 8.95562 10.1829 8.93738L10.5 7.12881C10.51 7.05895 10.5036 6.98772 10.4813 6.92077C10.459 6.85382 10.4214 6.79299 10.3715 6.7431L9.05145 5.45738C9.04318 5.44305 9.03882 5.42679 9.03882 5.41024C9.03882 5.39369 9.04318 5.37743 9.05145 5.3631C9.02919 5.36436 9.00713 5.35836 8.98857 5.34599C8.97002 5.33362 8.95599 5.31556 8.9486 5.29453H8.91431ZM6.29145 12.306C6.41913 12.3083 6.54571 12.2821 6.66195 12.2292C6.77819 12.1763 6.88115 12.0982 6.9633 12.0004C7.04546 11.9026 7.10473 11.7877 7.13679 11.6641C7.16885 11.5405 7.17288 11.4113 7.1486 11.286L6.91717 9.9831L7.87717 9.04881C7.99812 8.93781 8.08465 8.79442 8.12647 8.63567C8.1683 8.47693 8.16365 8.30951 8.1131 8.15333C8.06254 7.99714 7.9682 7.85876 7.84128 7.75464C7.71437 7.65051 7.56022 7.58502 7.39717 7.56596L6.08574 7.37738L5.49431 6.18596C5.4154 6.04887 5.30175 5.935 5.16481 5.85582C5.02788 5.77664 4.87249 5.73495 4.71431 5.73495C4.55613 5.73495 4.40075 5.77664 4.26381 5.85582C4.12687 5.935 4.01322 6.04887 3.93431 6.18596L3.34288 7.37738L2.03145 7.56596C1.8684 7.58502 1.71426 7.65051 1.58734 7.75464C1.46043 7.85876 1.36608 7.99714 1.31552 8.15333C1.26497 8.30951 1.26033 8.47693 1.30215 8.63567C1.34397 8.79442 1.4305 8.93781 1.55145 9.04881L2.50288 9.9831L2.27145 11.286C2.24176 11.4475 2.25909 11.6141 2.3214 11.7661C2.3837 11.918 2.48834 12.0489 2.62288 12.1431C2.75428 12.2391 2.91032 12.2958 3.07273 12.3064C3.23515 12.317 3.39723 12.2812 3.54003 12.2031L4.71431 11.586L5.8886 12.2031C6.01241 12.2699 6.15076 12.3053 6.29145 12.306ZM4.71431 10.6774C4.64523 10.677 4.57724 10.6947 4.51717 10.7288L3.12003 11.4317L3.4286 9.90595C3.43337 9.83259 3.42026 9.75916 3.3904 9.69198C3.36054 9.6248 3.31482 9.56586 3.25717 9.52024L2.15145 8.41453L3.69431 8.19167C3.76252 8.18335 3.82747 8.15771 3.88298 8.1172C3.93849 8.0767 3.98272 8.02266 4.01145 7.96024L4.72288 6.5631L5.41717 7.96024C5.4459 8.02266 5.49013 8.0767 5.54564 8.1172C5.60115 8.15771 5.6661 8.18335 5.73431 8.19167L7.27717 8.44024L6.17145 9.52024C6.12154 9.57013 6.08393 9.63096 6.06161 9.69791C6.03929 9.76486 6.03288 9.83609 6.04288 9.90595L6.29145 11.4488L4.91145 10.7288C4.85138 10.6947 4.7834 10.677 4.71431 10.6774ZM22.6715 8.15738C22.6225 8.00227 22.5304 7.86429 22.4059 7.75957C22.2815 7.65484 22.1298 7.58769 21.9686 7.56596L20.6572 7.37738L20.0657 6.18596C19.9868 6.04887 19.8732 5.935 19.7362 5.85582C19.5993 5.77664 19.4439 5.73495 19.2857 5.73495C19.1276 5.73495 18.9722 5.77664 18.8352 5.85582C18.6983 5.935 18.5847 6.04887 18.5057 6.18596L17.9143 7.37738L16.6029 7.56596C16.4398 7.58502 16.2857 7.65051 16.1588 7.75464C16.0319 7.85876 15.9375 7.99714 15.887 8.15333C15.8364 8.30951 15.8318 8.47693 15.8736 8.63567C15.9154 8.79442 16.0019 8.93781 16.1229 9.04881L17.0743 9.9831L16.8429 11.286C16.8132 11.4475 16.8305 11.6141 16.8928 11.7661C16.9551 11.918 17.0598 12.0489 17.1943 12.1431C17.3257 12.2391 17.4817 12.2958 17.6442 12.3064C17.8066 12.317 17.9687 12.2812 18.1115 12.2031L19.2857 11.586L20.46 12.2031C20.5838 12.2699 20.7222 12.3053 20.8629 12.306C20.9906 12.3083 21.1171 12.2821 21.2334 12.2292C21.3496 12.1763 21.4526 12.0982 21.5347 12.0004C21.6169 11.9026 21.6762 11.7877 21.7082 11.6641C21.7403 11.5405 21.7443 11.4113 21.72 11.286L21.4886 9.9831L22.44 9.04881C22.5594 8.93765 22.6446 8.79473 22.6856 8.63682C22.7266 8.47892 22.7217 8.31259 22.6715 8.15738ZM20.7429 9.52024C20.693 9.57013 20.6554 9.63096 20.633 9.69791C20.6107 9.76486 20.6043 9.83609 20.6143 9.90595L20.8629 11.4488L19.4829 10.7288C19.4227 10.695 19.3548 10.6773 19.2857 10.6773C19.2167 10.6773 19.1488 10.695 19.0886 10.7288L17.6915 11.4317L18 9.90595C18.0048 9.83259 17.9917 9.75916 17.9618 9.69198C17.932 9.6248 17.8862 9.56586 17.8286 9.52024L16.7229 8.41453L18.2657 8.19167C18.334 8.18335 18.3989 8.15771 18.4544 8.1172C18.5099 8.0767 18.5541 8.02266 18.5829 7.96024L19.2943 6.5631L19.9886 7.96024C20.0173 8.02266 20.0616 8.0767 20.1171 8.1172C20.1726 8.15771 20.2375 8.18335 20.3057 8.19167L21.8486 8.44024L20.7429 9.52024Z" fill="#E75524" stroke="#E75524" stroke-width="0.25"/>
</svg>
