<svg width="24" height="25" viewBox="0 0 24 25" fill="none" xmlns="http://www.w3.org/2000/svg">
<g clip-path="url(#clip0_16_8908)">
<g clip-path="url(#clip1_16_8908)">
<path d="M17.625 15.9492C17.0359 15.9489 16.4526 16.0646 15.9082 16.2897C15.3639 16.5148 14.8692 16.845 14.4525 17.2613L11.7855 15.3563C12.1597 14.6345 12.375 13.817 12.375 12.9492C12.375 12.0815 12.1597 11.264 11.7855 10.5421L14.4525 8.63709C14.8692 9.05343 15.3639 9.38359 15.9082 9.60873C16.4526 9.83386 17.0359 9.94956 17.625 9.94922C20.1064 9.94922 22.125 7.93059 22.125 5.44922C22.125 2.96784 20.1064 0.949219 17.625 0.949219C15.1436 0.949219 13.125 2.96784 13.125 5.44922C13.125 6.15459 13.2926 6.81984 13.5833 7.41497L10.9121 9.32297C9.95588 8.32434 8.61338 7.69922 7.125 7.69922C4.23 7.69922 1.875 10.0542 1.875 12.9492C1.875 15.8442 4.23 18.1992 7.125 18.1992C8.61338 18.1992 9.95588 17.5741 10.9121 16.5755L13.5833 18.4835C13.2825 19.0952 13.1257 19.7676 13.125 20.4492C13.125 22.9306 15.1436 24.9492 17.625 24.9492C20.1064 24.9492 22.125 22.9306 22.125 20.4492C22.125 17.9678 20.1064 15.9492 17.625 15.9492ZM17.625 2.44922C19.2791 2.44922 20.625 3.79509 20.625 5.44922C20.625 7.10334 19.2791 8.44922 17.625 8.44922C15.9709 8.44922 14.625 7.10334 14.625 5.44922C14.625 3.79509 15.9709 2.44922 17.625 2.44922ZM7.125 16.6992C5.05725 16.6992 3.375 15.017 3.375 12.9492C3.375 10.8815 5.05725 9.19922 7.125 9.19922C9.19275 9.19922 10.875 10.8815 10.875 12.9492C10.875 15.017 9.19275 16.6992 7.125 16.6992ZM17.625 23.4492C15.9709 23.4492 14.625 22.1033 14.625 20.4492C14.625 18.7951 15.9709 17.4492 17.625 17.4492C19.2791 17.4492 20.625 18.7951 20.625 20.4492C20.625 22.1033 19.2791 23.4492 17.625 23.4492Z" fill="#E75524"/>
</g>
</g>
<defs>
<clipPath id="clip0_16_8908">
<rect width="24" height="24" fill="white" transform="translate(0 0.949219)"/>
</clipPath>
<clipPath id="clip1_16_8908">
<rect width="24" height="24" fill="white" transform="translate(0 0.949219)"/>
</clipPath>
</defs>
</svg>
