<svg width="13" height="12" viewBox="0 0 13 12" fill="none" xmlns="http://www.w3.org/2000/svg">
<g clip-path="url(#clip0_254_13785)">
<path d="M8.50935 5.9999H11.3843L10.9768 4.4999H8.25935L8.50935 5.9999ZM5.17435 3.9999H7.66935L7.37685 2.2499H5.46685L5.17435 3.9999ZM4.58435 4.4999H1.86685L1.45685 5.9999H4.33435L4.58435 4.4999ZM8.17185 3.9999H10.8393L10.4218 2.4349C10.4072 2.38036 10.3745 2.33239 10.3291 2.2988C10.2837 2.2652 10.2283 2.24797 10.1718 2.2499H7.88435L8.17185 3.9999ZM8.00185 5.9999L7.75185 4.4999H5.09185L4.84185 5.9999H8.00185ZM8.37685 8.2499L8.08685 6.4999H4.75685L4.46685 8.2499H6.17185V9.2499H5.42185C5.35554 9.2499 5.29195 9.27624 5.24507 9.32313C5.19818 9.37001 5.17185 9.4336 5.17185 9.4999C5.17185 9.56621 5.19818 9.6298 5.24507 9.67668C5.29195 9.72356 5.35554 9.7499 5.42185 9.7499H7.42185C7.48815 9.7499 7.55174 9.72356 7.59862 9.67668C7.64551 9.6298 7.67185 9.56621 7.67185 9.4999C7.67185 9.4336 7.64551 9.37001 7.59862 9.32313C7.55174 9.27624 7.48815 9.2499 7.42185 9.2499H6.67185V8.2499H8.37685ZM8.88435 8.2499H11.6718C11.7109 8.25125 11.7498 8.24341 11.7853 8.22701C11.8208 8.21061 11.852 8.18611 11.8763 8.15547C11.9006 8.12483 11.9174 8.08891 11.9253 8.0506C11.9332 8.0123 11.932 7.97267 11.9218 7.9349L11.5218 6.4999H8.59185L8.88435 8.2499ZM1.17185 8.2499H3.95935L4.25185 6.4999H1.32185L0.921846 7.9349C0.911653 7.97267 0.910463 8.0123 0.918372 8.0506C0.926282 8.08891 0.943069 8.12483 0.967386 8.15547C0.991702 8.18611 1.02287 8.21061 1.05838 8.22701C1.09389 8.24341 1.13275 8.25125 1.17185 8.2499ZM4.95935 2.2499H2.67185C2.61541 2.24797 2.55997 2.2652 2.51458 2.2988C2.46918 2.33239 2.4365 2.38036 2.42185 2.4349L2.00435 3.9999H4.67185L4.95935 2.2499Z" fill="#E75524"/>
</g>
<defs>
<clipPath id="clip0_254_13785">
<rect width="12" height="12" fill="white" transform="translate(0.421875)"/>
</clipPath>
</defs>
</svg>
