<svg width="14" height="15" viewBox="0 0 14 15" fill="none" xmlns="http://www.w3.org/2000/svg">
<path fill-rule="evenodd" clip-rule="evenodd" d="M5.07188 12.9414H3.37416C3.0625 12.9414 3.0625 12.4657 3.37416 12.4657H3.82524V10.6121C3.82524 10.4809 3.93186 10.3743 4.06309 10.3743H5.07188C5.2031 10.3743 5.30972 10.4809 5.30972 10.6121V12.4657H5.81001V9.19328C5.81001 9.06206 5.91663 8.95544 6.04786 8.95544H7.05664C7.18787 8.95544 7.29449 9.06206 7.29449 9.19328V12.4657H7.78658V9.94783C7.78658 9.8166 7.8932 9.70998 8.02442 9.70998H9.03321C9.16443 9.70998 9.27105 9.8166 9.27105 9.94783V12.4657H9.77135V11.1452C9.77135 11.014 9.87797 10.9074 10.0092 10.9074H11.018C11.1492 10.9074 11.2558 11.014 11.2558 11.1452V12.4657C11.5511 12.4657 11.9448 12.3919 11.9448 12.7035C11.9448 12.8348 11.8381 12.9414 11.7069 12.9414H5.07188ZM2.21774 14.3028C2.11112 14.2864 2.02911 14.2126 2.01271 14.0978L0.00333371 2.12357C-0.0212709 1.97594 0.0935505 1.84472 0.241178 1.84472H2.01271V0.548879C2.01271 0.417655 2.11933 0.311035 2.25055 0.311035H12.8305C12.9617 0.311035 13.0684 0.417655 13.0684 0.548879V14.065C13.0684 14.1962 12.9617 14.3028 12.8305 14.3028H2.25055H2.21774ZM2.48839 13.8271H12.5927V0.786724H2.48839V13.8271ZM0.52003 2.32041L2.01271 11.2191V2.32041H0.52003ZM10.1486 2.15638H5.16209C4.85043 2.15638 4.85043 1.68069 5.16209 1.68069H10.1486C10.4603 1.68069 10.4603 2.15638 10.1486 2.15638ZM11.305 3.63265H6.827C6.51534 3.63265 6.51534 3.15696 6.827 3.15696H11.305C11.6167 3.15696 11.6167 3.63265 11.305 3.63265ZM11.305 5.10893H6.31851C6.00685 5.10893 6.00685 4.63324 6.31851 4.63324H11.305C11.6167 4.63324 11.6167 5.10893 11.305 5.10893ZM11.305 6.577H6.827C6.51534 6.577 6.51534 6.10131 6.827 6.10131H11.305C11.6167 6.10131 11.6167 6.577 11.305 6.577ZM11.305 8.05327H6.31851C6.00685 8.05327 6.00685 7.57759 6.31851 7.57759H11.305C11.6167 7.57759 11.6167 8.05327 11.305 8.05327ZM4.29273 5.10893C4.23532 5.10893 4.16971 5.07612 4.1287 5.03511L3.612 4.50201C3.39056 4.28057 3.72682 3.95251 3.94827 4.17395L4.29273 4.52662L5.40814 3.38661C5.62958 3.16517 5.96584 3.50143 5.7526 3.72287L4.46496 5.03511C4.42395 5.07612 4.35834 5.10893 4.29273 5.10893ZM4.29273 8.05327C4.23532 8.05327 4.16971 8.02867 4.1287 7.97946L3.612 7.45456C3.39056 7.23312 3.72682 6.89686 3.94827 7.1183L4.29273 7.47917L5.40814 6.33916C5.62958 6.11771 5.96584 6.44578 5.7526 6.66722L4.46496 7.97946C4.42395 8.02867 4.35834 8.05327 4.29273 8.05327ZM10.247 12.4657H10.7801V11.3831H10.247V12.4657ZM8.26227 12.4657H8.80357V10.1857H8.26227V12.4657ZM6.2857 12.4657H6.8188V9.43113H6.2857V12.4657ZM4.30093 12.4657H4.83403V10.85H4.30093V12.4657Z" fill="#E75524"/>
</svg>
