<svg width="15" height="16" viewBox="0 0 15 16" fill="none" xmlns="http://www.w3.org/2000/svg">
<path d="M5.85938 1.68604H2.57812C2.26744 1.68641 1.96958 1.80999 1.7499 2.02968C1.53021 2.24937 1.40662 2.54722 1.40625 2.85791V6.13916C1.40662 6.44985 1.53021 6.7477 1.7499 6.96739C1.96958 7.18708 2.26744 7.31066 2.57812 7.31104H5.85938C6.17006 7.31066 6.46792 7.18708 6.6876 6.96739C6.90729 6.7477 7.03088 6.44985 7.03125 6.13916V2.85791C7.03088 2.54722 6.90729 2.24937 6.6876 2.02968C6.46792 1.80999 6.17006 1.68641 5.85938 1.68604ZM6.5625 6.13916C6.5625 6.32564 6.48842 6.50448 6.35656 6.63634C6.2247 6.76821 6.04586 6.84229 5.85938 6.84229H2.57812C2.39164 6.84229 2.2128 6.76821 2.08094 6.63634C1.94908 6.50448 1.875 6.32564 1.875 6.13916V2.85791C1.875 2.67143 1.94908 2.49259 2.08094 2.36073C2.2128 2.22886 2.39164 2.15479 2.57812 2.15479H5.85938C6.04586 2.15479 6.2247 2.22886 6.35656 2.36073C6.48842 2.49259 6.5625 2.67143 6.5625 2.85791V6.13916ZM12.4219 1.68604H9.14062C8.82994 1.68641 8.53208 1.80999 8.3124 2.02968C8.09271 2.24937 7.96912 2.54722 7.96875 2.85791V6.13916C7.96912 6.44985 8.09271 6.7477 8.3124 6.96739C8.53208 7.18708 8.82994 7.31066 9.14062 7.31104H12.4219C12.7326 7.31066 13.0304 7.18708 13.2501 6.96739C13.4698 6.7477 13.5934 6.44985 13.5938 6.13916V2.85791C13.5934 2.54722 13.4698 2.24937 13.2501 2.02968C13.0304 1.80999 12.7326 1.68641 12.4219 1.68604ZM13.125 6.13916C13.125 6.32564 13.0509 6.50448 12.9191 6.63634C12.7872 6.76821 12.6084 6.84229 12.4219 6.84229H9.14062C8.95414 6.84229 8.7753 6.76821 8.64344 6.63634C8.51158 6.50448 8.4375 6.32564 8.4375 6.13916V2.85791C8.4375 2.67143 8.51158 2.49259 8.64344 2.36073C8.7753 2.22886 8.95414 2.15479 9.14062 2.15479H12.4219C12.6084 2.15479 12.7872 2.22886 12.9191 2.36073C13.0509 2.49259 13.125 2.67143 13.125 2.85791V6.13916ZM5.85938 8.24854H2.57812C2.26744 8.24891 1.96958 8.37249 1.7499 8.59218C1.53021 8.81187 1.40662 9.10972 1.40625 9.42041V12.7017C1.40662 13.0123 1.53021 13.3102 1.7499 13.5299C1.96958 13.7496 2.26744 13.8732 2.57812 13.8735H5.85938C6.17006 13.8732 6.46792 13.7496 6.6876 13.5299C6.90729 13.3102 7.03088 13.0123 7.03125 12.7017V9.42041C7.03088 9.10972 6.90729 8.81187 6.6876 8.59218C6.46792 8.37249 6.17006 8.24891 5.85938 8.24854ZM6.5625 12.7017C6.5625 12.8881 6.48842 13.067 6.35656 13.1988C6.2247 13.3307 6.04586 13.4048 5.85938 13.4048H2.57812C2.39164 13.4048 2.2128 13.3307 2.08094 13.1988C1.94908 13.067 1.875 12.8881 1.875 12.7017V9.42041C1.875 9.23393 1.94908 9.05509 2.08094 8.92323C2.2128 8.79136 2.39164 8.71729 2.57812 8.71729H5.85938C6.04586 8.71729 6.2247 8.79136 6.35656 8.92323C6.48842 9.05509 6.5625 9.23393 6.5625 9.42041V12.7017ZM10.7812 8.24854C10.225 8.24854 9.68122 8.41349 9.21871 8.72253C8.7562 9.03157 8.39571 9.47082 8.18284 9.98474C7.96997 10.4987 7.91427 11.0642 8.02279 11.6097C8.13131 12.1553 8.39918 12.6564 8.79251 13.0498C9.18585 13.4431 9.68699 13.711 10.2326 13.8195C10.7781 13.928 11.3436 13.8723 11.8575 13.6594C12.3715 13.4466 12.8107 13.0861 13.1198 12.6236C13.4288 12.1611 13.5938 11.6173 13.5938 11.061C13.5929 10.3154 13.2964 9.60046 12.7691 9.07319C12.2418 8.54592 11.5269 8.24934 10.7812 8.24854ZM10.7812 13.4048C10.3177 13.4048 9.86456 13.2673 9.47913 13.0098C9.09371 12.7523 8.7933 12.3862 8.61591 11.9579C8.43851 11.5297 8.3921 11.0584 8.48253 10.6038C8.57297 10.1491 8.79619 9.73153 9.12397 9.40375C9.45175 9.07597 9.86936 8.85275 10.324 8.76232C10.7787 8.67189 11.2499 8.7183 11.6782 8.89569C12.1064 9.07309 12.4725 9.37349 12.73 9.75892C12.9875 10.1443 13.125 10.5975 13.125 11.061C13.1243 11.6824 12.8772 12.2782 12.4378 12.7176C11.9984 13.157 11.4026 13.4041 10.7812 13.4048Z" fill="#E75524"/>
</svg>
