<svg width="107" height="108" viewBox="0 0 107 108" fill="none" xmlns="http://www.w3.org/2000/svg">
<rect x="0.00488281" y="0.569733" width="107" height="107" rx="53.5" fill="#E7F6EC"/>
<rect x="11.0049" y="11.5697" width="85" height="85" rx="42.5" fill="#B5E3C4"/>
<path fill-rule="evenodd" clip-rule="evenodd" d="M63.3782 50.5237C64.1812 49.7653 64.2173 48.4995 63.4589 47.6965C62.7004 46.8934 61.4346 46.8573 60.6316 47.6157L50.3583 57.3187L47.3782 54.504C46.5751 53.7456 45.3093 53.7817 44.5509 54.5848C43.7925 55.3878 43.8286 56.6536 44.6316 57.412L48.985 61.5237C49.7558 62.2517 50.9608 62.2517 51.7316 61.5237L63.3782 50.5237Z" fill="white"/>
<rect x="23.5049" y="24.0697" width="60" height="60" rx="30" fill="#00B140"/>
<path fill-rule="evenodd" clip-rule="evenodd" d="M62.8782 50.0237C63.6812 49.2653 63.7173 47.9995 62.9589 47.1965C62.2004 46.3934 60.9346 46.3573 60.1316 47.1157L49.8583 56.8187L46.8782 54.004C46.0751 53.2456 44.8093 53.2817 44.0509 54.0848C43.2925 54.8878 43.3286 56.1536 44.1316 56.912L48.485 61.0237C49.2558 61.7517 50.4608 61.7517 51.2316 61.0237L62.8782 50.0237Z" fill="white"/>
</svg>
