<svg width="12" height="12" viewBox="0 0 12 12" fill="none" xmlns="http://www.w3.org/2000/svg">
<g clip-path="url(#clip0_48_990)">
<path d="M6 12C9.31286 12 12 9.31286 12 6C12 2.68714 9.31286 0 6 0C2.68714 0 0 2.68714 0 6C0 9.31286 2.68714 12 6 12ZM5.57142 2.57143C5.57142 2.33571 5.76428 2.14285 6 2.14285C6.23572 2.14285 6.42858 2.33571 6.42858 2.57143V5.79429L8.41073 7.38001C8.59502 7.52786 8.625 7.79785 8.47714 7.98214C8.43713 8.03238 8.38628 8.07294 8.32839 8.10076C8.27051 8.12859 8.20708 8.14298 8.14285 8.14285C8.04856 8.14285 7.95427 8.11284 7.87501 8.04856L5.73216 6.33429C5.63144 6.25285 5.57145 6.13073 5.57145 6V2.57143H5.57142Z" fill="#E75524"/>
</g>
<defs>
<clipPath id="clip0_48_990">
<rect width="12" height="12" fill="white"/>
</clipPath>
</defs>
</svg>
