<svg width="20" height="21" viewBox="0 0 20 21" fill="none" xmlns="http://www.w3.org/2000/svg">
<path opacity="0.7" d="M19.3665 10.2795C18.5181 8.58109 17.2164 7.15053 15.6054 6.14612C13.9944 5.14171 12.1369 4.6026 10.2385 4.58847C8.34029 4.60301 6.48309 5.14229 4.87231 6.14667C3.26154 7.15105 1.95994 8.58138 1.11149 10.2795C1.03819 10.4246 1 10.5849 1 10.7475C1 10.91 1.03819 11.0704 1.11149 11.2155C1.95976 12.9137 3.26131 14.3442 4.87213 15.3486C6.48295 16.353 8.34024 16.8922 10.2385 16.9065C12.1367 16.8919 13.9939 16.3526 15.6047 15.3483C17.2154 14.3439 18.517 12.9136 19.3655 11.2155C19.4389 11.0704 19.4773 10.9102 19.4775 10.7476C19.4777 10.585 19.4396 10.4247 19.3665 10.2795ZM10.2385 15.3675C9.32474 15.3675 8.43151 15.0965 7.67176 14.5889C6.912 14.0812 6.31984 13.3597 5.97017 12.5155C5.62049 11.6713 5.529 10.7423 5.70726 9.84615C5.88553 8.94996 6.32554 8.12676 6.97166 7.48064C7.61778 6.83452 8.44098 6.39451 9.33717 6.21624C10.2334 6.03798 11.1623 6.12947 12.0065 6.47915C12.8507 6.82882 13.5722 7.42098 14.0799 8.18074C14.5875 8.94049 14.8585 9.83372 14.8585 10.7475C14.8585 11.3542 14.739 11.9549 14.5068 12.5155C14.2746 13.076 13.9343 13.5853 13.5053 14.0143C13.0763 14.4433 12.567 14.7836 12.0065 15.0158C11.446 15.248 10.8452 15.3675 10.2385 15.3675ZM10.2385 7.66747C9.96357 7.67144 9.69044 7.71247 9.42649 7.78947C9.6439 8.08514 9.74819 8.44892 9.72044 8.81487C9.69269 9.18082 9.53475 9.52471 9.27524 9.78422C9.01573 10.0437 8.67184 10.2017 8.30589 10.2294C7.93994 10.2572 7.57616 10.1529 7.28049 9.93547C7.11188 10.5558 7.14207 11.2135 7.36681 11.8158C7.59156 12.4181 7.99953 12.9347 8.53331 13.293C9.0671 13.6513 9.6998 13.8331 10.3424 13.8129C10.9849 13.7928 11.605 13.5716 12.1152 13.1805C12.6255 12.7895 13.0002 12.2482 13.1867 11.633C13.3732 11.0178 13.3621 10.3596 13.1549 9.75102C12.9477 9.14245 12.5549 8.6142 12.0317 8.24061C11.5085 7.86702 10.8814 7.66592 10.2385 7.66747Z" fill="#A4A4A4"/>
</svg>
